<svg xmlns="http://www.w3.org/2000/svg" xmlns:xlink="http://www.w3.org/1999/xlink" width="868" height="1542" viewBox="0 0 868 1542">
  <defs>
    <clipPath id="clip-path">
      <rect id="Rectangle_602" data-name="Rectangle 602" width="867" height="1542" transform="translate(0.266)"/>
    </clipPath>
    <clipPath id="clip-BootPage_2">
      <rect width="868" height="1542"/>
    </clipPath>
  </defs>
  <g id="BootPage_2" clip-path="url(#clip-BootPage_2)">
    <g id="Boot_page-1" data-name="Boot page-1" transform="translate(-0.266)" clip-path="url(#clip-path)">
      <rect id="Rectangle_601" data-name="Rectangle 601" width="867" height="1542" transform="translate(0.266)" fill="#fff"/>
      <path id="Path_1408" data-name="Path 1408" d="M0,0H867.633V1074.9s-208.232,77.974-425.14,77.974S0,1074.9,0,1074.9Z" transform="translate(0 -38.561)" fill="#52c7f4"/>
      <g id="undraw_add_notes_8cfw" transform="translate(45.792 364.278)">
        <path id="Path_1409" data-name="Path 1409" d="M884.441,155.09h-141.7a494.853,494.853,0,0,0,0,175.58c41.49-7.281,89.706-6.006,141.7,0C873.894,270.861,873.413,212.269,884.441,155.09Z" transform="translate(-223.987 -148.701)" opacity="0.1"/>
        <path id="Path_1410" data-name="Path 1410" d="M215.948,731.086c2.731-5.015-.364-11.159-3.9-15.634s-7.835-9.1-7.744-14.824c.137-8.194,8.828-13.015,15.772-17.353a76.455,76.455,0,0,0,14.162-11.385,20.935,20.935,0,0,0,4.338-5.825,23.641,23.641,0,0,0,1.311-10.363q-.465-17.529-1.738-35.019" transform="translate(-176.27 -190.57)" fill="none" stroke="#3f3d56" stroke-miterlimit="10" stroke-width="4"/>
        <path id="Path_1411" data-name="Path 1411" d="M253.48,618.73a12.742,12.742,0,0,0-6.37-10.465l-2.858,5.652.092-6.845a12.742,12.742,0,1,0,9.1,11.658Z" transform="translate(-178.401 -189.295)" fill="#57b894"/>
        <path id="Path_1412" data-name="Path 1412" d="M228.624,713.085a12.742,12.742,0,1,1,.619-10.284l-7.982,6.488,8.782-2.029A12.743,12.743,0,0,1,228.624,713.085Z" transform="translate(-176.293 -197.212)" fill="#57b894"/>
        <path id="Path_1413" data-name="Path 1413" d="M222.709,685.147a12.74,12.74,0,0,1-4.049-25.065l-.072,5.268,2.892-5.724h0A12.742,12.742,0,0,1,234.868,671.8a12.6,12.6,0,0,1-.547,4.36A12.742,12.742,0,0,1,222.709,685.147Z" transform="translate(-176.706 -194.074)" fill="#57b894"/>
        <path id="Path_1414" data-name="Path 1414" d="M256.811,662.482a12.74,12.74,0,1,1,5.652-23.908l-2.256,6.189,4.642-4.459a12.743,12.743,0,0,1,4.124,8.819,12.458,12.458,0,0,1-.318,3.514A12.785,12.785,0,0,1,256.811,662.482Z" transform="translate(-179.801 -192.039)" fill="#57b894"/>
        <path id="Path_1415" data-name="Path 1415" d="M251.784,622.812c-2.948.328-5.816,1.246-8.773,1.429a9.568,9.568,0,0,1-8.081-2.822,41.41,41.41,0,0,1-2.357-4.16,9.1,9.1,0,0,0-3.222-3.029,12.742,12.742,0,1,0,23.879,8.481C252.748,622.73,252.266,622.766,251.784,622.812Z" transform="translate(-178.414 -189.991)" opacity="0.1"/>
        <path id="Path_1416" data-name="Path 1416" d="M256.8,663.2A12.742,12.742,0,0,1,244.647,645a9.454,9.454,0,0,1,2.567,2.576,42.762,42.762,0,0,0,2.53,4.223,10.426,10.426,0,0,0,8.474,2.957c3.085-.144,6.061-1.01,9.1-1.292.427,0,.856-.063,1.292-.082A12.785,12.785,0,0,1,256.8,663.2Z" transform="translate(-179.787 -192.758)" opacity="0.1"/>
        <path id="Path_1417" data-name="Path 1417" d="M222.732,685.893a12.74,12.74,0,0,1-12.251-17.982,10.444,10.444,0,0,1,2.731,2.593c.993,1.4,1.61,3.013,2.731,4.3a11.788,11.788,0,0,0,9.038,3.167c3.258-.082,6.216-.846,9.356-1.082A12.74,12.74,0,0,1,222.732,685.893Z" transform="translate(-176.719 -194.817)" opacity="0.1"/>
        <path id="Path_1418" data-name="Path 1418" d="M228.589,713.891A12.757,12.757,0,0,1,205.3,703.47a12.561,12.561,0,0,1,2.8,2.495,54.056,54.056,0,0,0,3.422,4.55,15.907,15.907,0,0,0,10.585,3.721,56.553,56.553,0,0,0,6.478-.344Z" transform="translate(-176.261 -198.018)" opacity="0.1"/>
        <path id="Path_1419" data-name="Path 1419" d="M195.93,738.713a99.293,99.293,0,0,0,13.123-6.117c3.039-2.169,15.47-4.75,16.254-1.275s15.152,17.29,3.777,17.353-26.446,1.865-29.485,0S195.93,738.713,195.93,738.713Z" transform="translate(-175.517 -200.371)" fill="#656380"/>
        <path id="Path_1420" data-name="Path 1420" d="M229.285,748.352c-11.385.092-26.446,1.82-29.478,0-2.311-1.4-3.23-6.452-3.54-8.782h-.337s.636,8.127,3.639,10.011,18.1.072,29.487,0c3.285,0,4.413-1.193,4.338-2.931C232.975,747.678,231.733,748.333,229.285,748.352Z" transform="translate(-175.518 -201.264)" opacity="0.2"/>
        <path id="Path_1421" data-name="Path 1421" d="M987.063,720.2c-4.314-7.99.583-17.782,6.206-24.908s12.5-14.562,12.349-23.662c-.21-13.06-14.061-20.758-25.137-27.685a122.649,122.649,0,0,1-22.561-18.138,32.316,32.316,0,0,1-6.934-9.284,37.654,37.654,0,0,1-2.085-16.5q.723-27.957,2.731-55.823" transform="translate(-243.289 -183.694)" fill="none" stroke="#3f3d56" stroke-miterlimit="10" stroke-width="4"/>
        <path id="Path_1422" data-name="Path 1422" d="M928.76,541.2a20.3,20.3,0,0,1,10.156-16.673l4.55,9.009-.137-10.92a20.358,20.358,0,1,1-14.562,18.575Z" transform="translate(-241.421 -181.678)" fill="#57b894"/>
        <path id="Path_1423" data-name="Path 1423" d="M968.414,691.581a20.348,20.348,0,1,0-.983-16.389l12.742,10.347-13.979-3.249a20.246,20.246,0,0,0,2.229,9.284Z" transform="translate(-244.781 -194.283)" fill="#57b894"/>
        <path id="Path_1424" data-name="Path 1424" d="M977.774,647.06a20.358,20.358,0,0,0,6.452-39.933l.108,8.392-4.606-9.1h-.055a20.359,20.359,0,0,0-1.9,40.673Z" transform="translate(-244.084 -189.287)" fill="#57b894"/>
        <path id="Path_1425" data-name="Path 1425" d="M923.478,610.978a20.358,20.358,0,1,0-9-38.1l3.639,9.855-7.4-7.1a20.358,20.358,0,0,0,12.759,35.337Z" transform="translate(-239.205 -186.04)" fill="#57b894"/>
        <path id="Path_1426" data-name="Path 1426" d="M931.531,547.723c4.7.518,9.274,1.984,13.979,2.275a15.073,15.073,0,0,0,12.867-4.55,62.251,62.251,0,0,0,3.779-6.628A14.619,14.619,0,0,1,967.28,534a20.358,20.358,0,1,1-38.05,13.514C930,547.588,930.767,547.651,931.531,547.723Z" transform="translate(-241.462 -182.777)" opacity="0.1"/>
        <path id="Path_1427" data-name="Path 1427" d="M923.519,612.121A20.377,20.377,0,0,0,942.886,583a15.031,15.031,0,0,0-4.1,4.1,66.84,66.84,0,0,1-4.032,6.724c-3.167,3.721-8.592,4.941-13.5,4.724s-9.64-1.62-14.562-2.075c-.682-.056-1.364-.1-2.056-.118A20.358,20.358,0,0,0,923.519,612.121Z" transform="translate(-239.248 -187.183)" opacity="0.1"/>
        <path id="Path_1428" data-name="Path 1428" d="M977.866,648.248a20.358,20.358,0,0,0,19.522-28.658,16.226,16.226,0,0,0-4.3,4.141,69.835,69.835,0,0,1-4.423,6.861c-3.432,3.822-9.2,5.17-14.407,5.042-5.042-.108-9.881-1.347-14.906-1.728A20.348,20.348,0,0,0,977.866,648.248Z" transform="translate(-244.176 -190.473)" opacity="0.1"/>
        <path id="Path_1429" data-name="Path 1429" d="M968.64,692.868a20.358,20.358,0,0,0,37.115-16.608,20.261,20.261,0,0,0-4.468,3.986,79.206,79.206,0,0,1-5.461,7.23c-4.16,4.1-10.874,5.77-16.854,5.924a88.432,88.432,0,0,1-10.33-.528Z" transform="translate(-245.007 -195.569)" opacity="0.1"/>
        <path id="Path_1430" data-name="Path 1430" d="M1018.593,730.263s-16.063-4.131-20.932-7.58-24.718-7.563-25.918-2.039-24.145,27.5-6.006,27.649,42.145.819,46.978-2.13S1018.593,730.263,1018.593,730.263Z" transform="translate(-244.114 -199.317)" fill="#656380"/>
        <path id="Path_1431" data-name="Path 1431" d="M965.445,747.587c18.138.145,42.145.81,46.978-2.13,3.639-2.249,5.141-10.284,5.632-14h.537s-1.019,12.959-5.852,15.907-28.839,2.275-46.978,2.13c-5.232,0-7.045-1.9-6.943-4.659C959.547,746.515,961.54,747.551,965.445,747.587Z" transform="translate(-244.123 -200.535)" opacity="0.2"/>
        <path id="Path_1432" data-name="Path 1432" d="M402.889,159.94H261.19c11.038,57.179,10.547,115.771,0,175.58,51.993-6.006,100.216-7.281,141.7,0a494.856,494.856,0,0,0,0-175.58Z" transform="translate(-181.387 -149.138)" opacity="0.1"/>
        <path id="Path_1433" data-name="Path 1433" d="M560.786,243.355c-13.834.983-26.81,10.648-27.757,23.18-.518,6.816,2.331,13.769,1.174,20.486-1.521,8.9-9.674,15.47-18.2,19.939s-17.955,7.835-25.046,13.978-11.238,16.389-6.235,24.4a64.611,64.611,0,0,0,7.409,8.194,27.254,27.254,0,0,1,5.784,26.856c-2.865,8.055-9.857,15.152-9.1,23.708.723,8.194,8.727,14.834,17.391,17.427s17.929,1.983,26.892,1.338c10.346-.737,21.951-2.085,27.957-9.583,6.462-8.055,3.577-19.657,7.016-29.177,6.861-18.965,35.248-23.58,46.587-40.552,5.461-8.194,6.288-18.283,6.206-28C620.641,284.782,604.134,240.289,560.786,243.355Z" transform="translate(-201.29 -156.625)" fill="#3f3d56"/>
        <path id="Path_1434" data-name="Path 1434" d="M564.462,315.5s4.55,14.562-10.92,22.751,12.74,28.213,12.74,28.213l21.843,8.194,24.583-10.92-4.55-37.313s-20.932,7.281-20.932-19.112Z" transform="translate(-207.26 -162.39)" fill="#a0616a"/>
        <path id="Path_1435" data-name="Path 1435" d="M564.462,315.5s4.55,14.562-10.92,22.751,12.74,28.213,12.74,28.213l21.843,8.194,24.583-10.92-4.55-37.313s-20.932,7.281-20.932-19.112Z" transform="translate(-207.26 -162.39)" opacity="0.1"/>
        <path id="Path_1436" data-name="Path 1436" d="M602.734,676.266s-4.55,30.943-1.82,34.582,15.47,1.82,15.47,1.82,2.731-30.943,3.639-34.582S602.734,676.266,602.734,676.266Z" transform="translate(-211.858 -195.527)" fill="#a0616a"/>
        <path id="Path_1437" data-name="Path 1437" d="M616.4,710.57s-13.2-2.111-13.2,1.528c0,0-5.461,2.731-5.461,0s-5.006,28.668-1.364,33.218,17.546-.436,20.932,1.82c2.731,1.82,23.207,1.364,24.118-3.186s.911-8.194-7.281-12.74S616.4,710.57,616.4,710.57Z" transform="translate(-211.416 -198.599)" fill="#3f3d56"/>
        <path id="Path_1438" data-name="Path 1438" d="M616.4,710.57s-13.2-2.111-13.2,1.528c0,0-5.461,2.731-5.461,0s-5.006,28.668-1.364,33.218,17.546-.436,20.932,1.82c2.731,1.82,23.207,1.364,24.118-3.186s.911-8.194-7.281-12.74S616.4,710.57,616.4,710.57Z" transform="translate(-211.416 -198.599)" opacity="0.1"/>
        <path id="Path_1439" data-name="Path 1439" d="M568,673.19s6.37,27.3,3.639,40.044l19.112-5.461s-11.831-31.852-10.92-34.583S568,673.19,568,673.19Z" transform="translate(-208.978 -195.184)" fill="#a0616a"/>
        <path id="Path_1440" data-name="Path 1440" d="M575.458,711.03s11.831-6.37,15.47,0,14.562,31.852,8.194,34.582-26.393,1.82-27.3-8.194S570,712.835,570,712.835,574.547,714.67,575.458,711.03Z" transform="translate(-209.153 -198.442)" fill="#3f3d56"/>
        <path id="Path_1441" data-name="Path 1441" d="M539.359,455.31s-17.292,35.493,4.55,91.916c0,0,10.92,32.763,5.461,51.875S561.2,662.795,561.2,662.795l20.932-3.639s-8.194-60.064-5.461-66.434.911-74.626.911-74.626,24.583,46.414,20.932,83.727-4.55,58.245-4.55,58.245l23.662-.911a365.878,365.878,0,0,1,7.281-37.313c4.55-17.292,7.281-99.2-4.55-123.77l-2.731-30.013Z" transform="translate(-205.816 -175.701)" fill="#3f3d56"/>
        <circle id="Ellipse_306" data-name="Ellipse 306" cx="21.843" cy="21.843" r="21.843" transform="translate(340.821 117.608)" fill="#a0616a"/>
        <ellipse id="Ellipse_307" data-name="Ellipse 307" cx="25.482" cy="13.651" rx="25.482" ry="13.651" transform="translate(335.205 115.942) rotate(-7.296)" fill="#3f3d56"/>
        <path id="Path_1442" data-name="Path 1442" d="M594.2,282.81c-1.2,6.652-10.92,12.851-23.462,14.461-13.706,1.757-25.61-2.666-26.938-9.9a7.41,7.41,0,0,0-.072,2.331c.911,7.471,13.051,12.087,27.01,10.3s24.5-9.3,23.535-16.781C594.251,283.073,594.225,282.984,594.2,282.81Z" transform="translate(-206.79 -160.187)" opacity="0.1"/>
        <path id="Path_1443" data-name="Path 1443" d="M527.291,344.492c-2.931-1.205-6.3.665-8.264,3.15s-3.094,5.543-5.032,8.055a38.583,38.583,0,0,1-8.146,6.835,68.927,68.927,0,0,0-10.347,9.327,22.932,22.932,0,0,1-5.461,5.023,13.169,13.169,0,0,1-11.568,0,39.458,39.458,0,0,1-9.775-6.835q-13.434-11.713-26.511-23.961a41.4,41.4,0,0,0-23.551-9.64,7.453,7.453,0,0,0-5.907,1.157,5.389,5.389,0,0,0-1.574,3.8c-.19,4.741,3.842,8.691,8.194,10.6s9.173,2.5,13.552,4.324a26.512,26.512,0,0,1,10.585,8.081c3.058,3.895,6.763,7.081,9.674,11.086,1.328,1.82,2.5,3.74,3.777,5.6a122.668,122.668,0,0,0,10.084,12.3c4.213,4.688,9.366,9.766,15.644,9.291a20.591,20.591,0,0,0,7.4-2.521,120.234,120.234,0,0,0,21.24-12.333c3.776-2.957,7.189-6.37,11.149-9.1,3.786-2.593,8.108-4.55,11.176-7.982a16.63,16.63,0,0,0,3.695-14.743,17.227,17.227,0,0,0-10.031-11.52Z" transform="translate(-194.879 -165.046)" fill="#a0616a"/>
        <path id="Path_1444" data-name="Path 1444" d="M629.207,334.492c2.931-1.205,6.3.665,8.264,3.15s3.095,5.543,5.032,8.055a38.584,38.584,0,0,0,8.146,6.835A68.928,68.928,0,0,1,661,361.858a22.932,22.932,0,0,0,5.461,5.023,13.169,13.169,0,0,0,11.568,0,39.464,39.464,0,0,0,9.773-6.835q13.47-11.759,26.538-23.961a41.4,41.4,0,0,1,23.554-9.64A7.452,7.452,0,0,1,743.8,327.6a5.387,5.387,0,0,1,1.574,3.8c.19,4.741-3.842,8.691-8.194,10.6s-9.173,2.5-13.552,4.324a26.512,26.512,0,0,0-10.585,8.081c-3.058,3.895-6.763,7.081-9.674,11.086-1.328,1.82-2.5,3.74-3.777,5.6a122.647,122.647,0,0,1-10.123,12.3c-4.213,4.688-9.363,9.766-15.644,9.291a20.586,20.586,0,0,1-7.4-2.521,120.231,120.231,0,0,1-21.24-12.333c-3.777-2.957-7.189-6.37-11.149-9.1-3.786-2.593-8.11-4.55-11.176-7.982a16.629,16.629,0,0,1-3.695-14.743A17.227,17.227,0,0,1,629.207,334.492Z" transform="translate(-213.541 -164.146)" fill="#a0616a"/>
        <path id="Path_1445" data-name="Path 1445" d="M584.425,361.885a171.721,171.721,0,0,0-15.47-9.1c-7.281-3.639-15.47-15.47-15.47-15.47S528,341.864,528,348.234s10.92,29.121,14.562,30.943,9.1,1.82,8.194,5.461,2.731,10.92,2.731,10.92,7.281,10.92,2.731,13.651-24.583,35.493-21.843,40.044,28.213,9.1,40.952,20.021,48.233-.911,48.233-3.639-3.639-8.194-3.639-8.194-.911-45.5,3.639-60.064.911-35.493-.911-38.224c0,0,10.92-19.112,6.37-24.583s-26.393-8.194-28.213-7.281l-1.721,9.91a80.174,80.174,0,0,1-6.288,20.021c-.911,1.974-1.7,3.74-2,4.632C589.884,364.615,584.425,361.885,584.425,361.885Z" transform="translate(-205.38 -164.182)" fill="#f9a826"/>
        <path id="Path_1446" data-name="Path 1446" d="M736.745,323.65c41.49-7.281,89.706-6.006,141.7,0-10.547-59.809-11.031-118.4,0-175.58h-141.7a494.856,494.856,0,0,0,0,175.58Z" transform="translate(-223.445 -148.07)" fill="#f2f2f2"/>
        <rect id="Rectangle_519" data-name="Rectangle 519" width="87.366" height="11.831" transform="translate(536.487 29.531)" fill="#f9a826"/>
        <rect id="Rectangle_520" data-name="Rectangle 520" width="87.366" height="11.831" transform="translate(536.487 54.104)" fill="#f9a826"/>
        <path id="Path_1447" data-name="Path 1447" d="M409.889,327.52c-41.48-7.281-89.706-6.006-141.7,0,10.547-59.809,11.038-118.4,0-175.58h141.7a494.859,494.859,0,0,1,0,175.58Z" transform="translate(-182.015 -148.419)" fill="#f2f2f2"/>
        <rect id="Rectangle_521" data-name="Rectangle 521" width="87.366" height="11.831" transform="translate(116.945 35.903)" fill="#f9a826"/>
        <rect id="Rectangle_522" data-name="Rectangle 522" width="597.915" height="1.82" transform="translate(89.188 547.616)" fill="#3f3d56"/>
        <rect id="Rectangle_523" data-name="Rectangle 523" width="72.806" height="1.82" transform="translate(703.484 547.616)" fill="#3f3d56"/>
        <rect id="Rectangle_524" data-name="Rectangle 524" width="72.806" height="1.82" transform="translate(0 547.616)" fill="#3f3d56"/>
        <path id="Path_1448" data-name="Path 1448" d="M395.122,472.719a12.742,12.742,0,0,0-6.37-10.465l-2.858,5.652.082-6.845a12.732,12.732,0,1,0,9.158,11.658Z" transform="translate(-191.131 -176.159)" fill="#f2f2f2"/>
        <path id="Path_1449" data-name="Path 1449" d="M393.419,476.812c-2.948.328-5.816,1.246-8.773,1.429a9.568,9.568,0,0,1-8.081-2.822,41.47,41.47,0,0,1-2.357-4.16,9.1,9.1,0,0,0-3.222-3.03,12.74,12.74,0,1,0,23.879,8.481C394.383,476.73,393.9,476.767,393.419,476.812Z" transform="translate(-191.147 -176.862)" opacity="0.03"/>
        <path id="Path_1450" data-name="Path 1450" d="M738.4,609.578a12.739,12.739,0,0,0-12.2,1.2l3.842,5.042-6.124-3.068a12.738,12.738,0,1,0,14.487-3.15Z" transform="translate(-222.702 -189.48)" fill="#f2f2f2"/>
        <path id="Path_1451" data-name="Path 1451" d="M740.969,612.873c-1,2.793-1.42,5.77-2.547,8.517a9.537,9.537,0,0,1-6.071,6.025,39.682,39.682,0,0,1-4.769.309,9.1,9.1,0,0,0-4.131,1.574A12.841,12.841,0,1,0,741.5,611.463C741.306,611.962,741.133,612.427,740.969,612.873Z" transform="translate(-222.958 -189.752)" opacity="0.03"/>
        <path id="Path_1452" data-name="Path 1452" d="M688.587,175.16a12.742,12.742,0,0,0-12.258-.1l3.3,5.415-5.784-3.639a12.74,12.74,0,1,0,14.735-1.629Z" transform="translate(-218.118 -150.36)" fill="#f2f2f2"/>
        <path id="Path_1453" data-name="Path 1453" d="M690.75,178.772c-1.275,2.666-2.012,5.589-3.413,8.194a9.559,9.559,0,0,1-6.652,5.379,40,40,0,0,1-4.777-.183,9.1,9.1,0,0,0-4.278,1.138,12.8,12.8,0,1,0,19.794-15.8C691.187,177.953,690.958,178.333,690.75,178.772Z" transform="translate(-218.295 -150.714)" opacity="0.03"/>
      </g>
      <text id="MyLog14" transform="translate(341 104)" fill="#fff" font-size="60" font-family="TrebuchetMS-Bold, Trebuchet MS" font-weight="700"><tspan x="0" y="0">MyLog</tspan></text>
    </g>
  </g>
</svg>
