<svg xmlns="http://www.w3.org/2000/svg" xmlns:xlink="http://www.w3.org/1999/xlink" width="868" height="1542" viewBox="0 0 868 1542">
  <defs>
    <clipPath id="clip-path">
      <rect id="Rectangle_604" data-name="Rectangle 604" width="868" height="1542" transform="translate(-0.468)"/>
    </clipPath>
    <linearGradient id="linear-gradient" x1="0.627" y1="0.5" x2="1.626" y2="0.5" gradientUnits="objectBoundingBox">
      <stop offset="0" stop-color="gray" stop-opacity="0.251"/>
      <stop offset="0.54" stop-color="gray" stop-opacity="0.122"/>
      <stop offset="1" stop-color="gray" stop-opacity="0.102"/>
    </linearGradient>
    <clipPath id="clip-BootPage_3">
      <rect width="868" height="1542"/>
    </clipPath>
  </defs>
  <g id="BootPage_3" clip-path="url(#clip-BootPage_3)">
    <g id="Boot_page-2" data-name="Boot page-2" transform="translate(0.468)" clip-path="url(#clip-path)">
      <rect id="Rectangle_603" data-name="Rectangle 603" width="868" height="1542" transform="translate(-0.468)" fill="#fff"/>
      <path id="Path_1408" data-name="Path 1408" d="M0,0H867.633V1074.9s-208.232,77.974-425.14,77.974S0,1074.9,0,1074.9Z" transform="translate(0 -38.561)" fill="#52c7f4"/>
      <g id="undraw_visual_data_b1wx" transform="translate(-0.03 267.498)">
        <ellipse id="Ellipse_308" data-name="Ellipse 308" cx="44.739" cy="11.877" rx="44.739" ry="11.877" transform="translate(675.658 623.178)" fill="#f9a826" opacity="0.1"/>
        <path id="Path_1454" data-name="Path 1454" d="M845.408,581.255c-18.247,15.135-44.211,21.4-69.319,25.357l-4.227.643a793.567,793.567,0,0,1-79.352,7.262c-14.237.689-28.473,1.176-42.712,1.61l-11.156.33q-21.729.644-43.543,1.265-21.356.607-42.712,1.14-27.35.668-54.709,1.109-21.356.337-42.712.465-27.357.157-54.709-.1-21.37-.217-42.712-.75-27.364-.7-54.709-2.061-18.558-.906-37.084-2.169l-5.628-.4c-53.022-3.822-107.008-10.677-153.414-32.348l-1.251-.593c-.622-.292-1.244-.586-1.865-.892a167.926,167.926,0,0,1-24.4-14.3c-13.721-9.785-25.051-21.729-31.037-35.91-9.382-22.223-4.42-47.206,6.3-68.929S81.279,420.624,95.2,400.16c4.075-5.994,7.953-12.214,11.54-18.591,22.479-39.991,33.63-86.269,10.062-124.807a171.275,171.275,0,0,0-10.062-14.236A134.922,134.922,0,0,1,91.2,219.244c-9.209-19.3-7.23-41.01-3.873-61.631,4.495-27.427,12.737-56.948,38.5-74.077,26.728-17.789,64.665-16.89,97.85-10.491,51.576,9.881,99.18,30.572,147.233,49.231S469.3,158,522.133,159.833a241.34,241.34,0,0,0,34-1.236h0a215.664,215.664,0,0,0,44.3-9.33c20.794-6.849,39.714-17.153,53.745-31.471,30.085-30.608,86.621-32.924,127.383-14.439,38.9,17.639,64.051,54.969,62.192,92.256-2.114,41.5-33.194,75.629-61.677,110.623-3.454,4.242-6.864,8.5-10.183,12.773q-2.779,3.589-5.454,7.194h0c-3.133,4.242-6.143,8.505-8.992,12.822-14.552,22.127-24.841,48.706-14.822,72.594,5.62,13.376,16.343,23.58,29.268,32.49,28.962,19.953,68.929,33.382,86.92,61.318C874.3,529.515,868.562,562.012,845.408,581.255Z" transform="translate(-43.201 0.465)" fill="#f9a826" opacity="0.1"/>
        <g id="Group_858" data-name="Group 858" transform="translate(317.667 0)" opacity="0.1">
          <path id="Path_1455" data-name="Path 1455" d="M598.7,598.286q.041.986.147,1.928,8.158-3.251,16.015-6.989a12.983,12.983,0,0,0,7.4-3.615c1.531-.769,3.054-1.574,4.565-2.376a18.8,18.8,0,0,0-1.159-2.1,13.282,13.282,0,0,0-24.174.776A24.1,24.1,0,0,0,598.7,598.286Z" transform="translate(-506.33 -62.65)" fill="#3f3d56"/>
          <path id="Path_1456" data-name="Path 1456" d="M597.55,563.324a24.168,24.168,0,0,0,3.6,12.108,14.4,14.4,0,0,0,12.352,7.382c.342,0,.7-.048,1.015-.077a12.981,12.981,0,0,0,7.4-3.615,17.807,17.807,0,0,0,3.406-4.459,25.039,25.039,0,0,0-.8-24.467,13.282,13.282,0,0,0-24.173.776A24.1,24.1,0,0,0,597.55,563.324Z" transform="translate(-505.985 -52.134)" fill="#3f3d56"/>
          <ellipse id="Ellipse_309" data-name="Ellipse 309" cx="15.287" cy="20.013" rx="15.287" ry="20.013" transform="translate(90.119 466.729) rotate(-1.892)" fill="#3f3d56"/>
          <ellipse id="Ellipse_310" data-name="Ellipse 310" cx="15.287" cy="20.013" rx="15.287" ry="20.013" transform="translate(89.319 442.288) rotate(-1.892)" fill="#3f3d56"/>
          <ellipse id="Ellipse_311" data-name="Ellipse 311" cx="15.287" cy="20.013" rx="15.287" ry="20.013" transform="translate(88.516 417.84) rotate(-1.892)" fill="#3f3d56"/>
          <path id="Path_1457" data-name="Path 1457" d="M661.361,199.331a88.259,88.259,0,0,0,6.568-10.392l-48.988-6.4,52.7-1.34a88.992,88.992,0,0,0-.61-70.418L601.54,149.768,665.166,99.71A88.872,88.872,0,1,0,521.689,203.947a89.215,89.215,0,0,0-9.594,16.528l64.318,30.782-68.179-20.413a88.915,88.915,0,0,0,17.061,82.934,88.865,88.865,0,1,0,139.617-4.625,88.889,88.889,0,0,0-3.551-109.821Z" transform="translate(-501.053 -58.136)" fill="#f9a826"/>
          <path id="Path_1458" data-name="Path 1458" d="M505.1,294.905a72.882,72.882,0,0,0,17.148,44.739,73.219,73.219,0,1,0,115.033-3.789C646.683,323.086,504.833,286.694,505.1,294.905Z" transform="translate(-478.167 22.825)" opacity="0.1"/>
        </g>
        <g id="Group_859" data-name="Group 859" transform="translate(213.981 338.144)" opacity="0.1">
          <path id="Path_1459" data-name="Path 1459" d="M360.768,785.08a11.955,11.955,0,0,1-.1,1.4q-5.8-2.307-11.4-4.943a9.235,9.235,0,0,1-5.271-2.564q-1.637-.831-3.251-1.687a13.227,13.227,0,0,1,.824-1.482,9.428,9.428,0,0,1,17.17.53,17.125,17.125,0,0,1,2.034,8.749Z" transform="translate(-300.913 -511.841)" fill="#3f3d56"/>
          <path id="Path_1460" data-name="Path 1460" d="M360.821,760.182a17.188,17.188,0,0,1-2.545,8.618,10.245,10.245,0,0,1-8.78,5.264l-.7-.055a9.235,9.235,0,0,1-5.271-2.564,12.587,12.587,0,0,1-2.427-3.179,17.835,17.835,0,0,1,.545-17.4,9.455,9.455,0,0,1,17.2.533A17.126,17.126,0,0,1,360.821,760.182Z" transform="translate(-300.421 -504.341)" fill="#3f3d56"/>
          <ellipse id="Ellipse_312" data-name="Ellipse 312" cx="14.239" cy="10.877" rx="14.239" ry="10.877" transform="translate(38.771 252.021) rotate(-88.19)" fill="#3f3d56"/>
          <ellipse id="Ellipse_313" data-name="Ellipse 313" cx="14.239" cy="10.877" rx="14.239" ry="10.877" transform="translate(39.314 234.625) rotate(-88.19)" fill="#3f3d56"/>
          <ellipse id="Ellipse_314" data-name="Ellipse 314" cx="14.239" cy="10.877" rx="14.239" ry="10.877" transform="translate(39.866 217.222) rotate(-88.19)" fill="#3f3d56"/>
          <path id="Path_1461" data-name="Path 1461" d="M298,483.432a52.992,52.992,0,0,1-3.856-6.088l28.716-3.818-30.9-.7a52.176,52.176,0,0,1,.308-41.3l40.776,22.809L295.7,425.013a52.106,52.106,0,1,1,84.18,61,52.027,52.027,0,0,1,5.642,9.688l-37.692,18.09,39.964-12.024a52.184,52.184,0,0,1-9.961,48.653,52.106,52.106,0,1,1-81.871-2.586,52.106,52.106,0,0,1,2.034-64.4Z" transform="translate(-283.773 -400.457)" fill="#f9a826"/>
          <path id="Path_1462" data-name="Path 1462" d="M389.99,569.065a51.918,51.918,0,0,1-12.156,31.854,52.106,52.106,0,1,1-81.871-2.586C289.258,589.247,390.185,563.213,389.99,569.065Z" transform="translate(-283.77 -450.956)" opacity="0.1"/>
        </g>
        <g id="Group_860" data-name="Group 860" transform="translate(578.04 247.145)" opacity="0.1">
          <path id="Path_1463" data-name="Path 1463" d="M881.539,655.031a13.519,13.519,0,0,1-.1,1.4q-5.808-2.307-11.4-4.943a9.269,9.269,0,0,1-5.278-2.567c-1.082-.552-2.169-1.118-3.251-1.687a14.464,14.464,0,0,1,.824-1.482,9.426,9.426,0,0,1,17.167.53A17.115,17.115,0,0,1,881.539,655.031Z" transform="translate(-821.706 -381.702)" fill="#3f3d56"/>
          <path id="Path_1464" data-name="Path 1464" d="M881.644,630.135a17.189,17.189,0,0,1-2.552,8.619,10.235,10.235,0,0,1-8.78,5.264l-.7-.055a9.267,9.267,0,0,1-5.278-2.567,12.806,12.806,0,0,1-2.425-3.174,17.835,17.835,0,0,1,.545-17.4,9.455,9.455,0,0,1,17.2.533,17.125,17.125,0,0,1,1.986,8.78Z" transform="translate(-821.223 -374.194)" fill="#3f3d56"/>
          <ellipse id="Ellipse_315" data-name="Ellipse 315" cx="14.239" cy="10.877" rx="14.239" ry="10.877" transform="translate(38.776 252.106) rotate(-88.19)" fill="#3f3d56"/>
          <ellipse id="Ellipse_316" data-name="Ellipse 316" cx="14.239" cy="10.877" rx="14.239" ry="10.877" transform="translate(39.328 234.71) rotate(-88.19)" fill="#3f3d56"/>
          <ellipse id="Ellipse_317" data-name="Ellipse 317" cx="14.239" cy="10.877" rx="14.239" ry="10.877" transform="translate(39.877 217.314) rotate(-88.19)" fill="#3f3d56"/>
          <path id="Path_1465" data-name="Path 1465" d="M818.765,353.346a51.442,51.442,0,0,1-3.856-6.088l28.716-3.781-30.9-.747a52.215,52.215,0,0,1,.3-41.3L853.8,324.24l-37.335-29.312a52.113,52.113,0,1,1,84.18,61,52,52,0,0,1,5.635,9.689l-37.691,18.09,39.964-12.024a52.128,52.128,0,0,1-9.942,48.645,52.1,52.1,0,1,1-81.851-2.586,52.106,52.106,0,0,1,2.034-64.4Z" transform="translate(-804.557 -270.282)" fill="#f9a826"/>
          <path id="Path_1466" data-name="Path 1466" d="M910.773,439.014a51.869,51.869,0,0,1-12.164,31.849,52.1,52.1,0,1,1-81.856-2.586C810.041,459.2,910.954,433.157,910.773,439.014Z" transform="translate(-804.565 -320.817)" opacity="0.1"/>
        </g>
        <ellipse id="Ellipse_318" data-name="Ellipse 318" cx="39.853" cy="7.662" rx="39.853" ry="7.662" transform="translate(141.235 615.837)" fill="#f9a826"/>
        <ellipse id="Ellipse_319" data-name="Ellipse 319" cx="4.642" cy="6.076" rx="4.642" ry="6.076" transform="translate(175.781 614.167)" fill="#3f3d56"/>
        <ellipse id="Ellipse_320" data-name="Ellipse 320" cx="4.642" cy="6.076" rx="4.642" ry="6.076" transform="translate(175.781 606.743)" fill="#3f3d56"/>
        <ellipse id="Ellipse_321" data-name="Ellipse 321" cx="4.642" cy="6.076" rx="4.642" ry="6.076" transform="translate(175.781 599.318)" fill="#3f3d56"/>
        <ellipse id="Ellipse_322" data-name="Ellipse 322" cx="4.642" cy="6.076" rx="4.642" ry="6.076" transform="translate(175.781 591.895)" fill="#3f3d56"/>
        <ellipse id="Ellipse_323" data-name="Ellipse 323" cx="4.642" cy="6.076" rx="4.642" ry="6.076" transform="translate(175.781 584.472)" fill="#3f3d56"/>
        <ellipse id="Ellipse_324" data-name="Ellipse 324" cx="4.642" cy="6.076" rx="4.642" ry="6.076" transform="translate(175.781 577.046)" fill="#3f3d56"/>
        <ellipse id="Ellipse_325" data-name="Ellipse 325" cx="4.642" cy="6.076" rx="4.642" ry="6.076" transform="translate(175.781 569.623)" fill="#3f3d56"/>
        <path id="Path_1467" data-name="Path 1467" d="M243.521,652.139a22.625,22.625,0,0,0,1.726-2.545l-12.19-2.008,13.183.106a22.293,22.293,0,0,0,.427-17.615l-17.693,9.178,16.316-12.017a22.231,22.231,0,1,0-36.713,24.88,22.378,22.378,0,0,0-2.531,4.054l15.827,8.221L205,658.731a22.243,22.243,0,0,0,3.579,20.874,22.231,22.231,0,1,0,34.946,0,22.243,22.243,0,0,0,0-27.475Z" transform="translate(-45.729 -127.247)" fill="#f9a826"/>
        <path id="Path_1468" data-name="Path 1468" d="M203.823,687.139a22.139,22.139,0,0,0,4.753,13.737,22.231,22.231,0,1,0,34.946,0C246.5,697.1,203.823,684.644,203.823,687.139Z" transform="translate(-45.727 -148.504)" opacity="0.1"/>
        <path id="Path_1469" data-name="Path 1469" d="M372.555,572.345V730.329q-17.309-.846-34.594-2.034l-5.249-.371V572.345a6.165,6.165,0,0,1,6.165-6.165H366.39A6.165,6.165,0,0,1,372.555,572.345Z" transform="translate(-84.514 -112.198)" fill="#3f3d56"/>
        <path id="Path_1470" data-name="Path 1470" d="M462.71,686.846v-265.5a6.165,6.165,0,0,1,6.165-6.165h27.514a6.165,6.165,0,0,1,6.165,6.165V687.54Z" transform="translate(-123.64 -66.755)" fill="#3f3d56"/>
        <path id="Path_1471" data-name="Path 1471" d="M592.71,711.457V500.345a6.165,6.165,0,0,1,6.165-6.165h27.514a6.165,6.165,0,0,1,6.165,6.165V711Z" transform="translate(-162.765 -90.53)" fill="#3f3d56"/>
        <path id="Path_1472" data-name="Path 1472" d="M762.556,276.345V641.491q-19.922.566-39.846,1.063V276.345a6.165,6.165,0,0,1,6.165-6.165h27.514a6.165,6.165,0,0,1,6.167,6.165Z" transform="translate(-201.891 -23.114)" fill="#3f3d56"/>
        <path id="Path_1473" data-name="Path 1473" d="M892.556,381.345V670.05c-13.282.643-26.564,1.1-39.846,1.5V381.345a6.165,6.165,0,0,1,6.165-6.165h27.514a6.165,6.165,0,0,1,6.167,6.165Z" transform="translate(-241.016 -54.714)" fill="#3f3d56"/>
        <path id="Path_1474" data-name="Path 1474" d="M318.5,296.326l90.875-101.361,90.875,51.029L591.127,89.41,682,164.207" transform="translate(-50.034 71.688)" fill="none" stroke="#3f3d56" stroke-linecap="round" stroke-miterlimit="10" stroke-width="7"/>
        <circle id="Ellipse_326" data-name="Ellipse 326" cx="19.572" cy="19.572" r="19.572" transform="translate(248.544 348.439)" fill="#f9a826"/>
        <circle id="Ellipse_327" data-name="Ellipse 327" cx="19.572" cy="19.572" r="19.572" transform="translate(339.419 247.078)" fill="#f9a826"/>
        <circle id="Ellipse_328" data-name="Ellipse 328" cx="19.572" cy="19.572" r="19.572" transform="translate(430.294 298.109)" fill="#f9a826"/>
        <circle id="Ellipse_329" data-name="Ellipse 329" cx="19.572" cy="19.572" r="19.572" transform="translate(521.169 141.523)" fill="#f9a826"/>
        <circle id="Ellipse_330" data-name="Ellipse 330" cx="19.572" cy="19.572" r="19.572" transform="translate(695.93 307.897)" fill="#f9a826"/>
        <ellipse id="Ellipse_331" data-name="Ellipse 331" cx="13.058" cy="2.21" rx="13.058" ry="2.21" transform="translate(196.115 601.521)" fill="#f9a826" opacity="0.1"/>
        <path id="Path_1475" data-name="Path 1475" d="M264.35,764s7.445-.241,9.689-1.832,11.458-3.495,12.017-.945,11.185,12.752,2.8,12.822-19.539-1.313-21.775-2.678S264.35,764,264.35,764Z" transform="translate(-63.943 -170.522)" fill="#a8a8a8"/>
        <path id="Path_1476" data-name="Path 1476" d="M288.982,774.878c-8.39.07-19.522-1.306-21.775-2.67-1.706-1.041-2.384-4.767-2.615-6.488h-.241s.468,6,2.711,7.368,13.366,2.748,21.775,2.678c2.425,0,3.266-.88,3.215-2.169C291.715,774.382,290.794,774.864,288.982,774.878Z" transform="translate(-63.941 -172.251)" opacity="0.2"/>
        <ellipse id="Ellipse_332" data-name="Ellipse 332" cx="23.985" cy="4.054" rx="23.985" ry="4.054" transform="translate(765.478 618.411)" fill="#f9a826" opacity="0.1"/>
        <path id="Path_1477" data-name="Path 1477" d="M1084,777.068s13.68-.419,17.806-3.355,21.04-6.437,22.062-1.733,20.565,23.419,5.117,23.544-35.889-2.41-40.008-4.893S1084,777.068,1084,777.068Z" transform="translate(-310.624 -173.443)" fill="#a8a8a8"/>
        <path id="Path_1478" data-name="Path 1478" d="M1129.233,797.087c-15.449.125-35.889-2.41-40.007-4.893-3.133-1.909-4.384-8.758-4.8-11.884h-.453s.868,11.038,4.977,13.54,24.564,5.04,40.007,4.893c4.459,0,6-1.622,5.914-3.969C1134.246,796.171,1132.547,797.06,1129.233,797.087Z" transform="translate(-310.615 -176.642)" opacity="0.2"/>
        <path id="Path_1479" data-name="Path 1479" d="M892.764,397.081a6.294,6.294,0,0,0,1.4,3.336,12.1,12.1,0,0,0,3.895,2.355,15.379,15.379,0,0,1,7.521,8.647c2.328,6.794,2.63,13.978,5.592,20.539s6.445,12.855,9,19.572a65.62,65.62,0,0,0,4.746,11.241,17.425,17.425,0,0,0,3.895,4.48c-.161,2.461-.224,4.892-.209,7.353A2.8,2.8,0,0,1,931,475.863a7.275,7.275,0,0,1,1.048,2.622c.964,3.965-.224,8.194.636,12.171a61.907,61.907,0,0,1-2.1,33.3c-.964,2.711-2.169,11.689-1.14,14.379,3.8-.383,7.172,1.95,10.73,3.495a14.767,14.767,0,0,1-.5,6.29,34.645,34.645,0,0,0-1.251,11.583l.176,28.842a43.494,43.494,0,0,0,.964,10.906c1.041,3.991,3.229,8.059,3.159,12.185-.188,8.879,4.005,17.336,3.67,26.145-.062,1.687-.294,3.374-.453,5.047a57.42,57.42,0,0,0,.335,13.415c1.272,8.85,4.635,17.553,3.8,26.451-.055.6-.258,1.4-.824,1.629.7.791,1.446,1.574,2.2,2.321a1.988,1.988,0,0,1-.607.636,6.176,6.176,0,0,1-2.67.7,5.657,5.657,0,0,0-3.054.993,4.4,4.4,0,0,0-1.272,2.335,6.292,6.292,0,0,0,.839,5.23,5.833,5.833,0,0,0,2.369,1.776c3.229,1.4,6.934.383,10.3-.636l13.2-4a4.446,4.446,0,0,0,2.145-1.118,2.346,2.346,0,0,0,.525-1.133,18.058,18.058,0,0,0,9.089-1.048l13.2-4.005a4.381,4.381,0,0,0,2.145-1.118,2.559,2.559,0,0,0,.538-2.1c.1-.041.2-.07.294-.118,1.007-.456,2.1-1.343,1.853-2.41-.176-.7-.875-1.1-1.174-1.747a2.524,2.524,0,0,1,.482-2.468c.518-.7,1.205-1.28,1.687-2.012,1.523-2.335.482-5.4-.084-8.136-1.236-5.837-.092-11.932-.873-17.835-.265-1.993-.747-3.95-1.133-5.929a121.063,121.063,0,0,1-1.615-14.135c-.5-6.768-2.384-13.436-1.306-20.146a78.211,78.211,0,0,0,.666-11.884,51.625,51.625,0,0,0-.328-7.577c-.272-1.873-.754-3.712-.964-5.591a50.744,50.744,0,0,1-.111-6.355,62.858,62.858,0,0,0-1.3-14.065c-1.4-6.355-4.027-12.436-5.146-18.8.378.084.754.169,1.118.265.041-4.892-4.244-15.533-5.83-20.175a5.867,5.867,0,0,1-.419-1.783,19.3,19.3,0,0,1,.441-2.4,19.639,19.639,0,0,0-.942-4.991,11.7,11.7,0,0,1,.258-3.552c1.125-6.266,2.523-12.463,3.921-18.664a19.877,19.877,0,0,0,.622-6.9,8.662,8.662,0,0,1,2.1-6.871,8.156,8.156,0,0,0,1.552-1.95,4.951,4.951,0,0,0,.309-1.95A31.319,31.319,0,0,0,991,466.488a21.991,21.991,0,0,0,2.041-7.556,122.7,122.7,0,0,0,1.538-17.218,29.181,29.181,0,0,0-1.258-9.088,36.034,36.034,0,0,0-2.391-5.271A171.506,171.506,0,0,0,979.1,406.334c-1.4-1.971-.518-4.69-.419-7.124a20.344,20.344,0,0,0-2.2-8.452,13.866,13.866,0,0,0-2.629-4.524,4.271,4.271,0,0,0-3.075-1.4,4.634,4.634,0,0,0-3.278,2.005,10.813,10.813,0,0,0-1.964,8.088,15.641,15.641,0,0,0,3.558,7.64,17.3,17.3,0,0,0,3.068,2.916q1.733,5.51,3.495,11.009a137.36,137.36,0,0,0,6.29,17.225,13.589,13.589,0,0,1,1.687,5,14.685,14.685,0,0,1-1.335,5.521,38.968,38.968,0,0,0-2.251,11.646,4.033,4.033,0,0,0-.588.32c-2.2,1.446-2.892,4.579-5.187,5.864a16.236,16.236,0,0,1-4.454,1.041,1.533,1.533,0,0,0-.4.111c-.056-.28-.111-.552-.147-.839a2.235,2.235,0,0,1,0-.537,23.484,23.484,0,0,0,8.688-8.276,7.573,7.573,0,0,0,1.027-2.1,8.114,8.114,0,0,0,.1-2.726,43.541,43.541,0,0,0-1.292-8.982,14.944,14.944,0,0,0-4.676-7.613c-1.147-.923-2.468-1.615-3.615-2.545-2.222-1.8-3.748-4.454-6.29-5.784a7.57,7.57,0,0,0-9.515,2.461,5.519,5.519,0,0,1-1.4,1.776,14.492,14.492,0,0,0-1.3.7,2.651,2.651,0,0,0-.559,2.755,28.7,28.7,0,0,1,.8,6.006,14.68,14.68,0,0,0-.041,18.994c0,1.3,0,2.6-.048,3.9a3.793,3.793,0,0,1-.048.74,5.039,5.039,0,0,1-2.1-1.4c-.783-.979-.923-2.41-1.88-3.222a5.3,5.3,0,0,0-2.292-.839,14.242,14.242,0,0,1-5.592-2.651,11.234,11.234,0,0,0-4.145-2.571,91.985,91.985,0,0,0-9.089-13.87,27.046,27.046,0,0,1-2.376-3.263,45.36,45.36,0,0,1-2.893-8.578c-2.651-8.052-9.283-14.511-10.9-22.845a37.69,37.69,0,0,0-3.817-8.435,10.764,10.764,0,0,0-3.642-4.943,6.2,6.2,0,0,0-7.346,1.126A8.829,8.829,0,0,0,892.764,397.081Zm82.989,282.9a6.18,6.18,0,0,1-2.67.7,12.87,12.87,0,0,0-1.4.224c-.176-1.468-.272-2.957-.386-4.4-.371-4.745-1.111-9.457-1.846-14.162a84.313,84.313,0,0,0-2.8-14.943c-2.678-7.647-5.389-15.526-5.047-23.619.077-1.839.309-3.663.405-5.495.224-4.536-.412-9.17.7-13.583.5-2.005,1.342-3.921,1.663-5.963a28.282,28.282,0,0,0,.07-5.543,73.767,73.767,0,0,1,1.586-19.119,13.494,13.494,0,0,1,2.1,6l2.622,14.219c1.559,8.435,2.936,17.386,7.066,24.894a14.823,14.823,0,0,0-.2,8.18c.412,1.118,1.092,2.1,1.511,3.23a24.064,24.064,0,0,1,.81,5.941c.455,4.193,2.188,8.32.916,12.366a60.345,60.345,0,0,0-2.538,12.834,31.155,31.155,0,0,1-.419,3.615c-.224,1.077-.588,2.1-.791,3.2a10.6,10.6,0,0,0,.2,4.664,9.525,9.525,0,0,1,.573,2.622c0,.894-1.1,1.538-1.979,1.687.258.335.538.658.824.964a3.06,3.06,0,0,1-.981,1.492Z" transform="translate(-253.031 -57.61)" fill="url(#linear-gradient)"/>
        <path id="Path_1480" data-name="Path 1480" d="M970.087,817.018a5.657,5.657,0,0,0-3.056.993,4.306,4.306,0,0,0-1.273,2.321,6.208,6.208,0,0,0,.839,5.187,5.819,5.819,0,0,0,2.369,1.769c3.229,1.4,6.934.378,10.3-.636l13.2-3.972a4.428,4.428,0,0,0,2.145-1.111,2.913,2.913,0,0,0,.055-3.4,6.6,6.6,0,0,0-2.8-2.229,31.311,31.311,0,0,0-13.241-2.538c-1.687,0-3.333-.4-4.473.887-.6.7-.482,1.446-1.4,2.041a6.287,6.287,0,0,1-2.673.687Z" transform="translate(-274.967 -186.586)" fill="#3f3d56"/>
        <path id="Path_1481" data-name="Path 1481" d="M1005.756,806.638a5.71,5.71,0,0,0-3.056.993,4.34,4.34,0,0,0-1.273,2.321,6.228,6.228,0,0,0,.839,5.194,5.868,5.868,0,0,0,2.369,1.762c3.237,1.4,6.934.383,10.3-.629l13.2-3.977a4.434,4.434,0,0,0,2.147-1.111,2.909,2.909,0,0,0,.055-3.391,6.619,6.619,0,0,0-2.8-2.229,31.37,31.37,0,0,0-13.256-2.545c-1.687,0-3.328-.4-4.473.894-.6.7-.482,1.446-1.4,2.034a6.084,6.084,0,0,1-2.67.684Z" transform="translate(-285.702 -183.46)" fill="#3f3d56"/>
        <path id="Path_1482" data-name="Path 1482" d="M981.321,602.24a162.554,162.554,0,0,1,23.412-.658,4.645,4.645,0,0,1,1.516.241c1.721.7,1.986,2.95,2.145,4.789.7,7.471,3.957,14.422,5.591,21.734a62.107,62.107,0,0,1,1.3,13.979,50.078,50.078,0,0,0,.111,6.29c.21,1.865.7,3.7.964,5.558a51.069,51.069,0,0,1,.328,7.529,77.233,77.233,0,0,1-.665,11.793c-1.077,6.661.805,13.282,1.306,20.021a119.517,119.517,0,0,0,1.586,14.058c.386,1.964.868,3.907,1.133,5.885.783,5.878-.364,11.932.875,17.733.573,2.711,1.607,5.76.084,8.081-.482.7-1.174,1.294-1.687,2a2.5,2.5,0,0,0-.482,2.454c.3.636,1,1.055,1.174,1.733.272,1.07-.846,1.943-1.854,2.4a19.3,19.3,0,0,1-22.481-5.543c.88-.14,1.957-.776,1.979-1.67a9.426,9.426,0,0,0-.573-2.6,10.488,10.488,0,0,1-.2-4.627c.2-1.077.566-2.1.79-3.181a31,31,0,0,0,.419-3.594,59.569,59.569,0,0,1,2.538-12.749c1.272-4.02-.46-8.088-.916-12.292a24.113,24.113,0,0,0-.81-5.907c-.419-1.1-1.1-2.1-1.509-3.2a14.646,14.646,0,0,1,.2-8.129c-4.131-7.459-5.509-16.35-7.066-24.732L987.9,645.511a13.885,13.885,0,0,0-2.1-5.962,72.81,72.81,0,0,0-1.586,18.994,27.975,27.975,0,0,1-.07,5.516c-.32,2.027-1.167,3.936-1.663,5.922-1.084,4.384-.448,8.982-.7,13.5-.1,1.824-.328,3.634-.4,5.459-.342,8.052,2.369,15.883,5.047,23.481a86.736,86.736,0,0,1,2.8,14.841c.7,4.676,1.475,9.354,1.846,14.073.342,4.338.5,9.026,3.2,12.429a22.9,22.9,0,0,1-7.9,3.781,14.581,14.581,0,0,1-9.729-1.887,30.611,30.611,0,0,1-7.69-6.536c.566-.2.769-1.019.824-1.615.839-8.85-2.523-17.476-3.8-26.285a56.614,56.614,0,0,1-.335-13.323c.161-1.67.39-3.34.453-5.02.335-8.744-3.88-17.167-3.726-25.921.07-4.1-2.1-8.144-3.16-12.108A43.828,43.828,0,0,1,958.242,654l-.176-28.661a35.415,35.415,0,0,1,1.251-11.5c1.538-4.4-.224-9.457-.482-14.114a58.172,58.172,0,0,0,22.5,2.509Z" transform="translate(-272.739 -122.297)" fill="#696791"/>
        <path id="Path_1483" data-name="Path 1483" d="M936.691,457.355a91.356,91.356,0,0,0-10.7-16.895,26.823,26.823,0,0,1-2.376-3.244,45.018,45.018,0,0,1-2.892-8.522c-2.651-8-9.283-14.422-10.9-22.691a37.956,37.956,0,0,0-3.818-8.39,10.59,10.59,0,0,0-3.641-4.892,6.208,6.208,0,0,0-7.346,1.118,8.731,8.731,0,0,0-2.251,7.375,6.244,6.244,0,0,0,1.4,3.314,12.183,12.183,0,0,0,3.892,2.342,15.3,15.3,0,0,1,7.521,8.592c2.328,6.748,2.63,13.889,5.592,20.4s6.445,12.773,9,19.425a67.023,67.023,0,0,0,4.746,11.185,13.766,13.766,0,0,0,9.479,6.948,23.376,23.376,0,0,1,1.14-7.471C936.406,463.207,937.956,459.963,936.691,457.355Z" transform="translate(-253.031 -59.759)" fill="#a0616a"/>
        <path id="Path_1484" data-name="Path 1484" d="M1011.266,461.334a38.633,38.633,0,0,1,2.273-14.526,15.061,15.061,0,0,0,1.335-5.488,13.456,13.456,0,0,0-1.687-4.969,127.5,127.5,0,0,1-6.29-17.112L1003.4,408.3a17,17,0,0,1-3.068-2.892,15.45,15.45,0,0,1-3.557-7.592,10.659,10.659,0,0,1,1.964-8.026,4.648,4.648,0,0,1,3.278-2,4.293,4.293,0,0,1,3.075,1.4,13.772,13.772,0,0,1,2.629,4.487,20.123,20.123,0,0,1,2.2,8.39c-.1,2.41-1,5.117.42,7.081a169.907,169.907,0,0,1,11.836,20.888,35.34,35.34,0,0,1,2.391,5.235,28.79,28.79,0,0,1,1.258,9.045,125.582,125.582,0,0,1-1.538,17.112c-.5,3.557-1.147,7.43-3.837,9.787a55.416,55.416,0,0,0-9.182-9.881Z" transform="translate(-284.326 -58.508)" fill="#a0616a"/>
        <circle id="Ellipse_333" data-name="Ellipse 333" cx="14.504" cy="14.504" r="14.504" transform="translate(694.65 376.541)" fill="#a0616a"/>
        <path id="Path_1485" data-name="Path 1485" d="M990.7,494.01a19.4,19.4,0,0,0,3.133,7.23c.824,1.4,1.88,2.892,3.494,3.042a70.453,70.453,0,0,1-13.176,5.3,14.909,14.909,0,0,1-4.82.776,11.766,11.766,0,0,1-4.005-1.027,19.914,19.914,0,0,1-11.328-13.227,26.294,26.294,0,0,0,5.389-.412,3.965,3.965,0,0,0,2.651-1.3,4.194,4.194,0,0,0,.545-2.335c.07-2.41.077-4.844,0-7.264a28.659,28.659,0,0,1,10.542,1.3c1.4.455,2.8,1,4.194,1.357.882.224,3.307,0,3.957.511C992.347,488.684,990.451,492.227,990.7,494.01Z" transform="translate(-274.515 -87.69)" fill="#a0616a"/>
        <path id="Path_1486" data-name="Path 1486" d="M978.289,501.67a9.13,9.13,0,0,1,6.948-8.115,16.228,16.228,0,0,0,4.454-1.034c2.292-1.28,2.984-4.4,5.187-5.83a6.131,6.131,0,0,1,7.23,1.174,15.547,15.547,0,0,1,3.671,6.914,34.99,34.99,0,0,1,1.88,10.59,4.893,4.893,0,0,1-.309,1.928,8.088,8.088,0,0,1-1.552,1.928,8.569,8.569,0,0,0-2.1,6.83,19.572,19.572,0,0,1-.622,6.849c-1.4,6.165-2.8,12.325-3.921,18.546a11.511,11.511,0,0,0-.258,3.495,20.732,20.732,0,0,1,.945,4.962,18.712,18.712,0,0,0-.441,2.383,5.785,5.785,0,0,0,.419,1.769c1.586,4.606,5.871,15.162,5.83,20.042a121.713,121.713,0,0,0-26.109-2.369,58.12,58.12,0,0,0-6.334.28c-5.061.545-10.226,2.02-15.128.658-4.55-1.265-8.578-4.893-13.282-4.439-1.02-2.67.181-11.583,1.14-14.282a61.123,61.123,0,0,0,2.1-33.086c-.86-3.957.321-8.158-.636-12.087a7.211,7.211,0,0,0-1.048-2.608,2.8,2.8,0,0,0-2.391-1.251,89.057,89.057,0,0,1,1.747-18.825c.46-2.2,1.4-4.8,3.656-5.179,2-.342,3.678,1.35,5.285,2.586a14.2,14.2,0,0,0,5.591,2.629,5.3,5.3,0,0,1,2.292.839c.964.8,1.1,2.229,1.88,3.2,1.4,1.74,4.524,1.593,5.514,3.6a13.677,13.677,0,0,1,.525,1.832,6.724,6.724,0,0,0,2.306,2.979A12.974,12.974,0,0,0,978.289,501.67Z" transform="translate(-268.482 -86.536)" fill="#f86d70"/>
        <path id="Path_1487" data-name="Path 1487" d="M975.226,450.479a2.652,2.652,0,0,1,.559-2.74c.383-.3.887-.412,1.3-.7a5.593,5.593,0,0,0,1.4-1.769,7.592,7.592,0,0,1,9.5-2.41c2.523,1.321,4.046,3.965,6.29,5.746,1.14.923,2.461,1.608,3.615,2.531a14.827,14.827,0,0,1,4.676,7.563,42.94,42.94,0,0,1,1.294,8.917,8.024,8.024,0,0,1-.106,2.711,7.61,7.61,0,0,1-1.027,2.1,23.361,23.361,0,0,1-9.158,8.472,14.155,14.155,0,0,1-12.2.209,2.1,2.1,0,0,1-.937-.747,2.7,2.7,0,0,1-.147-1.615,11.052,11.052,0,0,0-1.205-6.187c-.7-1.4-1.747-2.6-2.306-4.047a14.108,14.108,0,0,1-.658-5.02,54.219,54.219,0,0,0-.882-13.012Z" transform="translate(-277.855 -74.854)" fill="#2d293d"/>
      </g>
      <text id="MyLog14" transform="translate(341 104)" fill="#fff" font-size="60" font-family="TrebuchetMS-Bold, Trebuchet MS" font-weight="700"><tspan x="0" y="0">LIFEBOX</tspan></text>
    </g>
  </g>
</svg>
