<svg xmlns="http://www.w3.org/2000/svg" xmlns:xlink="http://www.w3.org/1999/xlink" width="868" height="1542" viewBox="0 0 868 1542">
  <defs>
    <clipPath id="clip-path">
      <rect id="Rectangle_600" data-name="Rectangle 600" width="868" height="1542"/>
    </clipPath>
    <linearGradient id="linear-gradient" x1="0.5" y1="1" x2="0.5" gradientUnits="objectBoundingBox">
      <stop offset="0" stop-color="gray" stop-opacity="0.251"/>
      <stop offset="0.54" stop-color="gray" stop-opacity="0.122"/>
      <stop offset="1" stop-color="gray" stop-opacity="0.102"/>
    </linearGradient>
    <clipPath id="clip-path-2">
      <rect id="_Rectangle_" data-name="&lt;Rectangle&gt;" width="122.153" height="82.346" fill="#fff"/>
    </clipPath>
    <linearGradient id="linear-gradient-6" x1="0.511" y1="1.102" x2="0.511" y2="-0.241" xlink:href="#linear-gradient"/>
    <linearGradient id="linear-gradient-7" x1="0.572" y1="0.676" x2="0.572" y2="0.102" xlink:href="#linear-gradient"/>
    <linearGradient id="linear-gradient-10" y2="0.001" xlink:href="#linear-gradient"/>
  </defs>
  <g id="BootPage_1" clip-path="url(#clip-path)">
    <g id="Boot_page-1_1" data-name="Boot page-1 – 1" clip-path="url(#clip-path)">
      <rect id="Rectangle_599" data-name="Rectangle 599" width="868" height="1542" fill="#fff"/>
      <path id="Path_1408" data-name="Path 1408" d="M0,0H867.633V1074.9s-208.232,77.974-425.14,77.974S0,1074.9,0,1074.9Z" transform="translate(0 -38.561)" fill="#52c7f4"/>
      <text id="MyLog14" transform="translate(341 104)" fill="#fff" font-size="60" font-family="TrebuchetMS-Bold, Trebuchet MS" font-weight="700"><tspan x="0" y="0">LIFEBOX</tspan></text>
      <g id="undraw_secure_data_0rwp" transform="translate(48.202 307.323)">
        <g id="Group_869" data-name="Group 869" transform="translate(132.131 69.782)" opacity="0.5">
          <rect id="Rectangle_550" data-name="Rectangle 550" width="380.973" height="511.928" fill="url(#linear-gradient)"/>
        </g>
        <rect id="Rectangle_551" data-name="Rectangle 551" width="369.067" height="494.066" transform="translate(137.096 76.725)" fill="#f2f2f2"/>
        <rect id="Rectangle_552" data-name="Rectangle 552" width="126.988" height="3.967" transform="translate(165.865 97.563)" fill="#e0e0e0"/>
        <rect id="Rectangle_553" data-name="Rectangle 553" width="126.988" height="3.967" transform="translate(165.865 115.417)" fill="#f9a826" opacity="0.7"/>
        <rect id="Rectangle_554" data-name="Rectangle 554" width="126.988" height="3.967" transform="translate(311.704 97.563)" fill="#e0e0e0"/>
        <rect id="Rectangle_555" data-name="Rectangle 555" width="126.988" height="3.967" transform="translate(331.544 210.666)" fill="#e0e0e0"/>
        <rect id="Rectangle_556" data-name="Rectangle 556" width="126.988" height="3.967" transform="translate(334.521 221.574)" fill="#e0e0e0"/>
        <rect id="Rectangle_557" data-name="Rectangle 557" width="126.988" height="3.967" transform="translate(340.474 232.485)" fill="#e0e0e0"/>
        <rect id="Rectangle_558" data-name="Rectangle 558" width="126.988" height="3.967" transform="translate(331.544 386.263)" fill="#e0e0e0"/>
        <rect id="Rectangle_559" data-name="Rectangle 559" width="126.988" height="3.967" transform="translate(334.521 397.181)" fill="#e0e0e0"/>
        <rect id="Rectangle_560" data-name="Rectangle 560" width="126.988" height="3.967" transform="translate(340.474 408.091)" fill="#e0e0e0"/>
        <g id="Group_870" data-name="Group 870" transform="translate(166.855 169.989)" opacity="0.5">
          <rect id="Rectangle_561" data-name="Rectangle 561" width="134.929" height="136.908" fill="url(#linear-gradient)"/>
        </g>
        <rect id="Rectangle_562" data-name="Rectangle 562" width="132.796" height="130.955" transform="translate(167.706 172.965)" fill="#f5f5f5"/>
        <g id="Group_871" data-name="Group 871" transform="translate(172.387 180.897)" opacity="0.5">
          <rect id="Rectangle_563" data-name="Rectangle 563" width="123.857" height="85.322" fill="url(#linear-gradient)"/>
        </g>
        <rect id="_Rectangle_3" data-name="&lt;Rectangle&gt;" width="122.153" height="82.346" transform="translate(173.237 181.887)" fill="#fff"/>
        <g id="Group_872" data-name="Group 872" transform="translate(173.237 181.887)" clip-path="url(#clip-path-2)">
          <path id="Path_1497" data-name="Path 1497" d="M199.9,306.008l30.758-47.628,12.9,20.838,27.771-28.769,23.814,28.769,20.838-42.659,53.574,85.317-173.621-5.953Z" transform="translate(-210.247 -226.634)" fill="#f9a826" opacity="0.4"/>
          <circle id="Ellipse_353" data-name="Ellipse 353" cx="8.929" cy="8.929" r="8.929" transform="translate(4.526 2.976)" fill="#f9a826" opacity="0.4"/>
        </g>
        <g id="Group_873" data-name="Group 873" transform="translate(166.855 345.586)" opacity="0.5">
          <rect id="Rectangle_564" data-name="Rectangle 564" width="134.929" height="136.908" fill="url(#linear-gradient)"/>
        </g>
        <rect id="Rectangle_565" data-name="Rectangle 565" width="132.796" height="130.955" transform="translate(167.706 348.564)" fill="#f5f5f5"/>
        <g id="Group_874" data-name="Group 874" transform="translate(172.387 356.503)" opacity="0.5">
          <rect id="Rectangle_566" data-name="Rectangle 566" width="123.857" height="85.322" fill="url(#linear-gradient)"/>
        </g>
        <rect id="_Rectangle_4" data-name="&lt;Rectangle&gt;" width="122.153" height="82.346" transform="translate(173.237 357.494)" fill="#fff"/>
        <g id="Group_875" data-name="Group 875" transform="translate(173.237 357.494)" clip-path="url(#clip-path-2)">
          <path id="Path_1498" data-name="Path 1498" d="M199.9,522.494l30.758-47.621,12.9,20.838,27.771-28.769,23.814,28.769,20.838-42.659,53.574,85.317-173.621-5.953Z" transform="translate(-210.247 -443.127)" fill="#bdbdbd" opacity="0.4"/>
          <circle id="Ellipse_354" data-name="Ellipse 354" cx="8.929" cy="8.929" r="8.929" transform="translate(4.526 2.976)" fill="#bdbdbd" opacity="0.4"/>
        </g>
        <g id="Group_876" data-name="Group 876" transform="translate(188.067 44.488)" opacity="0.5">
          <rect id="Rectangle_567" data-name="Rectangle 567" width="511.928" height="380.973" transform="translate(0 502.109) rotate(-78.76)" fill="url(#linear-gradient-6)"/>
        </g>
        <rect id="Rectangle_568" data-name="Rectangle 568" width="494.066" height="369.067" transform="translate(195.054 536.858) rotate(-78.76)" fill="#fff"/>
        <rect id="Rectangle_569" data-name="Rectangle 569" width="261.917" height="3.967" transform="translate(313.218 79.863) rotate(11.24)" fill="#e0e0e0"/>
        <rect id="Rectangle_570" data-name="Rectangle 570" width="261.917" height="3.967" transform="translate(240.117 447.699) rotate(11.24)" fill="#e0e0e0"/>
        <rect id="Rectangle_571" data-name="Rectangle 571" width="202.39" height="3.967" transform="translate(235.671 470.081) rotate(11.24)" fill="#e0e0e0"/>
        <rect id="Rectangle_572" data-name="Rectangle 572" width="75.402" height="3.967" transform="translate(231.229 492.459) rotate(11.24)" fill="#f9a826" opacity="0.7"/>
        <rect id="Rectangle_573" data-name="Rectangle 573" width="130.955" height="3.967" transform="translate(308.776 102.255) rotate(11.24)" fill="#f9a826" opacity="0.7"/>
        <rect id="Rectangle_574" data-name="Rectangle 574" width="236.124" height="3.967" transform="translate(304.33 124.631) rotate(11.24)" fill="#e0e0e0"/>
        <rect id="Rectangle_575" data-name="Rectangle 575" width="57.541" height="3.967" transform="translate(299.885 147.013) rotate(11.24)" fill="#3ad29f" opacity="0.7"/>
        <rect id="Rectangle_576" data-name="Rectangle 576" width="261.917" height="3.967" transform="translate(295.429 169.391) rotate(11.24)" fill="#e0e0e0"/>
        <g id="Group_877" data-name="Group 877" transform="translate(291.775 263.922)" opacity="0.5">
          <rect id="Rectangle_577" data-name="Rectangle 577" width="134.929" height="235.126" transform="translate(0 132.341) rotate(-78.76)" fill="url(#linear-gradient-7)"/>
        </g>
        <rect id="Rectangle_578" data-name="Rectangle 578" width="232.157" height="131.953" transform="translate(319.383 265.192) rotate(11.24)" fill="#fff"/>
        <rect id="Rectangle_579" data-name="Rectangle 579" width="261.917" height="3.967" transform="translate(290.982 191.771) rotate(11.24)" fill="#e0e0e0"/>
        <rect id="Rectangle_580" data-name="Rectangle 580" width="28.769" height="96.23" transform="translate(339.746 287.442) rotate(11.24)" fill="#f9a826"/>
        <rect id="Rectangle_581" data-name="Rectangle 581" width="28.769" height="64.484" transform="translate(384.157 328.643) rotate(11.24)" fill="#3ad29f"/>
        <rect id="Rectangle_582" data-name="Rectangle 582" width="28.769" height="34.725" transform="translate(428.955 367.881) rotate(11.24)" fill="#f55f44"/>
        <rect id="Rectangle_583" data-name="Rectangle 583" width="28.769" height="70.437" transform="translate(486.516 342.913) rotate(11.24)" fill="#fdd835"/>
        <g id="Group_878" data-name="Group 878" transform="translate(97.416 523.18)" opacity="0.5">
          <rect id="Rectangle_584" data-name="Rectangle 584" width="2.976" height="16.863" transform="translate(6.934)" fill="#47e6b1"/>
          <rect id="Rectangle_585" data-name="Rectangle 585" width="2.976" height="16.863" transform="translate(16.863 6.943) rotate(90)" fill="#47e6b1"/>
        </g>
        <path id="Path_1499" data-name="Path 1499" d="M696.62,74a3.642,3.642,0,0,1-2.027-4.4,1.763,1.763,0,0,0,.082-.4h0a1.824,1.824,0,0,0-3.244-1.205h0a1.752,1.752,0,0,0-.2.357,3.641,3.641,0,0,1-4.4,2.027,1.756,1.756,0,0,0-.405-.082h0a1.824,1.824,0,0,0-1.205,3.244h0a1.752,1.752,0,0,0,.357.2,3.642,3.642,0,0,1,2.01,4.408,1.743,1.743,0,0,0-.082.4h0a1.824,1.824,0,0,0,3.244,1.205h0a1.745,1.745,0,0,0,.2-.357,3.642,3.642,0,0,1,4.4-2.027,1.753,1.753,0,0,0,.4.082h0a1.824,1.824,0,0,0,1.2-3.244h0a1.765,1.765,0,0,0-.34-.207Z" transform="translate(-243.602 -67.304)" fill="#4d8af0" opacity="0.5"/>
        <path id="Path_1500" data-name="Path 1500" d="M283.51,177.838a3.642,3.642,0,0,1-2.027-4.4,1.753,1.753,0,0,0,.082-.4h0a1.824,1.824,0,0,0-3.244-1.205h0a1.755,1.755,0,0,0-.2.357,3.642,3.642,0,0,1-4.4,2.027,1.747,1.747,0,0,0-.4-.082h0a1.824,1.824,0,0,0-1.205,3.244h0a1.748,1.748,0,0,0,.357.2,3.642,3.642,0,0,1,2.027,4.4,1.756,1.756,0,0,0-.082.4h0a1.824,1.824,0,0,0,3.244,1.205h0a1.761,1.761,0,0,0,.2-.357,3.642,3.642,0,0,1,4.4-2.027,1.752,1.752,0,0,0,.4.082h0a1.824,1.824,0,0,0,1.205-3.244h0a1.755,1.755,0,0,0-.357-.2Z" transform="translate(-165.572 -86.917)" fill="#fdd835" opacity="0.5"/>
        <path id="Path_1501" data-name="Path 1501" d="M250.81,482.9a3.641,3.641,0,0,1-2.027-4.4,1.75,1.75,0,0,0,.082-.405h0a1.824,1.824,0,0,0-3.244-1.205h0a1.754,1.754,0,0,0-.2.357,3.642,3.642,0,0,1-4.4,2.027,1.756,1.756,0,0,0-.4-.082h0a1.824,1.824,0,0,0-1.205,3.244h0a1.753,1.753,0,0,0,.357.2,3.642,3.642,0,0,1,2.027,4.4,1.748,1.748,0,0,0-.082.4h0a1.824,1.824,0,0,0,3.244,1.205h0a1.747,1.747,0,0,0,.2-.357,3.642,3.642,0,0,1,4.4-2.027,1.745,1.745,0,0,0,.4.082h0a1.824,1.824,0,0,0,1.205-3.244h0a1.747,1.747,0,0,0-.357-.2Z" transform="translate(-159.395 -144.538)" fill="#fdd835" opacity="0.5"/>
        <circle id="Ellipse_355" data-name="Ellipse 355" cx="5.953" cy="5.953" r="5.953" transform="translate(268.05 17.198)" fill="#f55f44" opacity="0.5"/>
        <circle id="Ellipse_356" data-name="Ellipse 356" cx="5.953" cy="5.953" r="5.953" transform="translate(0 251.481)" fill="#f55f44" opacity="0.5"/>
        <circle id="Ellipse_357" data-name="Ellipse 357" cx="5.953" cy="5.953" r="5.953" transform="translate(694.656 91.61)" fill="#f55f44" opacity="0.5"/>
        <circle id="Ellipse_358" data-name="Ellipse 358" cx="5.953" cy="5.953" r="5.953" transform="translate(660.922 269.195)" fill="#4d8af0" opacity="0.5"/>
        <circle id="Ellipse_359" data-name="Ellipse 359" cx="5.953" cy="5.953" r="5.953" transform="translate(24.609 111.775)" fill="#47e6b1" opacity="0.5"/>
        <circle id="Ellipse_360" data-name="Ellipse 360" cx="5.953" cy="5.953" r="5.953" transform="translate(686.163 519.052)" fill="#47e6b1" opacity="0.5"/>
        <circle id="Ellipse_361" data-name="Ellipse 361" cx="5.953" cy="5.953" r="5.953" transform="translate(732.81 343.551)" fill="#47e6b1" opacity="0.5"/>
        <rect id="Rectangle_586" data-name="Rectangle 586" width="151.257" height="124.158" transform="translate(441.589 487.458)" fill="url(#linear-gradient)"/>
        <path id="Path_1502" data-name="Path 1502" d="M720.935,625.812a44.247,44.247,0,1,1,88.494,0v28.316h12.385V625.812a56.637,56.637,0,0,0-113.274,0v28.316h12.385Z" transform="translate(-248.143 -162.101)" fill="url(#linear-gradient)"/>
        <path id="Path_1503" data-name="Path 1503" d="M723.231,625.589a42.478,42.478,0,0,1,84.956,0v27.188h11.891V625.589a54.369,54.369,0,0,0-108.739,0v27.188h11.891Z" transform="translate(-248.672 -162.488)" fill="#f5f5f5"/>
        <rect id="Rectangle_587" data-name="Rectangle 587" width="147.818" height="120.637" transform="translate(443.129 488.596)" fill="#f9a826"/>
        <rect id="Rectangle_588" data-name="Rectangle 588" width="147.818" height="120.637" transform="translate(443.129 488.596)" fill="#f5f5f5"/>
        <rect id="Rectangle_589" data-name="Rectangle 589" width="147.818" height="73.057" transform="translate(443.129 512.376)" fill="#f9a826"/>
        <path id="Path_1504" data-name="Path 1504" d="M786.691,724.492a10.845,10.845,0,1,0-18.722,7.421v23.137a7.885,7.885,0,1,0,15.769,0v-23.1a10.79,10.79,0,0,0,2.952-7.457Z" transform="translate(-258.823 -189.405)" fill="url(#linear-gradient-10)"/>
        <path id="Path_1505" data-name="Path 1505" d="M785.534,727.2a9.344,9.344,0,1,0-16.147,6.4v19.936a6.8,6.8,0,1,0,13.6,0V733.6a9.3,9.3,0,0,0,2.552-6.4Z" transform="translate(-259.163 -190.179)" opacity="0.2"/>
      </g>
    </g>
  </g>
</svg>
