<svg xmlns="http://www.w3.org/2000/svg" xmlns:xlink="http://www.w3.org/1999/xlink" width="868" height="1542" viewBox="0 0 868 1542">
  <defs>
    <clipPath id="clip-path">
      <rect id="Rectangle_606" data-name="Rectangle 606" width="868" height="1542" transform="translate(-0.202)"/>
    </clipPath>
    <clipPath id="clip-path-2">
      <path id="Path_1154" data-name="Path 1154" d="M41.565,402.961s14.7-42.177,26.429-44.346,26.207,5.8,38.911,2.092,24.6-2.95,39.1-12.665,53.608-10.281,65.217-8.334c27.94,4.695,136.43-24.393,177.838-16.555s66.627,15.184,101.328,19S574,371.049,593.4,371.36s13.7,1.048,37.747.689c54.95-.824,40.147-12.453,47.583,3.044,13.21,27.526-49.13,25.065-57.278,32.922s-18.44,15.849-27.234,31.119S532.546,488.541,521.436,501s-36.6,36.113-43.047,36.5-48.315,5.946-60.893,4.659c-7.953-.812,2.121,3.287-35.272,8.476s-115.019-13.738-131.649-21.6-42.039-.431-64.036-7.953-49.624-19.143-72.255-19.264S66.733,463.382,56,464.025s-28.967-15.957-26.716-32.312a65.031,65.031,0,0,1,12.279-28.752Z" transform="translate(-29.095 -321.804)" fill="none"/>
    </clipPath>
    <clipPath id="clip-BootPage_4">
      <rect width="868" height="1542"/>
    </clipPath>
  </defs>
  <g id="BootPage_4" clip-path="url(#clip-BootPage_4)">
    <g id="Boot_page-3" data-name="Boot page-3" transform="translate(-0.798)" clip-path="url(#clip-path)">
      <rect id="Rectangle_605" data-name="Rectangle 605" width="868" height="1542" transform="translate(-0.202)" fill="#fff"/>
      <path id="Path_1408" data-name="Path 1408" d="M0,0H867.633V1074.9s-208.232,77.974-425.14,77.974S0,1074.9,0,1074.9Z" transform="translate(0 -38.561)" fill="#52c7f4"/>
      <g id="Group_804" data-name="Group 804" transform="translate(106.054 296.441)">
        <g id="Group_761" data-name="Group 761" transform="translate(0 314.004)">
          <path id="Path_1151" data-name="Path 1151" d="M28.9,393.611s1.41,27.282,6.3,37.381,37.564,33.973,54.434,60.763c20.1,31.936,134.2,60.864,162.156,80.548,29.721,20.929,144.979,25.788,162.252,12.728,24.1-18.225,39.089,21.392,83.211-8.153,27.338-18.317,95.365-125.539,125.489-146.228s21.079-23.233,47.479-29.644,10.867-65.335,10.867-65.335L209.353,379.589Z" transform="translate(-28.9 -281.889)" fill="#ece5d6"/>
          <path id="Path_1152" data-name="Path 1152" d="M41.681,400.656S56.729,358.61,68.469,356.53s26.154,6.025,38.887,2.41,24.624-2.75,39.2-12.347,53.692-9.848,65.28-7.8c27.9,4.917,136.626-23.289,177.968-15.116s66.5,15.716,101.171,19.813,83.37,29.581,102.774,30.049,13.7,1.159,37.74.993c54.962-.378,40.249-12.123,47.558,3.432,12.988,27.632-49.332,24.665-57.541,32.459s-18.57,15.7-27.475,30.9-62.077,48.9-73.284,61.272S483.843,538.4,477.4,538.74s-48.368,5.555-60.932,4.165c-7.953-.877,2.092,3.3-35.339,8.194s-114.9-14.682-131.471-22.667-42.034-.769-63.969-8.476-49.47-19.56-72.1-19.859-47.238-38.819-57.975-38.26S26.782,445.646,29.165,429.3A65.022,65.022,0,0,1,41.681,400.656Z" transform="translate(-28.743 -322.177)" fill="#cad7d3"/>
        </g>
        <g id="Group_763" data-name="Group 763" transform="translate(0.781 312.525)">
          <g id="Group_762" data-name="Group 762" transform="translate(0 0)" clip-path="url(#clip-path-2)">
            <path id="Path_1153" data-name="Path 1153" d="M529.306,387.478c23.667,9.708-37.135,38.576-97.532,60.32-42.319,15.234-84.5,32.252-151.168,23.66-71.1-9.158-99.055-28.54-135.854-37.636C83.357,418.638,49.961,416,50.546,389.452,51.484,346.986,156,314.854,284,317.679S461.739,359.757,529.306,387.478Z" transform="translate(34.92 -334.64)" fill="#3bb1e0"/>
          </g>
        </g>
        <g id="Group_766" data-name="Group 766" transform="translate(97.833 126.325)">
          <g id="Group_764" data-name="Group 764">
            <path id="Path_1155" data-name="Path 1155" d="M250.55,450.171l-30.2-80.9L180.438,347.7l-25.892-59.334-30.206,4.314L97.372,329.355l12.945,56.1Z" transform="translate(77.666 -235.439)" fill="#50506d"/>
            <path id="Path_1156" data-name="Path 1156" d="M116.3,350.985l56.878-49.944L191.518,359.3l-35.6,14.024L139.75,407.842,99.684,424.821,79.331,380.878Z" transform="translate(23.816 -197.59)" fill="#2a3c3c"/>
            <path id="Path_1157" data-name="Path 1157" d="M53.448,502.706,81.5,446.611l12.947-4.316,12.945-21.575s31.283-60.411,67.965-74.438,55.02-29.128,55.02-29.128l12.947-18.336-11.867-23.735,21.575,9.708,16.179,20.5,16.184,23.732-43.141,76.6-50.13,28.015L176.972,502.32,99.85,507.034V486.548Z" transform="translate(-53.448 -275.082)" fill="#465a34"/>
            <path id="Path_1158" data-name="Path 1158" d="M146.6,275.082,81.872,349.518l45.31-5.394,40.993-36.679Z" transform="translate(31.402 -275.082)" fill="#d18195"/>
          </g>
          <g id="Group_765" data-name="Group 765" transform="translate(127.547 100.896)">
            <path id="Path_1159" data-name="Path 1159" d="M160.072,300.864l-40.1,25.547L179.2,366l57.177,53.555,5.285-14.658Z" transform="translate(17.576 -299.015)" fill="#3a6476"/>
            <path id="Path_1160" data-name="Path 1160" d="M116.955,400.608l20.927-89.19,73.908,17.89,58.148,41.533-63.26,38.125-87.221,40.15Z" transform="translate(8.582 -267.509)" fill="#172838"/>
            <path id="Path_1161" data-name="Path 1161" d="M85.454,427.277,180.1,322.592,262.632,300.4v50.728L227.037,373.32v14.268l17.8,23.778h46.929l19.418-19.023,51.781,6.341,42.9,36.853L225.832,501.6Z" transform="translate(-85.454 -300.4)" fill="#afa229"/>
          </g>
        </g>
        <path id="Path_1162" data-name="Path 1162" d="M136.147,243.383S115.9,330.3,140.275,318.359s9.7-25.489,8.966-48.684S136.147,243.383,136.147,243.383Z" transform="translate(267.705 -243.383)" fill="#3bb1e0"/>
        <path id="Path_1163" data-name="Path 1163" d="M150.616,257.465s-20.245,86.92,4.128,74.976,9.7-25.489,8.97-48.684S150.616,257.465,150.616,257.465Z" transform="translate(310.893 -201.346)" fill="#3bb1e0"/>
        <path id="Path_1164" data-name="Path 1164" d="M74.871,293.778S54.626,380.7,79,368.758s9.7-25.494,8.966-48.684S74.871,293.778,74.871,293.778Z" transform="translate(84.786 -92.947)" fill="#3bb1e0"/>
      </g>
      <text id="MyLog14" transform="translate(341 104)" fill="#fff" font-size="60" font-family="TrebuchetMS-Bold, Trebuchet MS" font-weight="700"><tspan x="0" y="0">LIFEBOX</tspan></text>
    </g>
  </g>
</svg>
