<svg xmlns="http://www.w3.org/2000/svg" xmlns:xlink="http://www.w3.org/1999/xlink" width="184" height="184" viewBox="0 0 184 184">
  <defs>
    <clipPath id="clip-_15day">
      <rect width="184" height="184"/>
    </clipPath>
  </defs>
  <g id="_15day" data-name="15day" clip-path="url(#clip-_15day)">
    <g id="Group_808" data-name="Group 808" transform="translate(-7376 4734)">
      <g id="Ellipse_281" data-name="Ellipse 281" transform="translate(7385 -4725)" fill="none" stroke="rgba(249,173,53,0.64)" stroke-width="8">
        <circle cx="83.5" cy="83.5" r="83.5" stroke="none"/>
        <circle cx="83.5" cy="83.5" r="79.5" fill="none"/>
      </g>
      <g id="award" transform="translate(7426.822 -4682.24)">
        <path id="Path_1181" data-name="Path 1181" d="M150.709,7.628H109.287s0,38.977,16.215,48a6.042,6.042,0,0,1,3.072,5.29H136.9a6.042,6.042,0,0,1,3.072-5.29,17.877,17.877,0,0,0,4.72-3.9c8.215-9.37,10.559-27.871,11.228-37.665.267-3.91.267-6.433.267-6.433h-5.478Z" transform="translate(-91.82 -6.387)" fill="#fece00"/>
        <path id="Path_1182" data-name="Path 1182" d="M7.607,47.485c.174-14.862,16.516-7.978,16.516-7.978.1,1.5.244,3.2.44,5.044C20.263,43,11.08,40.724,12.369,50.11c1.308,9.525,5.463,16.11,10.993,19.661a15.286,15.286,0,0,0,8.448,2.218,28.313,28.313,0,0,0,3.54,5.184h0A21.614,21.614,0,0,1,21.478,74.3C15.03,70.422,7.435,62.092,7.607,47.485Z" transform="translate(-6.389 -31.834)" fill="#eebf00"/>
        <rect id="Rectangle_440" data-name="Rectangle 440" width="8.326" height="7.383" transform="translate(36.755 60.106)" fill="#fece00"/>
        <rect id="Rectangle_441" data-name="Rectangle 441" width="8.465" height="2.895" transform="translate(36.618 60.106)" fill="#ddb201"/>
        <rect id="Rectangle_442" data-name="Rectangle 442" width="34.455" height="7.825" transform="translate(23.69 72.813)" fill="#3e3d43"/>
        <rect id="Rectangle_443" data-name="Rectangle 443" width="34.455" height="3.012" transform="translate(23.69 77.624)" fill="#444"/>
        <rect id="Rectangle_444" data-name="Rectangle 444" width="21.478" height="5.322" transform="translate(30.179 67.489)" fill="#77767e"/>
        <rect id="Rectangle_445" data-name="Rectangle 445" width="21.478" height="2.661" transform="translate(30.179 70.15)" fill="#3e3d43"/>
        <path id="Path_1183" data-name="Path 1183" d="M223.039,346.608h-8.6a2.788,2.788,0,0,1-2.788-2.788h0a2.788,2.788,0,0,1,2.788-2.788h8.6a2.788,2.788,0,0,1,2.788,2.788h0A2.788,2.788,0,0,1,223.039,346.608Z" transform="translate(-177.82 -286.501)" fill="#cba400"/>
        <path id="Path_1184" data-name="Path 1184" d="M267.062,7.63s0,2.523-.267,6.433c-.669,9.794-3.013,28.295-11.228,37.665a17.879,17.879,0,0,1-4.72,3.9,6.042,6.042,0,0,0-3.072,5.29h5.478a6.042,6.042,0,0,1,3.072-5.29,17.876,17.876,0,0,0,4.72-3.9c8.215-9.37,10.559-27.871,11.228-37.665.267-3.91.267-6.433.267-6.433Z" transform="translate(-208.173 -6.389)" fill="#ddb201"/>
        <path id="Path_1185" data-name="Path 1185" d="M129.5,55.628c-16.215-9.021-16.215-48-16.215-48h-3.994s0,38.977,16.215,48a6.042,6.042,0,0,1,3.072,5.29h2.848A6.139,6.139,0,0,1,132,58.333,5.95,5.95,0,0,0,129.5,55.628Z" transform="translate(-91.82 -6.389)" fill="#feda44"/>
        <path id="Path_1186" data-name="Path 1186" d="M358.545,47.485c-.174-14.862-16.516-7.978-16.516-7.978-.1,1.5-.244,3.2-.44,5.044,4.3-1.548,13.483-3.828,12.193,5.558-1.308,9.525-5.463,16.11-10.993,19.661a15.286,15.286,0,0,1-8.448,2.218,28.314,28.314,0,0,1-3.54,5.184h0A21.614,21.614,0,0,0,344.675,74.3C351.122,70.422,358.717,62.092,358.545,47.485Z" transform="translate(-277.929 -31.834)" fill="#eebf00"/>
        <g id="Group_778" data-name="Group 778" transform="translate(13.916 6.528)">
          <path id="Path_1187" data-name="Path 1187" d="M88.074,45.928a28.54,28.54,0,0,1,3.251.965c-.2-1.842-.338-3.545-.44-5.044A23.539,23.539,0,0,0,87.068,40.7C87.466,42.434,87.843,44.169,88.074,45.928Z" transform="translate(-87.068 -40.703)" fill="#cba400"/>
          <path id="Path_1188" data-name="Path 1188" d="M138.82,249.19a16.987,16.987,0,0,1-3.849-.362c.147.4.294.807.449,1.209a46.288,46.288,0,0,0,2.471,4.453,18.642,18.642,0,0,0,4.468-.116h0A28.327,28.327,0,0,1,138.82,249.19Z" transform="translate(-127.314 -215.563)" fill="#cba400"/>
          <path id="Path_1189" data-name="Path 1189" d="M401.546,45.928a28.542,28.542,0,0,0-3.251.965c.2-1.842.338-3.545.44-5.044a23.538,23.538,0,0,1,3.818-1.147C402.155,42.434,401.778,44.169,401.546,45.928Z" transform="translate(-348.55 -40.703)" fill="#cba400"/>
          <path id="Path_1190" data-name="Path 1190" d="M334.344,249.19a16.987,16.987,0,0,0,3.849-.362c-.147.4-.294.807-.449,1.209a46.288,46.288,0,0,1-2.471,4.453,18.642,18.642,0,0,1-4.468-.116h0A28.342,28.342,0,0,0,334.344,249.19Z" transform="translate(-291.847 -215.563)" fill="#cba400"/>
        </g>
        <path id="Path_1191" data-name="Path 1191" d="M233.11,378.131H222.354v-9.813H233.11Zm-8.326-2.431h5.9v-4.952h-5.9V375.7Z" transform="translate(-186.815 -309.427)"/>
        <path id="Path_1192" data-name="Path 1192" d="M216.65,341.433h-8.6a4,4,0,1,1,0-8.007h8.6a4,4,0,1,1,0,8.007Zm-8.6-5.577a1.573,1.573,0,1,0,0,3.146h8.6a1.573,1.573,0,1,0,0-3.146Z" transform="translate(-171.431 -280.111)"/>
        <path id="Path_1193" data-name="Path 1193" d="M205.121,422.26H181.213v-7.753h23.908Zm-21.477-2.431H202.69v-2.892H183.644Z" transform="translate(-152.249 -348.233)"/>
        <path id="Path_1194" data-name="Path 1194" d="M177.5,458.064H140.613V447.808H177.5v10.256Zm-34.456-2.431h32.026v-5.395H143.044Z" transform="translate(-118.139 -376.211)"/>
        <path id="Path_1195" data-name="Path 1195" d="M131.727,55.745H120.97V54.53a4.824,4.824,0,0,0-2.448-4.228c-3.928-2.185-7.254-6.175-9.886-11.857a69.783,69.783,0,0,1-4.906-16.365,128.93,128.93,0,0,1-2.048-20.839V.026h49.331V1.241c0,.1,0,2.609-.27,6.516-.7,10.221-3.123,28.8-11.526,38.383a19.14,19.14,0,0,1-5.043,4.161,4.824,4.824,0,0,0-2.448,4.228v1.215ZM123.3,53.315h6.1a7.227,7.227,0,0,1,3.6-5.137,16.724,16.724,0,0,0,4.4-3.64c7.932-9.047,10.252-27.031,10.929-36.946.153-2.243.218-4.034.245-5.135H104.135c.174,6.6,1.734,38.024,15.569,45.721A7.227,7.227,0,0,1,123.3,53.315Z" transform="translate(-85.431)"/>
        <path id="Path_1196" data-name="Path 1196" d="M321.274,72.192h0a17.245,17.245,0,0,1-2.893-.211l-2.1-.391,1.407-1.605a27.189,27.189,0,0,0,3.385-4.962l.353-.651.74.015q.152,0,.315,0a13.875,13.875,0,0,0,7.452-2.028c5.561-3.571,9.271-10.249,10.446-18.8.282-2.054.033-3.545-.741-4.433a4.374,4.374,0,0,0-3.431-1.164,20.4,20.4,0,0,0-6.406,1.348l-1.825.657.2-1.929c.176-1.655.322-3.337.436-5l.051-.747.69-.291a23.776,23.776,0,0,1,8.194-1.688c6.373,0,9.927,3.825,10.009,10.771a33.362,33.362,0,0,1-4.631,18.078,29.251,29.251,0,0,1-9.828,9.793A22.984,22.984,0,0,1,321.274,72.192Zm-.3-2.433.3,0h0a20.55,20.55,0,0,0,10.575-2.888c4.056-2.441,13.469-9.837,13.282-25.761-.066-5.631-2.545-8.369-7.578-8.369a21.06,21.06,0,0,0-6.565,1.239c-.06.814-.129,1.632-.2,2.447a19.959,19.959,0,0,1,5.424-.9,6.639,6.639,0,0,1,5.263,2c1.256,1.441,1.7,3.581,1.317,6.361A34.236,34.236,0,0,1,338.722,56.4a23.014,23.014,0,0,1-7.476,8.005,16.162,16.162,0,0,1-8.389,2.41A31.609,31.609,0,0,1,320.971,69.759Z" transform="translate(-265.729 -25.447)"/>
        <path id="Path_1197" data-name="Path 1197" d="M26.29,72.19a22.983,22.983,0,0,1-11.829-3.236,29.249,29.249,0,0,1-9.828-9.793A33.365,33.365,0,0,1,0,41.083c.082-6.946,3.636-10.771,10.009-10.771A23.774,23.774,0,0,1,18.205,32l.69.291.051.746c.114,1.666.261,3.348.436,5l.2,1.929-1.825-.657a20.406,20.406,0,0,0-6.406-1.347,4.373,4.373,0,0,0-3.431,1.164c-.774.888-1.023,2.379-.741,4.433,1.175,8.555,4.885,15.233,10.446,18.8a13.875,13.875,0,0,0,7.452,2.028q.163,0,.315,0l.74-.015.353.651a27.176,27.176,0,0,0,3.385,4.962l.3.344v.457c0,.316-.119,1.07-1.224,1.232-.178.026-.375.051-.584.072A20.207,20.207,0,0,1,26.29,72.19ZM10.011,32.743c-5.033,0-7.512,2.737-7.578,8.369-.187,15.924,9.226,23.32,13.282,25.761A20.55,20.55,0,0,0,26.29,69.759l.3,0a31.592,31.592,0,0,1-1.886-2.942,16.162,16.162,0,0,1-8.389-2.41A23.018,23.018,0,0,1,8.841,56.4,34.228,34.228,0,0,1,4.776,43.887c-.382-2.78.061-4.921,1.317-6.361a6.639,6.639,0,0,1,5.263-2,19.954,19.954,0,0,1,5.424.9c-.075-.814-.143-1.632-.2-2.447A21.053,21.053,0,0,0,10.011,32.743Z" transform="translate(0 -25.445)"/>
        <rect id="Rectangle_446" data-name="Rectangle 446" width="46.796" height="2.431" transform="translate(17.468 4.113)"/>
        <g id="Group_779" data-name="Group 779" transform="translate(23.158 25.902)">
          <path id="Path_1198" data-name="Path 1198" d="M181.871,250.416a21.657,21.657,0,0,1-2.214-2.841l2.03-1.337a19.206,19.206,0,0,0,1.963,2.522Z" transform="translate(-174.1 -232.761)" fill="#fff"/>
          <path id="Path_1199" data-name="Path 1199" d="M149.513,175.209a47.368,47.368,0,0,1-4.624-12.748l2.37-.541a44.985,44.985,0,0,0,4.368,12.088Z" transform="translate(-144.889 -161.921)" fill="#fff"/>
        </g>
      </g>
    </g>
  </g>
</svg>
