<svg xmlns="http://www.w3.org/2000/svg" xmlns:xlink="http://www.w3.org/1999/xlink" width="41" height="41" viewBox="0 0 41 41">
  <defs>
    <clipPath id="clip-category_icon">
      <rect width="41" height="41"/>
    </clipPath>
  </defs>
  <g id="category_icon" clip-path="url(#clip-category_icon)">
    <g id="Component_107_14" data-name="Component 107 – 14" transform="translate(6 5)">
      <g id="category" transform="translate(16)">
        <g id="Rectangle_20" data-name="Rectangle 20" fill="none" stroke="#52c7f4" stroke-width="2">
          <rect width="14" height="15" rx="3" stroke="none"/>
          <rect x="1" y="1" width="12" height="13" rx="2" fill="none"/>
        </g>
        <g id="Rectangle_374" data-name="Rectangle 374" fill="none" stroke="#52c7f4" stroke-width="2">
          <rect width="14" height="15" rx="3" stroke="none"/>
          <rect x="1" y="1" width="12" height="13" rx="2" fill="none"/>
        </g>
      </g>
      <g id="category-2" data-name="category" transform="translate(16 17)">
        <g id="Rectangle_20-2" data-name="Rectangle 20" fill="none" stroke="#52c7f4" stroke-width="2">
          <rect width="14" height="15" rx="3" stroke="none"/>
          <rect x="1" y="1" width="12" height="13" rx="2" fill="none"/>
        </g>
        <g id="Rectangle_374-2" data-name="Rectangle 374" fill="none" stroke="#52c7f4" stroke-width="2">
          <rect width="14" height="15" rx="3" stroke="none"/>
          <rect x="1" y="1" width="12" height="13" rx="2" fill="none"/>
        </g>
      </g>
      <g id="category-3" data-name="category">
        <g id="Rectangle_20-3" data-name="Rectangle 20" fill="#52c7f4" stroke="#52c7f4" stroke-width="1">
          <rect width="14" height="15" rx="3" stroke="none"/>
          <rect x="0.5" y="0.5" width="13" height="14" rx="2.5" fill="none"/>
        </g>
        <g id="Rectangle_374-3" data-name="Rectangle 374" fill="#52c7f4" stroke="#52c7f4" stroke-width="1">
          <rect width="14" height="15" rx="3" stroke="none"/>
          <rect x="0.5" y="0.5" width="13" height="14" rx="2.5" fill="none"/>
        </g>
      </g>
      <g id="category-4" data-name="category" transform="translate(0 17)">
        <g id="Rectangle_20-4" data-name="Rectangle 20" fill="none" stroke="#52c7f4" stroke-width="2">
          <rect width="14" height="15" rx="3" stroke="none"/>
          <rect x="1" y="1" width="12" height="13" rx="2" fill="none"/>
        </g>
        <g id="Rectangle_374-4" data-name="Rectangle 374" fill="none" stroke="#52c7f4" stroke-width="2">
          <rect width="14" height="15" rx="3" stroke="none"/>
          <rect x="1" y="1" width="12" height="13" rx="2" fill="none"/>
        </g>
      </g>
    </g>
  </g>
</svg>
