<svg xmlns="http://www.w3.org/2000/svg" xmlns:xlink="http://www.w3.org/1999/xlink" width="78" height="78" viewBox="0 0 78 78">
  <defs>
    <clipPath id="clip-category_icon_T_R">
      <rect width="78" height="78"/>
    </clipPath>
  </defs>
  <g id="category_icon_T_R" clip-path="url(#clip-category_icon_T_R)">
    <g id="Group_792" data-name="Group 792" transform="translate(-6562 4641)">
      <path id="Path_1170" data-name="Path 1170" d="M200.4,209.093v.72a.674.674,0,1,0,1.348,0v-.72a.674.674,0,1,0-1.348,0Z" transform="translate(6395.281 -4814.694)"/>
      <path id="Path_1171" data-name="Path 1171" d="M296.6,209.093v.72a.674.674,0,1,0,1.348,0v-.72a.674.674,0,1,0-1.348,0Z" transform="translate(6307.729 -4814.694)"/>
      <path id="Path_1172" data-name="Path 1172" d="M180.562,176.863a.674.674,0,0,0-.817-.49l-2.881.72a.674.674,0,1,0,.327,1.307l2.881-.72A.674.674,0,0,0,180.562,176.863Z" transform="translate(6417.17 -4785.509)" fill="#52c7f4"/>
      <path id="Path_1173" data-name="Path 1173" d="M292.134,178.421a.674.674,0,0,0,.163-1.328l-2.881-.72a.674.674,0,0,0-.327,1.307l2.881.72A.674.674,0,0,0,292.134,178.421Z" transform="translate(6315.027 -4785.509)" fill="#52c7f4"/>
      <path id="Path_1174" data-name="Path 1174" d="M82.959,40.45l-7.48-2.338a2.2,2.2,0,0,1-1.549-2.106V34.523a.674.674,0,1,0-1.348,0v1.483a3.539,3.539,0,0,0,1.356,2.8,10.127,10.127,0,0,1-14.328,0,3.539,3.539,0,0,0,1.356-2.8V32.177a11.467,11.467,0,0,0,17.188-8.5h.863a2.847,2.847,0,0,0,2.056-.884,2.8,2.8,0,0,0-.662-4.386V7.876A7.885,7.885,0,0,0,72.536,0H63.174a3.547,3.547,0,0,0-3.26,2.161H58.853a5.722,5.722,0,0,0-5.715,5.715v8.217a.674.674,0,1,0,1.348,0V7.876a4.373,4.373,0,0,1,4.368-4.368h1.542a.674.674,0,0,0,.652-.5,2.2,2.2,0,0,1,2.127-1.656h9.363a6.536,6.536,0,0,1,6.528,6.528V18.01c-.056,0-.112,0-.169,0h-.6a1.488,1.488,0,0,1-1.487-1.487v-3.6a3.559,3.559,0,0,0-3.555-3.555.674.674,0,0,0,0,1.348,2.209,2.209,0,0,1,2.207,2.207v3.6a2.836,2.836,0,0,0,1.44,2.466v1.855a1.488,1.488,0,0,1-1.487,1.487H58.132a1.488,1.488,0,0,1-1.487-1.487V18.985a2.836,2.836,0,0,0,1.44-2.466v-3.6a2.21,2.21,0,0,1,2.207-2.207H70.376a.674.674,0,1,0,0-1.348H60.293a3.559,3.559,0,0,0-3.555,3.555v3.6A1.488,1.488,0,0,1,55.252,18h-.6A2.9,2.9,0,0,0,51.7,20.688a2.812,2.812,0,0,0,.774,2.1,2.847,2.847,0,0,0,2.056.884h.863a11.441,11.441,0,0,0,3.528,6.969q.337.318.7.6v4.759a2.2,2.2,0,0,1-1.549,2.106L50.59,40.45A3.539,3.539,0,0,0,48.1,43.843v1.483a.674.674,0,1,0,1.348,0V43.843a2.2,2.2,0,0,1,1.549-2.106l4.381-1.369a14.349,14.349,0,0,0,22.8,0l4.381,1.369a2.2,2.2,0,0,1,1.549,2.106v1.483a.674.674,0,1,0,1.348,0V43.843a3.539,3.539,0,0,0-2.494-3.393Zm-4.708-21.1Zm0,1.488V19.353H78.9A1.572,1.572,0,0,1,80.5,20.759a1.487,1.487,0,0,1-1.485,1.568H77.829A2.817,2.817,0,0,0,78.252,20.839Zm-23.72,1.487a1.487,1.487,0,0,1-1.485-1.568,1.572,1.572,0,0,1,1.607-1.406H55.3v1.487a2.817,2.817,0,0,0,.423,1.487H54.531Zm2.222,1.348H76.8a10.031,10.031,0,0,1-.336,1.533H63.894a.674.674,0,1,0,0,1.348H74.747a13.828,13.828,0,0,1-7.972,2.253A13.827,13.827,0,0,1,58.8,26.555h2.21a.674.674,0,0,0,0-1.348H57.09A10.055,10.055,0,0,1,56.754,23.674Zm1.6,4.218a15.316,15.316,0,0,0,8.416,2.264,15.316,15.316,0,0,0,8.416-2.264,10.1,10.1,0,0,1-16.833,0Zm14.38,15.316a12.865,12.865,0,0,1-5.963,1.444,13.065,13.065,0,0,1-10.023-4.716l1.6-.5a11.475,11.475,0,0,0,16.847,0l1.6.5a13.136,13.136,0,0,1-4.06,3.271Z" transform="translate(6533.904 -4625)"/>
    </g>
  </g>
</svg>
