<svg xmlns="http://www.w3.org/2000/svg" xmlns:xlink="http://www.w3.org/1999/xlink" width="78" height="78" viewBox="0 0 78 78">
  <defs>
    <clipPath id="clip-category_icon_D_R">
      <rect width="78" height="78"/>
    </clipPath>
  </defs>
  <g id="category_icon_D_R" clip-path="url(#clip-category_icon_D_R)">
    <g id="Group_793" data-name="Group 793" transform="translate(-6562 4474.68)">
      <g id="photo" transform="translate(6578 -4455.18)">
        <path id="Path_1177" data-name="Path 1177" d="M42.181,8.04h-.394A4.262,4.262,0,0,0,37.973,4.3,4.261,4.261,0,0,0,33.743.5H6.59A6.6,6.6,0,0,0,0,7.09V26.128a4.261,4.261,0,0,0,3.843,4.236A4.261,4.261,0,0,0,8,34.162a3.814,3.814,0,0,0,3.818,3.762H42.181A3.824,3.824,0,0,0,46,34.1V11.859A3.824,3.824,0,0,0,42.181,8.04ZM44.2,11.859V26.57l-3.908-2.952a3,3,0,0,0-3.594-.031l-4.944,3.6-9.428-9.72a3.012,3.012,0,0,0-4.16-.162L9.8,24.691V11.859a2.025,2.025,0,0,1,2.022-2.023H42.181A2.025,2.025,0,0,1,44.2,11.859Zm0,22.245a2.025,2.025,0,0,1-2.022,2.023H11.821A2.022,2.022,0,0,1,9.8,34.1V27.087l9.559-8.433a1.217,1.217,0,0,1,1.681.065l4.255,4.387h0l8.469,8.731a.9.9,0,1,0,1.29-1.251l-2.033-2.1,4.739-3.452a1.212,1.212,0,0,1,1.453.012l4.991,3.77Zm-38.588-4.2V8.695a2.589,2.589,0,0,1,.014-.267,2.622,2.622,0,0,1,2.6-2.351h10.99a.9.9,0,1,0,0-1.8H8.233A4.42,4.42,0,0,0,3.818,8.695V28.548A2.463,2.463,0,0,1,1.8,26.128V7.09A4.8,4.8,0,0,1,6.59,2.3H33.743A2.462,2.462,0,0,1,36.154,4.28H26.411a.9.9,0,1,0,0,1.8h11.15A2.463,2.463,0,0,1,39.969,8.04H11.821A3.824,3.824,0,0,0,8,11.859V26.681H8v5.683A2.461,2.461,0,0,1,5.615,29.908Zm0,0"/>
        <path id="Path_1178" data-name="Path 1178" d="M349.564,145.117a3.845,3.845,0,1,0,3.845,3.845A3.849,3.849,0,0,0,349.564,145.117Zm0,5.893a2.048,2.048,0,1,1,2.048-2.048A2.05,2.05,0,0,1,349.564,151.01Zm0,0" transform="translate(-314.658 -131.624)" fill="#52c7f4"/>
        <path id="Path_1179" data-name="Path 1179" d="M244.03,43.815a.92.92,0,0,0,.082.155.889.889,0,0,0,.112.137.942.942,0,0,0,.137.112.915.915,0,0,0,.155.082.9.9,0,0,0,.519.051.91.91,0,0,0,.323-.134.961.961,0,0,0,.137-.112.893.893,0,0,0,.112-.137.923.923,0,0,0,.082-.155.943.943,0,0,0,.051-.168.911.911,0,0,0,.017-.176.908.908,0,0,0-.151-.5.876.876,0,0,0-.112-.137.89.89,0,0,0-.137-.112.91.91,0,0,0-.323-.134.884.884,0,0,0-.351,0,.9.9,0,0,0-.168.051.915.915,0,0,0-.155.082.883.883,0,0,0-.248.248.911.911,0,0,0-.152.5.912.912,0,0,0,.018.176A.941.941,0,0,0,244.03,43.815Zm0,0" transform="translate(-222.043 -38.293)"/>
      </g>
    </g>
  </g>
</svg>
