<svg xmlns="http://www.w3.org/2000/svg" xmlns:xlink="http://www.w3.org/1999/xlink" width="78" height="78" viewBox="0 0 78 78">
  <defs>
    <clipPath id="clip-category_icon_D_L">
      <rect width="78" height="78"/>
    </clipPath>
  </defs>
  <g id="category_icon_D_L" clip-path="url(#clip-category_icon_D_L)">
    <g id="Group_794" data-name="Group 794" transform="translate(-6398.064 4475.585)">
      <g id="map_1_" data-name="map (1)" transform="translate(6414.064 -4484.857)">
        <path id="Path_1175" data-name="Path 1175" d="M45.926,67.519,43.234,52.68a.674.674,0,1,0-1.327.241L43.046,59.2,34.273,49l5.9-1.317.874.486.379,2.092a.674.674,0,1,0,1.327-.241l-.436-2.406a.674.674,0,0,0-.335-.469L40.6,46.385h0l-4.35-2.422h0L32.9,42.095h0a.669.669,0,0,0-.08-.037l-.026-.009c-.019-.007-.038-.013-.057-.018l-.033-.007-.052-.009-.036,0-.051,0-.036,0-.05,0-.036.006-.049.011-.036.011-.046.018-.035.016-.015.007-1.54.8A13.111,13.111,0,0,0,32.442,36.7a9.431,9.431,0,1,0-18.862,0,13.152,13.152,0,0,0,1.758,6.248l-1.66-.865-.016-.007-.034-.015-.047-.018-.036-.011-.049-.011-.037-.006-.049,0-.037,0-.049,0-.037,0-.05.009-.035.007c-.018,0-.036.011-.054.017l-.028.009a.678.678,0,0,0-.079.037h0L3.955,47.151a.673.673,0,0,0-.335.469L1.062,61.727a.674.674,0,0,0,1.327.241l.768-4.232,8.726-4.613-.7,9.061L1.566,66.5,1.9,64.634a.674.674,0,1,0-1.327-.241L.011,67.52a.674.674,0,0,0,.939.735l10.871-4.881,10.866,4.879h0l0,0,.019.007.03.012.03.01.019.005.025.007.042.008.02,0,.014,0a.664.664,0,0,0,.068,0h.013a.674.674,0,0,0,.082-.006h.01l.015,0a.639.639,0,0,0,.063-.014l.017,0h0l.005,0a.668.668,0,0,0,.077-.029l10.871-4.881,10.871,4.881.032.012.032.012.043.012.027.007.052.009.019,0a.667.667,0,0,0,.072,0h0a.682.682,0,0,0,.1-.008l.023,0a.658.658,0,0,0,.1-.024l.006,0a.626.626,0,0,0,.062-.025l.017-.01c.017-.009.033-.018.05-.028s.033-.02.048-.031l.017-.011c.012-.009.022-.02.033-.03l.027-.024a.644.644,0,0,0,.056-.064l.01-.012a.673.673,0,0,0,.054-.086c0-.008.008-.017.012-.026a.693.693,0,0,0,.028-.067c0-.011.007-.023.011-.035s.011-.042.015-.064,0-.025.006-.037a.685.685,0,0,0,0-.069c0-.011,0-.022,0-.033A.627.627,0,0,0,45.926,67.519ZM34.075,44.293l-.691.162-.044-.571ZM32.6,51.85l-2.816-2.2a.674.674,0,0,0-.684-.087L23.645,51.94V51.2a31.671,31.671,0,0,0,2.445-2.24l6.083-2.672Zm-.627-8.1.086,1.112-3.8,1.669q.566-.7,1.056-1.4Zm-18.017,0,2.795,1.457q.621.873,1.361,1.758c.432.516.863,1,1.277,1.434l-5.729-.82Zm-1.955,7.779L3.462,56.048l.416-2.294.011-.059,8.287-4.368Zm.294-3.794-8.1,4.271.7-3.835L12.6,43.884l-.194,2.5Zm.231,14.476.638-8.242,7.964,12.1Zm9.764-2.6L18.141,53.07l4.153.5Zm0-7.406-5.4-.647a.674.674,0,0,0-.649,1.031l6.053,9.54v3.256L13.339,51.777l.221-2.847L21,49.995c.561.521,1.016.907,1.3,1.138v1.076Zm.717-2.235c-1.7-1.436-8.083-7.222-8.083-13.27a8.083,8.083,0,1,1,16.166,0C31.095,42.752,24.714,48.538,23.012,49.973ZM23.643,66.6V63.605l2.016,2.088Zm3.323-1.492-3.323-3.442V53.412l5.632-2.451,3.47,2.71.662,8.543Zm6.523-19.291,2.338-.547,1.658.923.917.511L33.64,47.765Zm1.268,16.369-.526-6.8,8.661,10.449Zm-.707-9.127-.183-2.366-.008-.1L43.52,61.813l.619,3.416Z" transform="translate(0)"/>
        <g id="Group_775" data-name="Group 775" transform="translate(18.845 32.536)">
          <g id="Group_774" data-name="Group 774">
            <path id="Path_1176" data-name="Path 1176" d="M214.209,85.95a.674.674,0,0,0,0,1.348,2.818,2.818,0,1,1-2.011.843.674.674,0,0,0-.962-.945,4.167,4.167,0,1,0,2.972-1.247Z" transform="translate(-210.042 -85.95)" fill="#52c7f4"/>
          </g>
        </g>
      </g>
    </g>
  </g>
</svg>
