<svg xmlns="http://www.w3.org/2000/svg" xmlns:xlink="http://www.w3.org/1999/xlink" width="78" height="78" viewBox="0 0 78 78">
  <defs>
    <clipPath id="clip-category_icon_T_L">
      <rect width="78" height="78"/>
    </clipPath>
  </defs>
  <g id="category_icon_T_L" clip-path="url(#clip-category_icon_T_L)">
    <g id="Out_line" data-name="Out line" transform="translate(0.001 -0.591)">
      <path id="Path_1165" data-name="Path 1165" d="M60.652,22.489,56.1,17.937a4.611,4.611,0,0,0-6.513,0l-17.6,17.6a9.968,9.968,0,0,0-2.939,7.095,8.442,8.442,0,0,1-2.489,6.009L16.7,58.5a2.381,2.381,0,0,0-.7,1.694v.031a2.365,2.365,0,0,0,2.365,2.365h.025a2.387,2.387,0,0,0,1.7-.7l9.859-9.859a8.442,8.442,0,0,1,6.009-2.489A9.968,9.968,0,0,0,43.052,46.6L60.652,29a4.611,4.611,0,0,0,0-6.513ZM19,60.8a.862.862,0,0,1-.614.252h-.026a.829.829,0,0,1-.829-.829v-.031a.855.855,0,0,1,.252-.609L19.069,58.3l1.217,1.217ZM41.966,45.517a8.443,8.443,0,0,1-6.009,2.489,9.968,9.968,0,0,0-7.094,2.938l-7.49,7.49-1.217-1.217,7.49-7.49a9.968,9.968,0,0,0,2.939-7.095,8.442,8.442,0,0,1,2.489-6.009l14.4-14.4,8.893,8.893Zm17.6-17.6L57.45,30.033,48.557,21.14l2.117-2.117a3.074,3.074,0,0,1,4.342,0l4.551,4.551A3.074,3.074,0,0,1,59.567,27.916Z" transform="translate(0)"/>
      <path id="Path_1166" data-name="Path 1166" d="M200.224,174.059a4,4,0,0,0-2.846,1.179l-6.141,6.141a4.024,4.024,0,0,0,5.691,5.691l6.141-6.141a4.024,4.024,0,0,0-2.846-6.87Zm1.76,5.784-6.141,6.141a2.489,2.489,0,1,1-3.52-3.52l6.141-6.141a2.489,2.489,0,1,1,3.52,3.52Z" transform="translate(-157.358 -142.359)"/>
      <path id="Path_1167" data-name="Path 1167" d="M331.07,120a3.07,3.07,0,1,0,3.07,3.07A3.07,3.07,0,0,0,331.07,120Zm0,4.606a1.535,1.535,0,1,1,1.535-1.535A1.535,1.535,0,0,1,331.07,124.606Z" transform="translate(-282.064 -93.487)"/>
      <path id="Path_1168" data-name="Path 1168" d="M0,0H4.342V1.535H0Z" transform="translate(36.177 41.323) rotate(-45)" fill="#52c7f4"/>
      <path id="Path_1169" data-name="Path 1169" d="M0,0H2.171V1.535H0Z" transform="translate(40.015 37.486) rotate(-45)" fill="#52c7f4"/>
      <circle id="Ellipse_262" data-name="Ellipse 262" cx="0.768" cy="0.768" r="0.768" transform="translate(48.239 28.816)"/>
    </g>
  </g>
</svg>
