<svg xmlns="http://www.w3.org/2000/svg" width="21.524" height="19.522" viewBox="0 0 21.524 19.522">
  <path id="link" d="M13.132,6.208a9.483,9.483,0,0,0-.982,1.14A6.512,6.512,0,0,0,7.864,9.51l-2.406,2.4a6.419,6.419,0,0,0-2.172,4.424,4.636,4.636,0,0,0,1.494,3.342,4.69,4.69,0,0,0,3.347,1.49,4.556,4.556,0,0,0,.737-.061A7.019,7.019,0,0,0,12.56,19l2.406-2.4a9.484,9.484,0,0,0,.982-1.14A6.513,6.513,0,0,0,20.233,13.3l2.406-2.4a6.418,6.418,0,0,0,2.172-4.424,4.636,4.636,0,0,0-1.494-3.342A4.585,4.585,0,0,0,19.232,1.7a7.019,7.019,0,0,0-3.695,2.1ZM21.9,4.55a2.677,2.677,0,0,1,.906,1.925,4.583,4.583,0,0,1-1.583,3.006l-2.406,2.4a6.16,6.16,0,0,1-1.791,1.292,4.461,4.461,0,0,0-1.162-4.094l-1.484,1.344c1.547,1.707.4,3.531-.83,4.76l-2.406,2.4c-1.284,1.28-3.185,2.437-4.951.675a2.677,2.677,0,0,1-.906-1.924,4.583,4.583,0,0,1,1.583-3.006l2.406-2.4a6.16,6.16,0,0,1,1.791-1.292,4.46,4.46,0,0,0,1.162,4.093l1.483-1.345c-1.547-1.706-.4-3.53.831-4.759l2.406-2.4C18.235,3.945,20.136,2.789,21.9,4.55Z" transform="translate(-3.286 -1.643)" fill="#838383"/>
</svg>
