<svg xmlns="http://www.w3.org/2000/svg" xmlns:xlink="http://www.w3.org/1999/xlink" width="69" height="69" viewBox="0 0 69 69">
  <defs>
    <clipPath id="clip-msg_icon_0">
      <rect width="69" height="69"/>
    </clipPath>
  </defs>
  <g id="msg_icon_0" clip-path="url(#clip-msg_icon_0)">
    <path id="blog" d="M13.494,10.689a1.058,1.058,0,1,1-1.058,1.058A1.058,1.058,0,0,1,13.494,10.689Zm3.7,1.058a1.058,1.058,0,1,0,1.058-1.058A1.058,1.058,0,0,0,17.2,11.748Zm-9.525,0a1.058,1.058,0,1,0,1.058-1.058A1.058,1.058,0,0,0,7.673,11.748Zm18.49,9.925a3.175,3.175,0,0,1-4.49,4.491l-5.81-5.8a1.057,1.057,0,0,1-.265-.442l-1.265-4.166a1.058,1.058,0,0,1,1.3-1.327L19.9,15.615a1.059,1.059,0,0,1,.465.271Zm-8.616-2.617,3.921,3.912,1.5-1.5-3.9-3.89-2.149-.6Zm7.12,4.114-.2-.2-1.5,1.5.2.2a1.058,1.058,0,1,0,1.5-1.5ZM14.136,21.932c-.2.008-.394.013-.589.013A12.808,12.808,0,0,1,8.677,21a1.06,1.06,0,0,0-.812,0L3.046,23.042,4.67,19.2a1.058,1.058,0,0,0-.185-1.115,8.973,8.973,0,0,1-2.369-6.023c0-5.481,5.128-9.94,11.43-9.94s11.43,4.459,11.43,9.94a8.712,8.712,0,0,1-.949,3.878,1.058,1.058,0,1,0,1.9.938,10.81,10.81,0,0,0,1.168-4.816C27.094,5.409,21.017,0,13.547,0S0,5.409,0,12.057A10.972,10.972,0,0,0,2.468,18.97L.083,24.618A1.058,1.058,0,0,0,1.47,26.005l6.823-2.88a14.952,14.952,0,0,0,5.254.936c.226,0,.455-.005.681-.015a1.058,1.058,0,0,0-.093-2.115Zm0,0" transform="translate(20.906 20.88)" fill="#52c7f4"/>
  </g>
</svg>
