<svg xmlns="http://www.w3.org/2000/svg" xmlns:xlink="http://www.w3.org/1999/xlink" width="41" height="41" viewBox="0 0 41 41">
  <defs>
    <clipPath id="clip-nav_icon_1">
      <rect width="41" height="41"/>
    </clipPath>
  </defs>
  <g id="nav_icon_1" clip-path="url(#clip-nav_icon_1)">
    <g id="Group_1307" data-name="Group 1307" transform="translate(5 7)">
      <g id="Group_721" data-name="Group 721" transform="translate(0 0)">
        <path id="Path_1139" data-name="Path 1139" d="M27.331,42.6H15.94l-.908-2.3A3.608,3.608,0,0,0,11.657,38H3.628A3.632,3.632,0,0,0,0,41.628V60.736a3.632,3.632,0,0,0,3.628,3.628h23.7a3.632,3.632,0,0,0,3.628-3.628V46.224A3.632,3.632,0,0,0,27.331,42.6Zm1.209,18.14a1.211,1.211,0,0,1-1.209,1.209H18.866V57.108h9.675Zm0-6.047H17.657A1.209,1.209,0,0,0,16.447,55.9v6.047H3.628a1.211,1.211,0,0,1-1.209-1.209V41.628a1.211,1.211,0,0,1,1.209-1.209h8.029a1.2,1.2,0,0,1,1.125.765l1.21,3.065a1.209,1.209,0,0,0,1.125.765H27.331a1.211,1.211,0,0,1,1.209,1.209Z" transform="translate(0 -38)" fill="#8EC3C3"/>
      </g>
    </g>
  </g>
</svg>
