<svg xmlns="http://www.w3.org/2000/svg" xmlns:xlink="http://www.w3.org/1999/xlink" width="41" height="41" viewBox="0 0 41 41">
  <defs>
    <clipPath id="clip-nav_icon_3">
      <rect width="41" height="41"/>
    </clipPath>
  </defs>
  <g id="nav_icon_3" clip-path="url(#clip-nav_icon_3)">
    <g id="Group_1305" data-name="Group 1305" transform="translate(6 6)">
      <g id="share" transform="translate(0 0)">
        <path id="Path_1125" data-name="Path 1125" d="M323.9,20.615A4.615,4.615,0,1,1,319.283,16,4.615,4.615,0,0,1,323.9,20.615Zm0,0" transform="translate(-295.197 -16)" fill="#8EC3C3"/>
        <path id="Path_1127" data-name="Path 1127" d="M323.9,361.948a4.615,4.615,0,1,1-4.615-4.616A4.615,4.615,0,0,1,323.9,361.948Zm0,0" transform="translate(-295.197 -337.862)" fill="#8EC3C3"/>
        <path id="Path_1129" data-name="Path 1129" d="M25.231,191.283a4.615,4.615,0,1,1-4.616-4.615A4.615,4.615,0,0,1,25.231,191.283Zm0,0" transform="translate(-16 -176.933)" fill="#8EC3C3"/>
        <path id="Path_1131" data-name="Path 1131" d="M116.136,100.569a1.906,1.906,0,0,1-1.554-.717,1.28,1.28,0,0,1,.668-1.937L131.817,90.4a2.048,2.048,0,0,1,2.436.531,1.28,1.28,0,0,1-.668,1.937l-16.568,7.512A2.138,2.138,0,0,1,116.136,100.569Zm0,0" transform="translate(-110.067 -86.636)" fill="#8EC3C3"/>
        <path id="Path_1132" data-name="Path 1132" d="M132.722,276.573a2.139,2.139,0,0,1-.882-.186l-16.568-7.512a1.279,1.279,0,0,1-.668-1.937,2.047,2.047,0,0,1,2.435-.531l16.568,7.512a1.279,1.279,0,0,1,.668,1.937A1.91,1.91,0,0,1,132.722,276.573Zm0,0" transform="translate(-110.089 -251.451)" fill="#8EC3C3"/>
      </g>
    </g>
  </g>
</svg>
