<svg xmlns="http://www.w3.org/2000/svg" xmlns:xlink="http://www.w3.org/1999/xlink" width="41" height="41" viewBox="0 0 41 41">
  <defs>
    <clipPath id="clip-nav_icon_2">
      <rect width="41" height="41"/>
    </clipPath>
  </defs>
  <g id="nav_icon_2" clip-path="url(#clip-nav_icon_2)">
    <g id="Group_1306" data-name="Group 1306" transform="translate(5 8)">
      <g id="respect_1_" data-name="respect (1)" transform="translate(0 0)">
        <g id="Group_716" data-name="Group 716" transform="translate(25.427 3.677)">
          <g id="Group_715" data-name="Group 715" transform="translate(0 0)">
            <path id="Path_1136" data-name="Path 1136" d="M452.186,85.426a.879.879,0,1,0,.256.62A.882.882,0,0,0,452.186,85.426Z" transform="translate(-450.688 -85.169)" fill="#52c7f4" stroke="#52c7f4" stroke-width="0.5"/>
          </g>
        </g>
        <g id="Group_718" data-name="Group 718" transform="translate(13.05 16.316)">
          <g id="Group_717" data-name="Group 717" transform="translate(0 0)">
            <path id="Path_1137" data-name="Path 1137" d="M222.5,320.952a.879.879,0,1,0,.256.62A.882.882,0,0,0,222.5,320.952Z" transform="translate(-220.999 -320.695)" fill="#52c7f4" stroke="#52c7f4" stroke-width="0.5"/>
          </g>
        </g>
        <g id="Group_720" data-name="Group 720" transform="translate(0 0)">
          <g id="Group_719" data-name="Group 719" transform="translate(0 0)">
            <path id="Path_1138" data-name="Path 1138" d="M29.6,47.957a.6.6,0,1,0-1.046.595,8.083,8.083,0,0,1-1.312,9.686l-.456.456a2.253,2.253,0,0,0-.514-.793l-6.183-6.183a4.157,4.157,0,0,0,1.106-.792l1.186-1.186a.6.6,0,0,0-.851-.851l-1.186,1.186a2.93,2.93,0,0,1-2.086.864H15.89a.6.6,0,0,0-.426.176L13.65,52.931A1.382,1.382,0,0,1,11.7,50.976l4.143-4.143a8.1,8.1,0,0,1,9.612-1.354.6.6,0,1,0,.584-1.052,9.335,9.335,0,0,0-5.723-1.078,9.171,9.171,0,0,0-4.9,2.237,9.269,9.269,0,0,0-12.693,13.5l.227.227a.6.6,0,0,0,.13.1A2.262,2.262,0,0,0,5.33,61.5l.09,0c0,.03,0,.061,0,.092a2.266,2.266,0,0,0,2.268,2.266l.09,0c0,.03,0,.061,0,.092a2.266,2.266,0,0,0,2.268,2.266l.092,0A2.267,2.267,0,0,0,14,67.9l.841-.841L15.978,68.2a2.266,2.266,0,0,0,3.867-1.717l.114,0a2.264,2.264,0,0,0,2.264-2.357l.092,0a2.265,2.265,0,0,0,2.264-2.358l.092,0a2.266,2.266,0,0,0,2.1-1.4.6.6,0,0,0,.162-.115l1.167-1.167A9.289,9.289,0,0,0,29.6,47.957ZM5.33,60.3a1.064,1.064,0,0,1-.752-1.817l1.037-1.037a1.064,1.064,0,0,1,1.5,1.5L6.083,59.984A1.057,1.057,0,0,1,5.33,60.3Zm1.6,2.044a1.064,1.064,0,0,1,0-1.5L7.971,59.8h0a1.064,1.064,0,1,1,1.5,1.5L8.439,62.34A1.065,1.065,0,0,1,6.934,62.34ZM9.29,64.7a1.064,1.064,0,0,1,0-1.5l1.037-1.037h0a1.064,1.064,0,1,1,1.5,1.5L10.794,64.7A1.065,1.065,0,0,1,9.29,64.7Zm4.9,1.319L13.15,67.052a1.064,1.064,0,1,1-1.5-1.5l1.037-1.037h0a1.064,1.064,0,0,1,1.5,1.5Zm11.236-5.757a1.064,1.064,0,0,1-1.5,0l-2.5-2.5h0L19.058,55.4a.6.6,0,1,0-.851.851l4.861,4.861a1.064,1.064,0,1,1-1.5,1.5L16.7,57.753a.6.6,0,0,0-.851.851l2.355,2.355h0l2.5,2.5a1.064,1.064,0,1,1-1.5,1.5l-2.5-2.5a.6.6,0,0,0-.154-.111l-.714-.714a.6.6,0,1,0-.851.851l3.352,3.351a1.064,1.064,0,1,1-1.5,1.5l-1.275-1.275a2.268,2.268,0,0,0-2.119-3.076l-.092,0a2.265,2.265,0,0,0-2.264-2.358l-.092,0a2.265,2.265,0,0,0-2.264-2.358l-.092,0a2.266,2.266,0,0,0-3.868-1.694L3.727,57.628a2.267,2.267,0,0,0-.334.425A8.065,8.065,0,0,1,14.543,46.427l-3.7,3.7A2.586,2.586,0,0,0,14.5,53.782l1.639-1.639h2.121a4.216,4.216,0,0,0,.52-.033l6.643,6.643A1.066,1.066,0,0,1,25.423,60.258Z" transform="translate(0 -43.261)" fill="#52c7f4" stroke="#52c7f4" stroke-width="0.5"/>
          </g>
        </g>
      </g>
    </g>
  </g>
</svg>
