<svg xmlns="http://www.w3.org/2000/svg" xmlns:xlink="http://www.w3.org/1999/xlink" width="41" height="41" viewBox="0 0 41 41">
  <defs>
    <clipPath id="clip-nav_icon_4">
      <rect width="41" height="41"/>
    </clipPath>
  </defs>
  <g id="nav_icon_4" clip-path="url(#clip-nav_icon_4)">
    <g id="settings-24px" transform="translate(2 2)">
      <path id="Path_1506" data-name="Path 1506" d="M0,0H37.152V37.152H0Z" fill="none"/>
      <path id="Path_1507" data-name="Path 1507" d="M28.833,19a12.063,12.063,0,0,0,.108-1.517,12.064,12.064,0,0,0-.108-1.517L32.1,13.409a.781.781,0,0,0,.186-.991l-3.1-5.356a.773.773,0,0,0-.681-.387.723.723,0,0,0-.263.046L24.39,8.269a11.31,11.31,0,0,0-2.616-1.517l-.588-4.1A.755.755,0,0,0,20.428,2H14.236a.755.755,0,0,0-.759.65l-.588,4.1a11.893,11.893,0,0,0-2.616,1.517L6.418,6.721a.877.877,0,0,0-.279-.046.767.767,0,0,0-.666.387l-3.1,5.356a.763.763,0,0,0,.186.991L5.83,15.963a12.276,12.276,0,0,0-.108,1.517A12.276,12.276,0,0,0,5.83,19L2.564,21.551a.781.781,0,0,0-.186.991l3.1,5.356a.773.773,0,0,0,.681.387.723.723,0,0,0,.263-.046l3.854-1.548a11.31,11.31,0,0,0,2.616,1.517l.588,4.1a.755.755,0,0,0,.759.65h6.192a.755.755,0,0,0,.759-.65l.588-4.1A11.893,11.893,0,0,0,24.39,26.69l3.854,1.548a.877.877,0,0,0,.279.046.767.767,0,0,0,.666-.387l3.1-5.356a.781.781,0,0,0-.186-.991ZM25.768,16.35a8.271,8.271,0,0,1,.077,1.13c0,.325-.031.666-.077,1.13l-.217,1.749,1.378,1.084,1.672,1.3-1.084,1.873-1.966-.789-1.61-.65-1.393,1.053a9.066,9.066,0,0,1-1.935,1.13l-1.641.666-.248,1.749-.31,2.09H16.248l-.294-2.09-.248-1.749-1.641-.666a8.783,8.783,0,0,1-1.9-1.1l-1.409-1.084-1.641.666-1.966.789L6.062,22.759l1.672-1.3,1.378-1.084L8.9,18.625c-.046-.48-.077-.836-.077-1.146s.031-.666.077-1.13L9.112,14.6,7.734,13.517l-1.672-1.3,1.084-1.873,1.966.789,1.61.65,1.393-1.053A9.066,9.066,0,0,1,14.05,9.6l1.641-.666.248-1.749.31-2.09H18.4l.294,2.09.248,1.749,1.641.666a8.783,8.783,0,0,1,1.9,1.1L23.9,11.783l1.641-.666,1.966-.789L28.585,12.2l-1.656,1.316L25.551,14.6l.217,1.749Zm-8.437-5.062a6.192,6.192,0,1,0,6.192,6.192A6.19,6.19,0,0,0,17.332,11.288Zm0,9.288a3.1,3.1,0,1,1,3.1-3.1A3.105,3.105,0,0,1,17.332,20.576Z" transform="translate(1.244 1.096)" fill="#8EC3C3"/>
    </g>
  </g>
</svg>
