<svg xmlns="http://www.w3.org/2000/svg" width="19.907" height="24" viewBox="0 0 19.907 24">
  <g id="share" transform="translate(-0.891 -0.891)">
    <path id="Path_1125" data-name="Path 1125" d="M322.387,19.859A3.859,3.859,0,1,1,318.527,16,3.859,3.859,0,0,1,322.387,19.859Zm0,0" transform="translate(-301.589 -15.109)" fill="#52c7f4"/>
    <path id="Path_1127" data-name="Path 1127" d="M322.387,361.192a3.859,3.859,0,1,1-3.859-3.86A3.859,3.859,0,0,1,322.387,361.192Zm0,0" transform="translate(-301.589 -340.16)" fill="#52c7f4"/>
    <path id="Path_1129" data-name="Path 1129" d="M23.719,190.527a3.859,3.859,0,1,1-3.86-3.859A3.859,3.859,0,0,1,23.719,190.527Zm0,0" transform="translate(-15.109 -177.637)" fill="#52c7f4"/>
    <path id="Path_1131" data-name="Path 1131" d="M115.48,98.873a1.12,1.12,0,0,1-.983-.6,1.223,1.223,0,0,1,.423-1.62l10.486-6.282a1.1,1.1,0,0,1,1.542.444,1.223,1.223,0,0,1-.423,1.62l-10.486,6.282A1.081,1.081,0,0,1,115.48,98.873Zm0,0" transform="translate(-109.878 -86.332)" fill="#52c7f4"/>
    <path id="Path_1132" data-name="Path 1132" d="M125.986,274.877a1.081,1.081,0,0,1-.558-.156l-10.486-6.282a1.222,1.222,0,0,1-.423-1.62,1.1,1.1,0,0,1,1.541-.444l10.486,6.282a1.222,1.222,0,0,1,.423,1.62A1.122,1.122,0,0,1,125.986,274.877Zm0,0" transform="translate(-109.9 -252.98)" fill="#52c7f4"/>
  </g>
</svg>
