<svg xmlns="http://www.w3.org/2000/svg" xmlns:xlink="http://www.w3.org/1999/xlink" width="32" height="35" viewBox="0 0 32 35">
  <defs>
    <clipPath id="clip-sort_3_B">
      <rect width="32" height="35"/>
    </clipPath>
  </defs>
  <g id="sort_3_B" clip-path="url(#clip-sort_3_B)">
    <rect width="32" height="35" fill="#fff"/>
    <g id="photo" transform="translate(4.769 7.654)">
      <path id="Path_1341" data-name="Path 1341" d="M20.722,4.2h-.194a2.094,2.094,0,0,0-1.873-1.837A2.094,2.094,0,0,0,16.577.5H3.238A3.241,3.241,0,0,0,0,3.737V13.09a2.093,2.093,0,0,0,1.888,2.081,2.093,2.093,0,0,0,2.044,1.866,1.874,1.874,0,0,0,1.876,1.848H20.722A1.878,1.878,0,0,0,22.6,17.009V6.08A1.878,1.878,0,0,0,20.722,4.2Zm.994,1.876v7.227l-1.92-1.45a1.473,1.473,0,0,0-1.766-.015L15.6,13.611,10.97,8.836a1.48,1.48,0,0,0-2.044-.079L4.814,12.385V6.08a1,1,0,0,1,.993-.994H20.722A1,1,0,0,1,21.716,6.08Zm0,10.928a1,1,0,0,1-.993.994H5.808a.994.994,0,0,1-.993-.993V13.562l4.7-4.143a.6.6,0,0,1,.826.032l2.09,2.155h0l4.161,4.29a.441.441,0,1,0,.634-.614l-1-1.03,2.328-1.7a.6.6,0,0,1,.714.006l2.452,1.852ZM2.759,14.947V4.526a1.272,1.272,0,0,1,.007-.131A1.288,1.288,0,0,1,4.045,3.24h5.4a.441.441,0,1,0,0-.883h-5.4A2.171,2.171,0,0,0,1.876,4.526v9.753A1.21,1.21,0,0,1,.883,13.09V3.737A2.357,2.357,0,0,1,3.238,1.383H16.577a1.21,1.21,0,0,1,1.185.974H12.975a.441.441,0,0,0,0,.883h5.478a1.21,1.21,0,0,1,1.183.964H5.808A1.878,1.878,0,0,0,3.931,6.08v7.282h0v2.792A1.209,1.209,0,0,1,2.759,14.947Zm0,0" fill="#707070"/>
      <path id="Path_1342" data-name="Path 1342" d="M347.608,145.117a1.889,1.889,0,1,0,1.889,1.889A1.891,1.891,0,0,0,347.608,145.117Zm0,2.9a1.006,1.006,0,1,1,1.006-1.006A1.007,1.007,0,0,1,347.608,148.012Zm0,0" transform="translate(-330.459 -138.234)" fill="#e6e6e6"/>
      <path id="Path_1343" data-name="Path 1343" d="M243.995,43.183a.451.451,0,0,0,.041.076.436.436,0,0,0,.055.067.462.462,0,0,0,.067.055.45.45,0,0,0,.076.041.442.442,0,0,0,.255.025.447.447,0,0,0,.158-.066.474.474,0,0,0,.067-.055.438.438,0,0,0,.055-.067.453.453,0,0,0,.041-.076.463.463,0,0,0,.025-.082.446.446,0,0,0,.008-.087.435.435,0,0,0-.008-.086.45.45,0,0,0-.066-.159.43.43,0,0,0-.055-.067.439.439,0,0,0-.067-.055.447.447,0,0,0-.158-.066.434.434,0,0,0-.173,0,.439.439,0,0,0-.083.025.45.45,0,0,0-.076.041.434.434,0,0,0-.122.122.435.435,0,0,0-.041.076.446.446,0,0,0-.034.169.449.449,0,0,0,.009.087A.463.463,0,0,0,243.995,43.183Zm0,0" transform="translate(-233.193 -40.216)" fill="#e6e6e6"/>
    </g>
  </g>
</svg>
