<svg xmlns="http://www.w3.org/2000/svg" xmlns:xlink="http://www.w3.org/1999/xlink" width="39" height="14" viewBox="0 0 39 14">
  <defs>
    <clipPath id="clip-symptoms_on">
      <rect width="39" height="14"/>
    </clipPath>
  </defs>
  <g id="symptoms_on" clip-path="url(#clip-symptoms_on)">
    <path id="Path_1525" data-name="Path 1525" d="M35.885,3H7.111C4.85,3,3,3.6,3,4.333v9.333C3,14.4,4.85,15,7.111,15H35.885C38.145,15,40,14.4,40,13.667V4.333C40,3.6,38.145,3,35.885,3Z" transform="translate(-2 -2)" fill="#fff" opacity="0.162"/>
    <path id="Path_1524" data-name="Path 1524" d="M10.667,0H1.333A1.337,1.337,0,0,0,0,1.333v9.333A1.337,1.337,0,0,0,1.333,12h9.333A1.337,1.337,0,0,0,12,10.667V1.333A1.337,1.337,0,0,0,10.667,0Zm-4.8,9.429L1.333,4.913l.933-.933,3.6,3.583L9.433,3.979l.933.933Z" transform="translate(1 13) rotate(-90)" fill="#f9ad35"/>
  </g>
</svg>
