<svg xmlns="http://www.w3.org/2000/svg" xmlns:xlink="http://www.w3.org/1999/xlink" width="327" height="320" viewBox="0 0 327 320">
  <defs>
    <clipPath id="clip-path">
      <path id="Path_1154" data-name="Path 1154" d="M34.648,357.939S41.2,339.164,46.415,338.2s11.668,2.584,17.325.932,10.953-1.313,17.408-5.639,23.869-4.578,29.037-3.71c12.44,2.09,60.745-10.861,79.181-7.371s29.666,6.757,45.115,8.458,37.226,12.868,45.867,13.006,6.1.467,16.807.307c24.47-.367,17.875-5.545,21.186,1.356,5.882,12.256-21.874,11.159-25.5,14.658s-8.21,7.057-12.121,13.856-27.46,22-32.405,27.545-16.3,16.076-19.172,16.248-21.512,2.647-27.112,2.074c-3.54-.362.944,1.464-15.7,3.774s-51.212-6.122-58.616-9.617-18.718-.192-28.512-3.543-22.094-8.524-32.171-8.577-21.172-17.112-25.95-16.826-12.9-7.1-11.9-14.387A28.955,28.955,0,0,1,34.648,357.939Z" transform="translate(-29.094 -321.806)" fill="none"/>
    </clipPath>
    <clipPath id="clip-Taiwan_AE">
      <rect width="327" height="320"/>
    </clipPath>
  </defs>
  <g id="Taiwan_AE" clip-path="url(#clip-Taiwan_AE)">
    <g id="Group_796" data-name="Group 796" transform="translate(-11.897 -222.383)">
      <g id="Group_761" data-name="Group 761" transform="translate(28.897 383.191)">
        <path id="Path_1151" data-name="Path 1151" d="M28.9,361.467s.628,12.147,2.805,16.643,16.723,15.126,24.234,27.056c8.952,14.22,59.753,27.1,72.2,35.863,13.233,9.319,64.551,11.48,72.241,5.667,10.735-8.114,17.4,9.525,37.049-3.63,12.172-8.151,42.461-55.9,55.873-65.107s9.385-10.345,21.142-13.194,4.839-29.091,4.839-29.091l-210.033,19.55Z" transform="translate(-28.897 -311.724)" fill="#ece5d6"/>
        <path id="Path_1152" data-name="Path 1152" d="M34.619,357.12s6.7-18.721,11.927-19.648,11.645,2.678,17.314,1.072,10.964-1.224,17.454-5.5,23.906-4.384,29.066-3.474c12.424,2.19,60.832-10.369,79.239-6.73s29.609,7,45.046,8.822,37.12,13.171,45.759,13.379,6.1.516,16.8.442c24.472-.169,17.919-5.4,21.175,1.528,5.783,12.3-21.965,10.982-25.62,14.452s-8.269,6.989-12.232,13.757S252.912,397,247.922,402.5s-16.432,15.944-19.3,16.093-21.535,2.473-27.13,1.854c-3.536-.39.932,1.471-15.735,3.646S134.6,417.56,127.219,414s-18.716-.342-28.482-3.774-22.025-8.7-32.1-8.836S45.606,384.11,40.824,384.358s-12.839-7.209-11.778-14.482A28.951,28.951,0,0,1,34.619,357.12Z" transform="translate(-28.856 -322.177)" fill="#cad7d3"/>
      </g>
      <g id="Group_763" data-name="Group 763" transform="translate(29.247 382.535)">
        <g id="Group_762" data-name="Group 762" clip-path="url(#clip-path)">
          <path id="Path_1153" data-name="Path 1153" d="M263.707,348.661c10.538,4.322-16.534,17.176-43.426,26.857-18.842,6.783-37.622,14.36-67.307,10.534-31.658-4.079-44.107-12.708-60.488-16.757-27.336-6.757-42.2-7.933-41.944-19.756.417-18.908,46.955-33.214,103.944-31.956S233.623,336.318,263.707,348.661Z" transform="translate(-12.488 -325.137)" fill="#3bb1e0"/>
        </g>
      </g>
      <g id="Group_766" data-name="Group 766" transform="translate(72.459 299.629)">
        <g id="Group_764" data-name="Group 764" transform="translate(0)">
          <path id="Path_1155" data-name="Path 1155" d="M165.574,360.41l-13.449-36.024-17.772-9.606-11.528-26.418-13.449,1.921L97.368,306.614l5.764,24.977Z" transform="translate(-19.438 -264.799)" fill="#50506d"/>
          <path id="Path_1156" data-name="Path 1156" d="M95.792,323.279l25.327-22.238,8.165,25.937-15.851,6.244-7.2,15.37L88.394,356.15l-9.062-19.565Z" transform="translate(-33.405 -254.98)" fill="#2a3c3c"/>
          <path id="Path_1157" data-name="Path 1157" d="M53.448,376.43l12.488-24.976,5.765-1.922,5.763-9.606s13.929-26.9,30.26-33.143,24.5-12.969,24.5-12.969l5.765-8.164L132.7,275.082l9.606,4.322,7.2,9.127,7.206,10.566L137.5,333.2,115.18,345.675l-6.744,30.578-34.334,2.1v-9.126Z" transform="translate(-53.448 -275.082)" fill="#465a34"/>
          <path id="Path_1158" data-name="Path 1158" d="M110.691,275.082,81.872,308.224l20.174-2.4L120.3,289.492Z" transform="translate(-31.438 -275.082)" fill="#d18195"/>
        </g>
        <g id="Group_765" data-name="Group 765" transform="translate(56.79 44.923)">
          <path id="Path_1159" data-name="Path 1159" d="M137.824,300.864,119.968,312.24l26.373,17.629L171.8,353.714l2.353-6.526Z" transform="translate(-58.727 -300.041)" fill="#3a6476"/>
          <path id="Path_1160" data-name="Path 1160" d="M116.955,351.13l9.317-39.712,32.907,7.966,25.89,18.493L156.9,354.852,118.07,372.728Z" transform="translate(-61.06 -291.868)" fill="#172838"/>
          <path id="Path_1161" data-name="Path 1161" d="M85.454,356.892l42.142-46.61,36.746-9.881v22.586l-15.851,9.881v6.352l7.926,10.587h20.895l8.646-8.47,23.056,2.823,19.1,16.408-80.153,29.414Z" transform="translate(-85.454 -300.4)" fill="#afa229"/>
        </g>
      </g>
      <path id="Path_1162" data-name="Path 1162" d="M131.77,243.383s-9.01,38.7,1.838,33.383,4.321-11.349,3.992-21.674S131.77,243.383,131.77,243.383Z" transform="translate(76.942 0)" fill="#3bb1e0"/>
      <path id="Path_1163" data-name="Path 1163" d="M146.236,257.465s-9.01,38.7,1.838,33.383,4.321-11.349,3.994-21.672S146.236,257.465,146.236,257.465Z" transform="translate(88.144 10.905)" fill="#3bb1e0"/>
      <path id="Path_1164" data-name="Path 1164" d="M70.494,293.778s-9.01,38.7,1.838,33.385,4.321-11.351,3.992-21.674S70.494,293.778,70.494,293.778Z" transform="translate(29.493 39.024)" fill="#3bb1e0"/>
    </g>
  </g>
</svg>
