<svg xmlns="http://www.w3.org/2000/svg" xmlns:xlink="http://www.w3.org/1999/xlink" width="38" height="49" viewBox="0 0 38 49">
  <defs>
    <clipPath id="clip-today_icon_b">
      <rect width="38" height="49"/>
    </clipPath>
  </defs>
  <g id="today_icon_b" clip-path="url(#clip-today_icon_b)">
    <g id="Group_803" data-name="Group 803" transform="translate(-45 -331)">
      <g id="Group_787" data-name="Group 787" transform="translate(52 335)">
        <g id="cough_2_" data-name="cough (2)" transform="translate(0)">
          <path id="Path_1254" data-name="Path 1254" d="M49.554,11.217a1.83,1.83,0,0,0-1.54-.811h-.722l-.286-2.655c-.092-.869-.035-.96.252-1.245.111-.11.236-.22.368-.336a4.469,4.469,0,0,0,1.765-3.489.548.548,0,0,0-.2-.454.538.538,0,0,0-.479-.108c-.289.074-.554.146-.788.21-1.709.465-2.115.575-3.729-.429C41.56.259,39.194-.311,36.966.159a10.7,10.7,0,0,0-4.373,2.312l-.259.2a3.261,3.261,0,0,0-2.595.335,3.888,3.888,0,0,0-1.778,2.768,25.356,25.356,0,0,0-.276,4.634h-.668a1.83,1.83,0,0,0-1.54.811,2.871,2.871,0,0,0-.462,1.625,2.679,2.679,0,0,0,2.48,2.912h.354a10.843,10.843,0,0,0,2.2,4.385,12.283,12.283,0,0,0-2.384,3.018.55.55,0,0,0,.008.542.54.54,0,0,0,.465.268h0l1.466,0a.727.727,0,0,1,.479.258l.806,1.237a1.78,1.78,0,0,0,1.378.751h.006l1.468,0a.725.725,0,0,1,.477.258l.805,1.238a.54.54,0,0,0,.452.246H35.5a.541.541,0,0,0,.453-.282c.353-.647.716-1.3,1.066-1.922q.4-.71.767-1.378a7.3,7.3,0,0,0,2.234-.5,10.451,10.451,0,0,0,2.043-1.047.549.549,0,0,0,.159-.755.538.538,0,0,0-.748-.161,9.374,9.374,0,0,1-1.831.939,7.355,7.355,0,0,1-1.222.351c1.235-2.327,2.012-4.188,1.665-5.419a1.669,1.669,0,0,0-.82-1.042c-1.138-.632-3.321-.271-5.7.941a15.533,15.533,0,0,0-2.7,1.752,8.781,8.781,0,0,1-2.1-5.141v-3.1A7.517,7.517,0,0,1,32.4,9.129a2.624,2.624,0,0,1,1.788.1c.174.052.371.111.592.169a59.789,59.789,0,0,0,10.367,1.905l1.117.131v2.846a8.166,8.166,0,0,1-1.517,4.342.549.549,0,0,0,.148.757.538.538,0,0,0,.751-.149,10.407,10.407,0,0,0,1.533-3.479h.355a2.679,2.679,0,0,0,2.48-2.912,2.872,2.872,0,0,0-.462-1.625Zm-15.5,7.429c2.195-1.12,4.02-1.33,4.687-.959a.592.592,0,0,1,.3.384c.342,1.215-1.342,4.224-2.97,7.134-.209.374-.423.756-.637,1.141l-.314-.483a1.786,1.786,0,0,0-1.384-.751l-1.47,0h0a.719.719,0,0,1-.474-.258l-.806-1.237A1.788,1.788,0,0,0,29.6,22.87l-.493,0a13.434,13.434,0,0,1,4.946-4.226ZM27.5,14.663c-1.026,0-1.4-1.088-1.4-1.82a1.8,1.8,0,0,1,.266-1,.748.748,0,0,1,.653-.345h.668v2.785q0,.188.012.379Zm17.777-4.441A58.953,58.953,0,0,1,35.056,8.345c-.2-.054-.383-.108-.558-.16a4.57,4.57,0,0,0-1.369-.262,3.717,3.717,0,0,0-1.02.155,8.436,8.436,0,0,0-3.34,1.653,21.583,21.583,0,0,1,.263-3.8,2.787,2.787,0,0,1,1.261-1.99,2.2,2.2,0,0,1,1.957-.155.537.537,0,0,0,.507-.074c.159-.119.321-.244.493-.376,2.11-1.627,5-3.855,10.382-.508,2.01,1.251,2.815,1.033,4.576.554a3.328,3.328,0,0,1-1.294,1.963c-.139.122-.282.248-.416.381a2.168,2.168,0,0,0-.569,2.14L46.2,10.33Zm2.262,4.441h-.2c.008-.128.012-.254.012-.379V11.5h.666a.748.748,0,0,1,.653.345,1.8,1.8,0,0,1,.266,1c0,.732-.372,1.82-1.4,1.82Z" transform="translate(-25.016 0)" fill="#f9ad35"/>
          <path id="Path_1255" data-name="Path 1255" d="M306.713,233.933a.546.546,0,0,0-.23-.737l-1.362-.714,1.362-.714a.546.546,0,1,0-.507-.967l-2.283,1.2a.546.546,0,0,0,0,.967l2.283,1.2a.545.545,0,0,0,.737-.23Z" transform="translate(-288.355 -218.144)" fill="#f9ad35"/>
          <path id="Path_1256" data-name="Path 1256" d="M146.826,233.932a.545.545,0,0,0,.737.23l2.283-1.2a.546.546,0,0,0,0-.967l-2.283-1.2a.546.546,0,1,0-.507.967l1.362.714-1.362.714A.546.546,0,0,0,146.826,233.932Z" transform="translate(-140.184 -218.144)" fill="#f9ad35"/>
          <path id="Path_1257" data-name="Path 1257" d="M179.058,348.221a.544.544,0,0,0,.288-.083,10.655,10.655,0,0,1,3.049-1.325.546.546,0,0,0-.259-1.06,11.756,11.756,0,0,0-3.368,1.46.546.546,0,0,0,.289,1.009Z" transform="translate(-170.219 -326.866)" fill="#f9ad35"/>
          <path id="Path_1258" data-name="Path 1258" d="M359.18,371.862h0a.546.546,0,1,0,.773,0A.545.545,0,0,0,359.178,371.864Z" transform="translate(-340.951 -351.414)" fill="#f9ad35"/>
        </g>
        <path id="Path_1281" data-name="Path 1281" d="M44.1,44.617a5.128,5.128,0,0,1-4.295,3.59" transform="translate(-36.372 -18.622)" fill="none" stroke="#f9ad35" stroke-linecap="round" stroke-width="1"/>
        <path id="Path_1280" data-name="Path 1280" d="M39.95,39.545s-1.365,5.7,4.3,6.8" transform="translate(-23.26 -16.758)" fill="none" stroke="#f9ad35" stroke-linecap="round" stroke-width="1"/>
      </g>
      <text id="流鼻水" transform="translate(52 374)" fill="#f9ad35" font-size="8" font-family="PingFangTC-Regular, PingFang TC"><tspan x="0" y="0">流鼻水</tspan></text>
    </g>
  </g>
</svg>
