<svg xmlns="http://www.w3.org/2000/svg" xmlns:xlink="http://www.w3.org/1999/xlink" width="38" height="49" viewBox="0 0 38 49">
  <defs>
    <clipPath id="clip-today_icon_c_d">
      <rect width="38" height="49"/>
    </clipPath>
  </defs>
  <g id="today_icon_c_d" clip-path="url(#clip-today_icon_c_d)">
    <g id="Group_804" data-name="Group 804" transform="translate(-45 -401)">
      <g id="Group_785" data-name="Group 785" transform="translate(52 405)">
        <path id="Path_1271" data-name="Path 1271" d="M313.5,309.79a.548.548,0,0,0,.255-1.034l-1.216-.638,1.216-.638a.548.548,0,0,0-.509-.971l-2.141,1.124a.548.548,0,0,0,0,.971l2.141,1.124A.545.545,0,0,0,313.5,309.79Z" transform="translate(-295.657 -294.1)" fill="#d6d6d6"/>
        <path id="Path_1272" data-name="Path 1272" d="M164.582,309.5a.548.548,0,0,0,.74.231l2.143-1.124a.548.548,0,0,0,0-.971l-2.143-1.124a.548.548,0,1,0-.509.971l1.217.638-1.217.638A.548.548,0,0,0,164.582,309.5Z" transform="translate(-157.912 -294.101)" fill="#d6d6d6"/>
        <path id="Path_1273" data-name="Path 1273" d="M359.282,444.83a.548.548,0,0,0-.736.245l0,0a.548.548,0,1,0,.737-.248Z" transform="translate(-340.653 -424.457)" fill="#d6d6d6"/>
        <path id="Path_1274" data-name="Path 1274" d="M75.949,106.057a1.861,1.861,0,0,0-1.568-.829H73.7l-.281-2.624c-.1-.878-.031-.942.239-1.211.11-.109.234-.219.365-.335a4.52,4.52,0,0,0,1.773-3.52.59.59,0,0,0-.209-.488.574.574,0,0,0-.513-.116c-.287.074-.55.146-.782.209-1.693.462-2.095.572-3.69-.425-2.641-1.65-5.01-2.222-7.241-1.749a10.688,10.688,0,0,0-4.375,2.323l-.242.187a3.278,3.278,0,0,0-2.6.345,3.936,3.936,0,0,0-1.791,2.8,25.315,25.315,0,0,0-.275,4.6h-.626a1.859,1.859,0,0,0-1.567.829,2.924,2.924,0,0,0-.467,1.65,2.717,2.717,0,0,0,2.512,2.956h.32a12.168,12.168,0,0,0,7.157,8.115,6.42,6.42,0,0,0,5.018,0,10.232,10.232,0,0,0,1.594-.768.591.591,0,0,0,.21-.8.575.575,0,0,0-.792-.213,9.084,9.084,0,0,1-1.415.683,5.29,5.29,0,0,1-4.212,0c-3.5-1.317-6.574-5.3-6.574-8.528v-3.085a7.437,7.437,0,0,1,3.595-2.037,2.576,2.576,0,0,1,1.762.1c.173.052.369.111.588.169a59.467,59.467,0,0,0,10.343,1.909l1.074.127v2.813a5.514,5.514,0,0,1-.061.806c0,.013,0,.027-.006.04a9.025,9.025,0,0,1-1.54,3.628.592.592,0,0,0,.145.817.574.574,0,0,0,.806-.147,10.581,10.581,0,0,0,1.64-3.63H73.9a2.717,2.717,0,0,0,2.512-2.955,2.924,2.924,0,0,0-.468-1.65Zm-22.02,3.432c-.993,0-1.354-1.066-1.354-1.783a1.765,1.765,0,0,1,.258-.977.707.707,0,0,1,.618-.328h.626v2.748q0,.169.009.34Zm17.729-4.445a58.56,58.56,0,0,1-10.184-1.879c-.2-.053-.379-.107-.552-.159a4.578,4.578,0,0,0-1.378-.265,3.726,3.726,0,0,0-1.027.157,8.438,8.438,0,0,0-3.28,1.609,21.373,21.373,0,0,1,.261-3.71,2.752,2.752,0,0,1,1.238-1.964,2.149,2.149,0,0,1,1.918-.152A.573.573,0,0,0,59.2,98.6c.159-.119.321-.244.492-.377,2.094-1.622,4.962-3.843,10.3-.507,1.994,1.246,2.807,1.048,4.528.578a3.32,3.32,0,0,1-1.262,1.878c-.139.123-.282.249-.416.383a2.2,2.2,0,0,0-.579,2.175l.258,2.415ZM73.9,109.49h-.158c.006-.114.01-.227.01-.34V106.4h.624a.708.708,0,0,1,.619.328,1.765,1.765,0,0,1,.258.977C75.258,108.424,74.9,109.49,73.9,109.49Z" transform="translate(-51.417 -94.81)" fill="#d6d6d6"/>
        <path id="Path_1276" data-name="Path 1276" d="M39.923,39.545s-1.109,4.628,3.5,5.524" transform="translate(-23.677 -16.689)" fill="none" stroke="#d6d6d6" stroke-linecap="round" stroke-width="1"/>
        <path id="Path_1277" data-name="Path 1277" d="M43.3,39.545s1.109,4.628-3.5,5.524" transform="translate(-35.193 -16.689)" fill="none" stroke="#d6d6d6" stroke-linecap="round" stroke-width="1"/>
        <path id="Path_1293" data-name="Path 1293" d="M49.759,31.9a5.789,5.789,0,0,1,4.029,0" transform="translate(-39.675 -12.827)" fill="none" stroke="#d6d6d6" stroke-linecap="round" stroke-width="1"/>
        <path id="Path_1292" data-name="Path 1292" d="M1.524.658,2.062,0l.514.658L3.525.477l-.172.965.738.541-.738.6.172.866-.949-.176-.514.763-.537-.763-.946.176.185-.957L0,1.983l.764-.541L.579.477Z" transform="translate(13.238 24.165) rotate(69)" fill="none" stroke="#d6d6d6" stroke-linecap="round" stroke-linejoin="round" stroke-width="1"/>
      </g>
      <text id="喉嚨痛" transform="translate(53 444)" fill="#d6d6d6" font-size="8" font-family="PingFangTC-Regular, PingFang TC"><tspan x="0" y="0">喉嚨痛</tspan></text>
    </g>
  </g>
</svg>
