<svg xmlns="http://www.w3.org/2000/svg" xmlns:xlink="http://www.w3.org/1999/xlink" width="38" height="49" viewBox="0 0 38 49">
  <defs>
    <clipPath id="clip-today_icon_a_d">
      <rect width="38" height="49"/>
    </clipPath>
  </defs>
  <g id="today_icon_a_d" clip-path="url(#clip-today_icon_a_d)">
    <g id="Group_802" data-name="Group 802" transform="translate(-46 -263)">
      <g id="Group_788" data-name="Group 788" transform="translate(52 266)">
        <g id="cough_1_" data-name="cough (1)" transform="translate(0)">
          <path id="Path_1243" data-name="Path 1243" d="M80.315,415.38a.589.589,0,0,0-.832,0l-2.23,2.23a.588.588,0,1,0,.832.832l2.23-2.23A.588.588,0,0,0,80.315,415.38Z" transform="translate(-74.626 -392.134)" fill="#d6d6d6"/>
          <path id="Path_1244" data-name="Path 1244" d="M42.151,386.784a.589.589,0,0,0-.756-.348l-2.824,1.042a.589.589,0,1,0,.407,1.1L41.8,387.54a.589.589,0,0,0,.348-.756Z" transform="translate(-38.021 -365.022)" fill="#d6d6d6"/>
          <path id="Path_1245" data-name="Path 1245" d="M127.916,444.049a.589.589,0,0,0-.756.348l-1.042,2.824a.589.589,0,1,0,1.1.407l1.042-2.824A.589.589,0,0,0,127.916,444.049Z" transform="translate(-121.24 -419.245)" fill="#d6d6d6"/>
          <path id="Path_1246" data-name="Path 1246" d="M378.022,415.381a.589.589,0,0,0-.832.832l2.23,2.23a.588.588,0,1,0,.832-.832Z" transform="translate(-357.879 -392.135)" fill="#d6d6d6"/>
          <path id="Path_1247" data-name="Path 1247" d="M409.439,387.477l-2.826-1.042a.588.588,0,1,0-.407,1.1l2.826,1.042a.589.589,0,0,0,.407-1.1Z" transform="translate(-384.988 -365.021)" fill="#d6d6d6"/>
          <path id="Path_1248" data-name="Path 1248" d="M349.378,444.4a.588.588,0,0,0-1.1.407l1.04,2.824a.588.588,0,1,0,1.1-.407Z" transform="translate(-330.297 -419.244)" fill="#d6d6d6"/>
          <path id="Path_1249" data-name="Path 1249" d="M364.331,370.448a.588.588,0,0,0,.789-.266l0,0a.588.588,0,1,0-.79.269Z" transform="translate(-345.767 -347.594)" fill="#d6d6d6"/>
          <path id="Path_1250" data-name="Path 1250" d="M41.259,23.709a.51.51,0,0,0-.749-.148,9.151,9.151,0,0,1-2.085,1.2,4.99,4.99,0,0,1-4.255,0,11.688,11.688,0,0,1-6.555-8.336c0-.021,0-.042-.009-.062a6.56,6.56,0,0,1-.062-.882V12.123a7.4,7.4,0,0,1,3.638-2.231A2.44,2.44,0,0,1,32.975,10c.173.056.37.12.59.183a55.446,55.446,0,0,0,10.343,2.063l1.143.146v3.089a9.183,9.183,0,0,1-1.36,4.445.622.622,0,0,0,.166.812.5.5,0,0,0,.288.092.528.528,0,0,0,.455-.273,11.6,11.6,0,0,0,1.36-3.484h.36c1.609,0,2.477-1.625,2.477-3.154a3.3,3.3,0,0,0-.461-1.76,1.791,1.791,0,0,0-1.538-.878h-.727L45.787,8.4c-.092-.944-.035-1.042.254-1.352.111-.12.237-.239.369-.366a4.961,4.961,0,0,0,1.763-3.778.614.614,0,0,0-.194-.489A.5.5,0,0,0,47.5,2.3c-.288.08-.553.158-.786.227-1.712.5-2.119.624-3.734-.465C40.343.281,37.976-.337,35.749.172a10.468,10.468,0,0,0-4.373,2.506l-.259.216a3.042,3.042,0,0,0-2.6.364,4.254,4.254,0,0,0-1.775,3,29.5,29.5,0,0,0-.278,5.026H25.8a1.792,1.792,0,0,0-1.538.878,3.3,3.3,0,0,0-.461,1.76c0,1.529.869,3.154,2.478,3.154h.36a12.193,12.193,0,0,0,1.993,4.474,12.093,12.093,0,0,0,5.166,4.317,5.968,5.968,0,0,0,5.005,0,10.2,10.2,0,0,0,2.324-1.339A.624.624,0,0,0,41.259,23.709Zm4.869-8.226V12.46H46.8a.736.736,0,0,1,.655.375,2.079,2.079,0,0,1,.266,1.085c0,.795-.373,1.977-1.4,1.977h-.205Q46.128,15.689,46.128,15.484ZM27.81,6.43a3.059,3.059,0,0,1,1.261-2.161,2.058,2.058,0,0,1,1.961-.17.5.5,0,0,0,.5-.08c.159-.129.321-.264.492-.407,2.111-1.764,5-4.181,10.389-.55,2.011,1.356,2.815,1.119,4.578.6h0A3.636,3.636,0,0,1,45.7,5.8c-.139.133-.283.27-.417.414a2.479,2.479,0,0,0-.569,2.317l.265,2.673-.949-.121a54.668,54.668,0,0,1-10.2-2.033c-.2-.058-.382-.116-.556-.173a4.265,4.265,0,0,0-1.37-.284,3.447,3.447,0,0,0-1.021.169,8.2,8.2,0,0,0-3.346,1.8A25.132,25.132,0,0,1,27.81,6.43ZM26.276,15.9c-1.028,0-1.4-1.182-1.4-1.977a2.079,2.079,0,0,1,.267-1.085.738.738,0,0,1,.656-.376h.67v3.023c0,.137,0,.275.013.415h-.2Z" transform="translate(-23.798 0)" fill="#d6d6d6"/>
          <path id="Path_1251" data-name="Path 1251" d="M198.952,309.485h3.617a1.648,1.648,0,0,0,1.645-1.647,3.454,3.454,0,1,0-6.909,0A1.649,1.649,0,0,0,198.952,309.485Zm1.807-3.924a2.28,2.28,0,0,1,2.277,2.277.47.47,0,0,1-.468.47h-3.617a.476.476,0,0,1-.47-.47A2.28,2.28,0,0,1,200.759,305.561Z" transform="translate(-188.26 -286.469)" fill="#d6d6d6"/>
          <path id="Path_1252" data-name="Path 1252" d="M306.963,232.282a.589.589,0,0,0,.274-1.11l-1.489-.781,1.489-.781a.589.589,0,1,0-.547-1.042l-2.481,1.3a.588.588,0,0,0,0,1.042l2.481,1.3A.585.585,0,0,0,306.963,232.282Z" transform="translate(-289.033 -215.052)" fill="#d6d6d6"/>
          <path id="Path_1253" data-name="Path 1253" d="M146.008,231.967a.588.588,0,0,0,.795.248l2.483-1.3a.589.589,0,0,0,0-1.042l-2.483-1.3a.589.589,0,0,0-.547,1.042l1.489.781-1.489.781a.588.588,0,0,0-.248.795Z" transform="translate(-139.46 -215.051)" fill="#d6d6d6"/>
        </g>
        <path id="Path_1282" data-name="Path 1282" d="M39.366,40.191s-.991,5.186,5.12,6.287" transform="translate(-23.505 -15.258)" fill="none" stroke="#d6d6d6" stroke-linecap="round" stroke-width="1"/>
        <path id="Path_1283" data-name="Path 1283" d="M45.187,39.784s1.12,5.5-5.381,6.6" transform="translate(-36.084 -15.165)" fill="none" stroke="#d6d6d6" stroke-linecap="round" stroke-width="1"/>
      </g>
      <text id="咳嗽" transform="translate(57 307)" fill="#d6d6d6" font-size="8" font-family="PingFangTC-Regular, PingFang TC"><tspan x="0" y="0">咳嗽</tspan></text>
    </g>
  </g>
</svg>
