<svg xmlns="http://www.w3.org/2000/svg" xmlns:xlink="http://www.w3.org/1999/xlink" width="41" height="41" viewBox="0 0 41 41">
  <defs>
    <clipPath id="clip-tw_icon">
      <rect width="41" height="41"/>
    </clipPath>
  </defs>
  <g id="tw_icon" clip-path="url(#clip-tw_icon)">
    <g id="respect_1_" data-name="respect (1)" transform="translate(1 -39.261)">
      <g id="Group_716" data-name="Group 716" transform="translate(34.149 46.436)">
        <g id="Group_715" data-name="Group 715" transform="translate(0 0)">
          <path id="Path_1136" data-name="Path 1136" d="M451.982,85.391a.759.759,0,1,0,.221.536A.762.762,0,0,0,451.982,85.391Z" transform="translate(-450.688 -85.169)" fill="#fff"/>
        </g>
      </g>
      <g id="Group_718" data-name="Group 718" transform="translate(16.745 64.282)">
        <g id="Group_717" data-name="Group 717" transform="translate(0 0)">
          <path id="Path_1137" data-name="Path 1137" d="M222.293,320.917a.759.759,0,1,0,.221.536A.762.762,0,0,0,222.293,320.917Z" transform="translate(-220.999 -320.695)" fill="#fff"/>
        </g>
      </g>
      <g id="Group_720" data-name="Group 720" transform="translate(0 43.261)">
        <g id="Group_719" data-name="Group 719" transform="translate(0 0)">
          <path id="Path_1138" data-name="Path 1138" d="M37.278,49.175a.758.758,0,1,0-1.317.749,10.179,10.179,0,0,1-1.653,12.2l-.575.575a2.837,2.837,0,0,0-.647-1L25.3,53.912a5.236,5.236,0,0,0,1.393-1l1.493-1.493a.758.758,0,1,0-1.072-1.072l-1.493,1.493A3.69,3.69,0,0,1,23,52.931H20.01a.758.758,0,0,0-.536.222l-2.285,2.285a1.74,1.74,0,0,1-2.461-2.461l5.217-5.217a10.2,10.2,0,0,1,12.1-1.705.758.758,0,1,0,.735-1.325,11.755,11.755,0,0,0-7.207-1.357A11.548,11.548,0,0,0,19.4,46.189a11.672,11.672,0,0,0-15.984,17l.286.286a.758.758,0,0,0,.163.123,2.849,2.849,0,0,0,2.845,2.632l.114,0c0,.038,0,.077,0,.115a2.853,2.853,0,0,0,2.855,2.854l.114,0c0,.038,0,.077,0,.115a2.853,2.853,0,0,0,2.856,2.854l.115,0a2.854,2.854,0,0,0,4.871,2.135l1.059-1.059,1.43,1.43A2.854,2.854,0,0,0,24.99,72.5c.048,0,.1,0,.143,0a2.85,2.85,0,0,0,2.852-2.968l.115,0a2.853,2.853,0,0,0,2.851-2.97l.115,0a2.854,2.854,0,0,0,2.638-1.764.757.757,0,0,0,.2-.145l1.469-1.469A11.7,11.7,0,0,0,37.278,49.175ZM6.712,64.713a1.34,1.34,0,0,1-.948-2.288L7.07,61.119a1.34,1.34,0,0,1,1.9,1.9L7.66,64.32A1.331,1.331,0,0,1,6.712,64.713Zm2.019,2.574a1.34,1.34,0,0,1,0-1.9l1.306-1.306h0a1.34,1.34,0,0,1,1.9,1.9l-1.306,1.306A1.342,1.342,0,0,1,8.731,67.287ZM11.7,70.254a1.34,1.34,0,0,1,0-1.9L13,67.053h0a1.34,1.34,0,0,1,1.9,1.9l-1.306,1.306A1.341,1.341,0,0,1,11.7,70.254Zm6.168,1.661L16.56,73.22a1.34,1.34,0,0,1-1.9-1.9l1.306-1.306h0a1.34,1.34,0,0,1,1.9,1.9Zm14.149-7.25a1.34,1.34,0,0,1-1.9,0L26.966,61.51h0L24,58.544a.758.758,0,0,0-1.072,1.072l6.121,6.121a1.34,1.34,0,1,1-1.9,1.9L21.032,61.51a.758.758,0,1,0-1.072,1.072l2.966,2.966h0L26.081,68.7a1.34,1.34,0,1,1-1.9,1.9l-3.154-3.154a.757.757,0,0,0-.194-.14l-.9-.9a.758.758,0,1,0-1.072,1.072l4.221,4.22a1.34,1.34,0,1,1-1.9,1.9l-1.606-1.606a2.856,2.856,0,0,0-2.668-3.874l-.115,0a2.853,2.853,0,0,0-2.851-2.97l-.115,0a2.853,2.853,0,0,0-2.851-2.97l-.115,0A2.854,2.854,0,0,0,6,60.048L4.693,61.353a2.854,2.854,0,0,0-.42.536,10.156,10.156,0,0,1,14.04-14.641L13.656,51.9a3.256,3.256,0,0,0,4.6,4.6l2.063-2.063H23a5.307,5.307,0,0,0,.654-.042l8.365,8.365A1.342,1.342,0,0,1,32.015,64.664Z" transform="translate(0 -43.261)" fill="#fff"/>
        </g>
      </g>
    </g>
  </g>
</svg>
