<svg xmlns="http://www.w3.org/2000/svg" xmlns:xlink="http://www.w3.org/1999/xlink" width="360" height="640" viewBox="0 0 360 640">
  <defs>
    <clipPath id="clip-Mask_view">
      <rect width="360" height="640"/>
    </clipPath>
  </defs>
  <g id="Mask_view" clip-path="url(#clip-Mask_view)">
    <g id="Subtraction_6" data-name="Subtraction 6" transform="translate(19441 -271)" fill="rgba(0,0,0,0.72)">
      <path d="M -19343.69921875 910.4976196289062 C -19336.369140625 899.1784057617188 -19332.5 886.0609130859375 -19332.5 872.4991455078125 C -19332.5 863.0512084960938 -19334.349609375 853.88427734375 -19338 845.2529296875 C -19339.759765625 841.098876953125 -19341.9296875 837.098388671875 -19344.455078125 833.3621826171875 C -19346.958984375 829.6572265625 -19349.833984375 826.1716918945312 -19353.001953125 823.00244140625 C -19356.16796875 819.8368530273438 -19359.65234375 816.9610595703125 -19363.361328125 814.4547729492188 C -19367.1015625 811.9270629882812 -19371.103515625 809.7554321289062 -19375.251953125 808.0003051757812 C -19383.8828125 804.3497314453125 -19393.05078125 802.4987182617188 -19402.5 802.4987182617188 C -19416.0625 802.4987182617188 -19429.1796875 806.3693237304688 -19440.5 813.7015380859375 L -19440.498046875 271.4990539550781 L -19081.501953125 271.4990539550781 L -19081.5 910.4966430664062 L -19343.69921875 910.4976196289062 Z" stroke="none"/>
      <path d="M -19342.787109375 909.9976196289062 L -19082 909.9966430664062 L -19082.001953125 271.9990539550781 L -19439.998046875 271.9990539550781 L -19440 812.7889404296875 C -19428.77734375 805.7236938476562 -19415.8515625 801.9987182617188 -19402.5 801.9987182617188 C -19392.982421875 801.9987182617188 -19383.75 803.8629760742188 -19375.05859375 807.539794921875 C -19370.87890625 809.3075561523438 -19366.84765625 811.4946899414062 -19363.080078125 814.04052734375 C -19359.345703125 816.5646362304688 -19355.8359375 819.4608764648438 -19352.6484375 822.6490478515625 C -19349.45703125 825.8406982421875 -19346.5625 829.3509521484375 -19344.041015625 833.082275390625 C -19341.498046875 836.8451538085938 -19339.310546875 840.874267578125 -19337.5390625 845.0582275390625 C -19333.86328125 853.75146484375 -19332 862.9839477539062 -19332 872.4991455078125 C -19332 885.8507080078125 -19335.724609375 898.7745971679688 -19342.787109375 909.9976196289062 M -19081 910.9976196289062 L -19081.001953125 910.9976196289062 L -19081.001953125 910.9966430664062 L -19344.626953125 910.9976196289062 C -19337.01953125 899.5845336914062 -19333 886.2725219726562 -19333 872.4991455078125 C -19333 863.1170654296875 -19334.837890625 854.015625 -19338.4609375 845.4476928710938 C -19340.20703125 841.3228149414062 -19342.36328125 837.3507690429688 -19344.869140625 833.6421508789062 C -19347.35546875 829.9625244140625 -19350.2109375 826.5018920898438 -19353.35546875 823.35595703125 C -19356.5 820.2118530273438 -19359.9609375 817.3564453125 -19363.640625 814.8690185546875 C -19367.35546875 812.3590698242188 -19371.328125 810.2030639648438 -19375.447265625 808.4608154296875 C -19384.015625 804.8364868164062 -19393.1171875 802.9987182617188 -19402.5 802.9987182617188 C -19416.275390625 802.9987182617188 -19429.587890625 807.0202026367188 -19441 814.6283569335938 L -19440.998046875 270.9990539550781 L -19081.001953125 270.9990539550781 L -19081 910.9976196289062 Z" stroke="none" fill="#817f7f"/>
    </g>
    <path id="Path_1528" data-name="Path 1528" d="M19937.064,126.508c20.479,13.141,4.535,33.528-6.611,26.289s16.359-22.439,21.2-6.073-10.113,20.365-10.113,20.365l1.5-5.879-1.916,6.308,4.5,1.991-4.385-2.186" transform="matrix(0.719, 0.695, -0.695, 0.719, -14118.759, -13429.816)" fill="none" stroke="#fff" stroke-width="1"/>
  </g>
</svg>
