<svg xmlns="http://www.w3.org/2000/svg" xmlns:xlink="http://www.w3.org/1999/xlink" width="360" height="640" viewBox="0 0 360 640">
  <defs>
    <clipPath id="clip-Mask_add">
      <rect width="360" height="640"/>
    </clipPath>
  </defs>
  <g id="Mask_add" clip-path="url(#clip-Mask_add)">
    <g id="Subtraction_1" data-name="Subtraction 1" transform="translate(19441 -271)" fill="rgba(0,0,0,0.72)">
      <path d="M -19174.298828125 910.501220703125 L -19440.5 910.501220703125 L -19440.498046875 271.501953125 L -19081.5 271.501953125 L -19081.5 811.2971801757812 C -19086.466796875 808.5324096679688 -19091.751953125 806.3847045898438 -19097.22265625 804.9087524414062 C -19103.150390625 803.3095092773438 -19109.298828125 802.4987182617188 -19115.5 802.4987182617188 C -19124.94921875 802.4987182617188 -19134.1171875 804.349609375 -19142.748046875 808.0001220703125 C -19146.892578125 809.7535400390625 -19150.89453125 811.9251098632812 -19154.638671875 814.45458984375 C -19158.34375 816.9568481445312 -19161.828125 819.8327026367188 -19164.998046875 823.0022583007812 C -19168.1640625 826.1671142578125 -19171.0390625 829.6527099609375 -19173.546875 833.3621215820312 C -19176.076171875 837.1060791015625 -19178.248046875 841.1067504882812 -19180.001953125 845.253173828125 C -19183.650390625 853.8785400390625 -19185.5 863.0458374023438 -19185.5 872.5006713867188 C -19185.5 886.0640869140625 -19181.630859375 899.1820068359375 -19174.298828125 910.501220703125 Z" stroke="none"/>
      <path d="M -19175.2109375 910.001220703125 C -19182.275390625 898.7781372070312 -19186 885.8538208007812 -19186 872.5006713867188 C -19186 862.9786376953125 -19184.13671875 853.7456665039062 -19180.462890625 845.058349609375 C -19178.6953125 840.8822631835938 -19176.5078125 836.85302734375 -19173.9609375 833.0820922851562 C -19171.435546875 829.3463745117188 -19168.5390625 825.8359985351562 -19165.3515625 822.648681640625 C -19162.158203125 819.4566040039062 -19158.6484375 816.5603637695312 -19154.919921875 814.040283203125 C -19151.1484375 811.4927978515625 -19147.1171875 809.3056030273438 -19142.94140625 807.5396118164062 C -19134.25 803.8629150390625 -19125.017578125 801.9987182617188 -19115.5 801.9987182617188 C -19109.255859375 801.9987182617188 -19103.0625 802.8153686523438 -19097.09375 804.426025390625 C -19091.853515625 805.8392333984375 -19086.78515625 807.8638305664062 -19082 810.4524536132812 L -19082 272.001953125 L -19439.998046875 272.001953125 L -19440 910.001220703125 L -19175.2109375 910.001220703125 M -19173.37109375 911.001220703125 L -19173.373046875 911.001220703125 L -19173.37109375 911.001220703125 Z M -19173.37109375 911.001220703125 L -19441 911.001220703125 L -19440.998046875 271.001953125 L -19081 271.001953125 L -19081 812.1537475585938 C -19086.142578125 809.2074584960938 -19091.642578125 806.9320068359375 -19097.353515625 805.3915405273438 C -19103.23828125 803.8037109375 -19109.34375 802.9987182617188 -19115.5 802.9987182617188 C -19124.8828125 802.9987182617188 -19133.984375 804.8363037109375 -19142.552734375 808.4606323242188 C -19146.66796875 810.2010498046875 -19150.640625 812.3570556640625 -19154.359375 814.8689575195312 C -19158.041015625 817.3563842773438 -19161.5 820.2117919921875 -19164.64453125 823.3558349609375 C -19167.7890625 826.499755859375 -19170.64453125 829.9606323242188 -19173.1328125 833.64208984375 C -19175.642578125 837.3584594726562 -19177.798828125 841.3306274414062 -19179.541015625 845.447998046875 C -19183.1640625 854.0131225585938 -19185 863.1150512695312 -19185 872.5006713867188 C -19185 886.274169921875 -19180.98046875 899.5869140625 -19173.373046875 910.9996337890625 L -19173.37109375 911.001220703125 Z" stroke="none" fill="#817f7f"/>
    </g>
    <path id="Path_1495" data-name="Path 1495" d="M7.112,71.7c28.576-19.37,17.973-59.186-3.741-42.21s23.136,28.215,29.9,4.092S19.156,3.567,19.156,3.567l2.088,8.666-2.674-9.3L24.855,0,18.736,3.222" transform="matrix(-0.695, 0.719, -0.719, -0.695, 242.471, 578.775)" fill="none" stroke="#fff" stroke-width="1"/>
  </g>
</svg>
