<svg xmlns="http://www.w3.org/2000/svg" xmlns:xlink="http://www.w3.org/1999/xlink" width="360" height="640" viewBox="0 0 360 640">
  <defs>
    <clipPath id="clip-Mask_share">
      <rect width="360" height="640"/>
    </clipPath>
  </defs>
  <g id="Mask_share" clip-path="url(#clip-Mask_share)">
    <g id="Subtraction_1" data-name="Subtraction 1" transform="translate(19441 -271)" fill="rgba(0,0,0,0.72)">
      <path d="M -19378.294921875 910.5027465820312 L -19440.5 910.5011596679688 L -19440.498046875 271.501953125 L -19081.5 271.501953125 L -19081.5 910.5011596679688 L -19260.703125 910.5011596679688 C -19253.37109375 899.18017578125 -19249.5 886.0618896484375 -19249.5 872.5006103515625 C -19249.5 863.0521850585938 -19251.349609375 853.8848876953125 -19255 845.2532958984375 C -19256.75390625 841.106689453125 -19258.92578125 837.1060180664062 -19261.455078125 833.3623046875 C -19263.9609375 829.653076171875 -19266.837890625 826.16748046875 -19270.00390625 823.002197265625 C -19273.173828125 819.8328857421875 -19276.658203125 816.95703125 -19280.36328125 814.4546508789062 C -19284.107421875 811.9249877929688 -19288.109375 809.7534790039062 -19292.25390625 808.000244140625 C -19300.884765625 804.349609375 -19310.052734375 802.4986572265625 -19319.501953125 802.4986572265625 C -19328.951171875 802.4986572265625 -19338.1171875 804.349609375 -19346.748046875 808.000244140625 C -19350.8984375 809.7572021484375 -19354.900390625 811.9287719726562 -19358.63671875 814.4546508789062 C -19362.34765625 816.962158203125 -19365.83203125 819.8379516601562 -19368.998046875 823.002197265625 C -19372.166015625 826.17138671875 -19375.041015625 829.656982421875 -19377.544921875 833.3622436523438 C -19380.07421875 837.1063232421875 -19382.244140625 841.10693359375 -19384 845.2532348632812 C -19387.650390625 853.8848876953125 -19389.5 863.0521850585938 -19389.5 872.5006103515625 C -19389.5 886.0596313476562 -19385.62890625 899.1784057617188 -19378.294921875 910.5027465820312 Z" stroke="none"/>
      <path d="M -19379.20703125 910.0027465820312 C -19386.2734375 898.7748413085938 -19390 885.8494873046875 -19390 872.5006103515625 C -19390 862.98486328125 -19388.13671875 853.7520751953125 -19384.4609375 845.0584106445312 C -19382.693359375 840.8824462890625 -19380.505859375 836.8532104492188 -19377.958984375 833.082275390625 C -19375.4375 829.3507080078125 -19372.54296875 825.8403930664062 -19369.3515625 822.6485595703125 C -19366.1640625 819.4618530273438 -19362.65234375 816.5657348632812 -19358.91796875 814.040283203125 C -19355.15234375 811.4964599609375 -19351.123046875 809.3093872070312 -19346.94140625 807.5397338867188 C -19338.25 803.8629760742188 -19329.017578125 801.9986572265625 -19319.501953125 801.9986572265625 C -19309.984375 801.9986572265625 -19300.751953125 803.8629760742188 -19292.060546875 807.5397338867188 C -19287.884765625 809.3054809570312 -19283.85546875 811.4925537109375 -19280.08203125 814.040283203125 C -19276.353515625 816.560546875 -19272.84375 819.456787109375 -19269.650390625 822.6486206054688 C -19266.462890625 825.8363647460938 -19263.564453125 829.3467407226562 -19261.041015625 833.0824584960938 C -19258.494140625 836.8529663085938 -19256.306640625 840.8822021484375 -19254.5390625 845.0586547851562 C -19250.86328125 853.7520751953125 -19249 862.98486328125 -19249 872.5006103515625 C -19249 885.8517456054688 -19252.724609375 898.7764892578125 -19259.791015625 910.0011596679688 L -19082 910.0011596679688 L -19082 272.001953125 L -19439.998046875 272.001953125 L -19440 910.0011596679688 L -19379.20703125 910.0027465820312 M -19377.3671875 911.0028076171875 L -19377.369140625 911.0028076171875 L -19441 911.0011596679688 L -19440.998046875 271.001953125 L -19081 271.001953125 L -19081 911.0011596679688 L -19261.630859375 911.0011596679688 C -19254.021484375 899.587158203125 -19250 886.2743530273438 -19250 872.5006103515625 C -19250 863.1179809570312 -19251.837890625 854.0162353515625 -19255.4609375 845.4480590820312 C -19257.203125 841.3304443359375 -19259.359375 837.3583984375 -19261.869140625 833.6421508789062 C -19264.357421875 829.9605712890625 -19267.212890625 826.4996948242188 -19270.357421875 823.3557739257812 C -19273.501953125 820.2119750976562 -19276.9609375 817.3565673828125 -19280.642578125 814.868896484375 C -19284.361328125 812.35693359375 -19288.333984375 810.2009887695312 -19292.44921875 808.460693359375 C -19301.017578125 804.8363037109375 -19310.119140625 802.9986572265625 -19319.501953125 802.9986572265625 C -19328.8828125 802.9986572265625 -19337.984375 804.8363037109375 -19346.552734375 808.460693359375 C -19350.671875 810.2039794921875 -19354.64453125 812.3599853515625 -19358.357421875 814.868896484375 C -19362.03515625 817.35498046875 -19365.498046875 820.2103881835938 -19368.64453125 823.3557739257812 C -19371.7890625 826.5016479492188 -19374.64453125 829.96240234375 -19377.130859375 833.6421508789062 C -19379.640625 837.358642578125 -19381.796875 841.3306884765625 -19383.5390625 845.4480590820312 C -19387.162109375 854.0162353515625 -19389 863.1179809570312 -19389 872.5006103515625 C -19389 886.2705688476562 -19384.978515625 899.583984375 -19377.369140625 911.0011596679688 L -19377.3671875 911.0028076171875 Z" stroke="none" fill="#817f7f"/>
    </g>
    <path id="Path_1528" data-name="Path 1528" d="M19937.064,126.508c20.479,13.141,4.535,33.528-6.611,26.289s16.359-22.439,21.2-6.073-10.113,20.365-10.113,20.365l1.5-5.879-1.916,6.308,4.5,1.991-4.385-2.186" transform="translate(-17370.463 -8984.757) rotate(28)" fill="none" stroke="#fff" stroke-width="1"/>
  </g>
</svg>
