<?xml version="1.0" encoding="utf-8"?>
<!-- Generator: Adobe Illustrator 23.0.2, SVG Export Plug-In . SVG Version: 6.00 Build 0)  -->
<svg version="1.1" id="圖層_1" xmlns="http://www.w3.org/2000/svg" xmlns:xlink="http://www.w3.org/1999/xlink" x="0px" y="0px"
	 viewBox="0 0 1024 1024" style="enable-background:new 0 0 1024 1024;" xml:space="preserve">
<style type="text/css">
	.st0{fill:#FFFFFF;}
	.st1{fill:#D4CEB9;}
	.st2{fill:#8EC3C3;}
	.st3{fill-opacity:0;}
	.st4{fill:none;stroke:#FFFFFF;stroke-width:20;stroke-miterlimit:10;}
	.st5{fill:none;stroke:#FFFFFF;stroke-width:20;stroke-linecap:round;stroke-linejoin:round;stroke-miterlimit:10;}
</style>
<rect class="st0" width="1024" height="1024"/>
<g>
	<g>
		<path class="st1" d="M277.6,491.6L277.6,491.6c-4.8-198.7,89.9-369.5,217.3-391.9c127.4-22.4,244.3,111.3,268.2,306.6h34.8
			l-65.5,70.9l-74.5-70.9h34.8l0,0C672.2,251.3,588.6,149.1,499.4,170c-89.2,21-154.9,158.2-151.9,317.5L277.6,491.6z"/>
		<path class="st2" d="M187.5,442.6L187.5,442.6c0-53.5,43.3-96.8,96.8-96.8h465.8c25.7,0,50.3,10.2,68.5,28.4
			c18.2,18.2,28.4,42.8,28.4,68.5v387.3c0,53.5-43.3,96.8-96.8,96.8H284.3c-53.5,0-96.8-43.3-96.8-96.8V442.6z"/>
		<path class="st3" d="M374.1,586.2L374.1,586.2c0-79,64-143,143-143l0,0c37.9,0,74.3,15.1,101.1,41.9
			c26.8,26.8,41.9,63.2,41.9,101.1l0,0c0,79-64,143-143.1,143l0,0C438.2,729.2,374.1,665.2,374.1,586.2z"/>
		<path class="st4" d="M374.1,586.2L374.1,586.2c0-79,64-143,143-143l0,0c37.9,0,74.3,15.1,101.1,41.9
			c26.8,26.8,41.9,63.2,41.9,101.1l0,0c0,79-64,143-143.1,143l0,0C438.2,729.2,374.1,665.2,374.1,586.2z"/>
		<path class="st5" d="M517.2,913.5V554.7"/>
		<path class="st3" d="M513.4,631.9l-49-25.3"/>
		<path class="st5" d="M513.4,631.9l-49-25.3"/>
		<path class="st3" d="M524.5,656.6l49-25.3"/>
		<path class="st5" d="M524.5,656.6l49-25.3"/>
	</g>
</g>
</svg>
