<?xml version="1.0" encoding="utf-8"?>
<!-- Generator: Adobe Illustrator 23.0.2, SVG Export Plug-In . SVG Version: 6.00 Build 0)  -->
<svg version="1.1" id="圖層_1" xmlns="http://www.w3.org/2000/svg" xmlns:xlink="http://www.w3.org/1999/xlink" x="0px" y="0px"
	 viewBox="0 0 1742 443.1" style="enable-background:new 0 0 1742 443.1;" xml:space="preserve">
<style type="text/css">
	.st0{fill:#D4CEB9;}
	.st1{fill:#8EC3C3;}
	.st2{fill-opacity:0;}
	.st3{fill:none;stroke:#FFFFFF;stroke-width:5;stroke-miterlimit:10;}
	.st4{fill:none;stroke:#FFFFFF;stroke-width:5;stroke-linecap:round;stroke-linejoin:round;stroke-miterlimit:10;}
	.st5{fill:none;stroke:#FFFFFF;stroke-width:4;stroke-linecap:round;stroke-linejoin:round;stroke-miterlimit:10;}
	.st6{fill:#666666;}
</style>
<g>
	<g>
		<path class="st0" d="M1206.6,187.5L1206.6,187.5c-1.3-54.3,24.6-101.1,59.4-107.2c34.8-6.1,66.8,30.4,73.4,83.9h9.5l-17.9,19.4
			l-20.4-19.4h9.5l0,0c-5.6-42.4-28.5-70.4-52.9-64.6c-24.4,5.7-42.4,43.3-41.5,86.8L1206.6,187.5z"/>
		<path class="st1" d="M1182,174.1L1182,174.1c0-14.6,11.9-26.5,26.5-26.5h127.4c7,0,13.8,2.8,18.7,7.8c5,5,7.8,11.7,7.8,18.7V280
			c0,14.6-11.9,26.5-26.5,26.5h-127.4c-14.6,0-26.5-11.9-26.5-26.5V174.1z"/>
		<path class="st2" d="M1233,213.4L1233,213.4c0-21.6,17.5-39.1,39.1-39.1l0,0c10.4,0,20.3,4.1,27.7,11.5
			c7.3,7.3,11.5,17.3,11.5,27.7l0,0c0,21.6-17.5,39.1-39.1,39.1l0,0C1250.6,252.5,1233,235,1233,213.4z"/>
		<path class="st3" d="M1233,213.4L1233,213.4c0-21.6,17.5-39.1,39.1-39.1l0,0c10.4,0,20.3,4.1,27.7,11.5
			c7.3,7.3,11.5,17.3,11.5,27.7l0,0c0,21.6-17.5,39.1-39.1,39.1l0,0C1250.6,252.5,1233,235,1233,213.4z"/>
		<path class="st4" d="M1272.2,302.9v-98.1"/>
		<path class="st2" d="M1271.1,225.8l-13.4-6.9"/>
		<path class="st5" d="M1271.1,225.8l-13.4-6.9"/>
		<path class="st2" d="M1274.1,232.6l13.4-6.9"/>
		<path class="st4" d="M1274.1,232.6l13.4-6.9"/>
	</g>
	<g>
		<path class="st6" d="M286.8,269.2v37.6H166.9V130.1h44.9v139.1H286.8z"/>
		<path class="st6" d="M366.9,306.8V130.1h44.9v176.7H366.9z"/>
		<path class="st6" d="M550.6,165.4v40.9h79.3v35.3h-79.3v65.1h-44.9V130.1h131v35.3H550.6z"/>
		<path class="st6" d="M761.7,165.4v35.1H846v35.3h-84.3v35.6h96.2v35.3H716.8V130.1h138.3v35.3H761.7z"/>
		<path class="st6" d="M1029.1,130.1c39.6,0,64.9,17.2,64.9,44.2c0,18.7-11.6,33.6-30.3,38.9c22.2,4.3,36.4,21.7,36.4,44.7
			c0,30-26.3,49-67.9,49h-86.6V130.1H1029.1z M990.2,200.8h36.4c13.1,0,21.5-7.1,21.5-18.4s-8.3-17.9-21.5-17.9h-36.4V200.8z
			 M990.2,272.2h36.4c16.7,0,27-7.3,27-19.9c0-11.9-10.4-19.2-27-19.2h-36.4V272.2z"/>
		<path class="st6" d="M1612.3,306.8h-53.8l-38.1-56.3l-38.1,56.3H1430l63.1-90.4l-59.1-86.3h52.3l34.1,51.5l34.1-51.5h52.8
			l-58.3,84.3L1612.3,306.8z"/>
	</g>
</g>
</svg>
