<svg xmlns="http://www.w3.org/2000/svg" xmlns:xlink="http://www.w3.org/1999/xlink" width="74" height="74" viewBox="0 0 74 74">
  <defs>
    <clipPath id="clip-Alert_icon_confirm">
      <rect width="74" height="74"/>
    </clipPath>
  </defs>
  <g id="Alert_icon_confirm" clip-path="url(#clip-Alert_icon_confirm)">
    <g id="Group_1709" data-name="Group 1709" transform="translate(1137 5182.515)">
      <g id="tick" transform="translate(-1137 -5182.515)">
        <g id="Group_797" data-name="Group 797" transform="translate(0)">
          <path id="Path_1312" data-name="Path 1312" d="M37,0A37,37,0,1,0,74,37,37.043,37.043,0,0,0,37,0ZM57.679,27.263,34.033,50.724a3.638,3.638,0,0,1-5.1.093L16.414,39.411a3.761,3.761,0,0,1-.278-5.193,3.669,3.669,0,0,1,5.193-.185l9.922,9.088L52.393,21.977a3.738,3.738,0,1,1,5.286,5.286Z" fill="#68e272"/>
        </g>
      </g>
    </g>
  </g>
</svg>
