<svg xmlns="http://www.w3.org/2000/svg" xmlns:xlink="http://www.w3.org/1999/xlink" width="37" height="36" viewBox="0 0 37 36">
  <defs>
    <clipPath id="clip-Alert_icon_fail">
      <rect width="37" height="36"/>
    </clipPath>
  </defs>
  <g id="Alert_icon_fail" clip-path="url(#clip-Alert_icon_fail)">
    <g id="Group_1707" data-name="Group 1707" transform="translate(2 2)">
      <path id="Exclusion_2" data-name="Exclusion 2" d="M16.5,33A16.5,16.5,0,1,1,33,16.5,16.519,16.519,0,0,1,16.5,33Zm6.215-8.1h0a1.648,1.648,0,0,0,.146.168,1.561,1.561,0,1,0,2.207-2.207,1.525,1.525,0,0,0-.169-.146l.011-.011-5.992-5.991,6.307-6.307-.011-.011a1.568,1.568,0,0,0-.147-2.038A1.561,1.561,0,0,0,23.03,8.21L23.019,8.2l-.158.158-6.149,6.149L10.405,8.2l-.011.011a1.561,1.561,0,0,0-2.038.147,1.567,1.567,0,0,0-.146,2.038l-.012.011.158.158L14.5,16.713,8.513,22.7l.011.012a1.513,1.513,0,0,0-.169.146A1.561,1.561,0,1,0,10.71,24.9l.011.011,5.991-5.991L22.7,24.912l.011-.011Z" fill="#f45290"/>
    </g>
  </g>
</svg>
