<svg xmlns="http://www.w3.org/2000/svg" xmlns:xlink="http://www.w3.org/1999/xlink" width="36" height="36" viewBox="0 0 36 36">
  <defs>
    <clipPath id="clip-path">
      <rect width="22" height="22" fill="none"/>
    </clipPath>
    <clipPath id="clip-Alert_icon_verification">
      <rect width="36" height="36"/>
    </clipPath>
  </defs>
  <g id="Alert_icon_verification" clip-path="url(#clip-Alert_icon_verification)">
    <g id="Group_1703" data-name="Group 1703" transform="translate(1.736 2)">
      <g id="Group_1461" data-name="Group 1461" transform="translate(0 0)">
        <path id="Exclusion_3" data-name="Exclusion 3" d="M16.5,33A16.5,16.5,0,1,1,33,16.5,16.519,16.519,0,0,1,16.5,33Z" transform="translate(0.264)" fill="#9d9d9d"/>
      </g>
      <g id="Icon_Fingerprint_Outlined" data-name="Icon / Fingerprint / Outlined" transform="translate(5.264 5)" clip-path="url(#clip-path)">
        <rect id="Box" width="22" height="22" fill="none"/>
        <path id="Path_2108" data-name="Path 2108" d="M1075.216-67.461a.534.534,0,0,1-.252-.062,13.178,13.178,0,0,0-6.1-1.449,13.174,13.174,0,0,0-6.1,1.449.577.577,0,0,1-.745-.206.5.5,0,0,1,.219-.7A14.459,14.459,0,0,1,1068.867-70a14.493,14.493,0,0,1,6.6,1.562.489.489,0,0,1,.23.689A.541.541,0,0,1,1075.216-67.461Zm-15.666,5.4a.6.6,0,0,1-.318-.093.493.493,0,0,1-.131-.72,11.138,11.138,0,0,1,4.105-3.361,13.374,13.374,0,0,1,11.287-.01,11.186,11.186,0,0,1,4.105,3.341.494.494,0,0,1-.131.72.569.569,0,0,1-.766-.123,10.119,10.119,0,0,0-3.711-3.022,12.208,12.208,0,0,0-10.29.01,10.221,10.221,0,0,0-3.722,3.043A.485.485,0,0,1,1059.551-62.064Zm6.842,12.407a.53.53,0,0,1-.383-.154,10.489,10.489,0,0,1-2.2-2.714,8.682,8.682,0,0,1-1.149-4.461c0-3.053,2.781-5.541,6.2-5.541s6.2,2.488,6.2,5.541a.526.526,0,0,1-.547.514.526.526,0,0,1-.547-.514c0-2.488-2.288-4.513-5.1-4.513s-5.1,2.025-5.1,4.513a7.663,7.663,0,0,0,1.018,3.958,9.827,9.827,0,0,0,2.025,2.488.505.505,0,0,1,0,.73A.623.623,0,0,1,1066.393-49.657Zm7.849-1.9a6.177,6.177,0,0,1-3.394-.915,5.4,5.4,0,0,1-2.605-4.513.526.526,0,0,1,.547-.514.526.526,0,0,1,.547.514,4.36,4.36,0,0,0,2.124,3.659,5.033,5.033,0,0,0,2.781.73,7.691,7.691,0,0,0,1.139-.1.543.543,0,0,1,.635.421.516.516,0,0,1-.449.6A7.949,7.949,0,0,1,1074.242-51.559Zm-2.2,2.118a.681.681,0,0,1-.142-.021,8.7,8.7,0,0,1-4.073-2.159,7.278,7.278,0,0,1-2.375-5.366,3.215,3.215,0,0,1,3.372-3.022,3.215,3.215,0,0,1,3.372,3.022,2.15,2.15,0,0,0,2.277,1.994,2.15,2.15,0,0,0,2.277-1.994c0-3.875-3.558-7.021-7.937-7.021a8.064,8.064,0,0,0-7.236,4.143,6.273,6.273,0,0,0-.646,2.878,9.661,9.661,0,0,0,.733,3.711.493.493,0,0,1-.317.658.554.554,0,0,1-.7-.3,10.836,10.836,0,0,1-.8-4.071,7.325,7.325,0,0,1,.744-3.331,9.165,9.165,0,0,1,8.222-4.729c4.981,0,9.032,3.608,9.032,8.049a3.215,3.215,0,0,1-3.372,3.022A3.215,3.215,0,0,1,1071.1-57a2.15,2.15,0,0,0-2.277-1.994A2.15,2.15,0,0,0,1066.546-57a6.28,6.28,0,0,0,2.047,4.636,7.578,7.578,0,0,0,3.58,1.9.508.508,0,0,1,.383.627A.528.528,0,0,1,1072.042-49.441Z" transform="translate(-1057.656 70.894)" fill="#fff"/>
      </g>
    </g>
  </g>
</svg>
